<?xml version="1.0" encoding="utf-8" ?>
<svg xmlns="http://www.w3.org/2000/svg" xmlns:xlink="http://www.w3.org/1999/xlink" width="85" height="85">
	<path fill="#5353C0" transform="scale(0.166016 0.166016)" d="M37.5294 2.1466L473.896 2.00021C475.625 2.00167 477.502 1.92814 479.176 2.40519L481.675 3.10489C492.682 6.83837 509.428 20.2679 509.927 32.8272L509.977 471.946C509.976 474.454 510.391 477.972 509.542 480.338C503.702 496.609 492.539 509.2 473.874 509.89L53.509 509.958C46.3609 509.957 38.9302 510.837 32 508.78C14.7977 503.673 2.34792 489.41 2.03074 471.228L2.00619 40.0092C2.01175 37.727 1.8625 35.3787 2.60667 33.1865L6.36765 23.7837C12.5815 11.6507 23.7971 3.04104 37.5294 2.1466Z"/>
	<path fill="#FFCF06" transform="scale(0.166016 0.166016)" d="M226.319 18.7075C231.207 18.2466 236.511 18.6717 241.456 18.6748L463.313 18.7292C467.019 18.7338 471.336 18.3922 474.954 19.2152C488.19 22.2258 494.194 30.0896 494.26 42.9583L494.106 89.3742C492.996 89.6949 491.56 89.5192 490.401 89.523L285.875 89.5718L18.7583 89.7187C18.4714 87.5505 18.6532 85.1934 18.6512 82.9947L18.7158 37.0257C19.178 28.1621 28.0467 20.3463 36.4627 18.9666C38.9303 18.562 41.5376 18.6972 44.029 18.6964L226.319 18.7075Z"/>
	<path fill="#5353C0" transform="scale(0.166016 0.166016)" d="M157.91 45.2519L165.656 45.2002C168.972 45.1849 173.072 44.8202 175.68 47.3211C180.041 51.5029 176.509 60.1016 170.931 61.2028C168.171 61.7478 165.024 61.5025 162.202 61.5165L146.734 61.541L139.328 61.5933C122.124 61.6743 124.981 48.5387 134.081 45.8026C136.968 44.9348 140.575 45.2693 143.583 45.2616L157.91 45.2519Z"/>
	<path fill="#5353C0" transform="scale(0.166016 0.166016)" d="M63.815 45.0681L94.4598 45.2367C97.6327 45.2305 100.821 45.0331 103.489 47.1186C109.309 51.6678 107.112 61.0056 97.5148 61.5604L73.0138 61.5667C69.0825 61.5724 64.8334 61.8998 60.9343 61.5251C51.6693 60.6347 53.2307 46.6804 63.815 45.0681Z"/>
	<path fill="#5353C0" transform="scale(0.166016 0.166016)" d="M418.877 45.2594L448.589 45.2435C452.909 45.2416 457.753 44.8079 461.999 45.3174C470.089 46.2884 471.555 58.9675 463.218 61.0849C460.591 61.7522 457.446 61.4743 454.738 61.4842L441.062 61.5302L411.103 61.5563C406.573 61.5612 401.572 62.0373 397.125 61.3899C390.649 60.4472 387.872 52.4899 392.744 47.7716C396.126 44.4962 403.403 45.2996 407.828 45.2845L418.877 45.2594Z"/>
	<path fill="#FCE8C3" transform="scale(0.166016 0.166016)" d="M494.493 454.896L494.256 464.79C494.245 468.53 494.512 472.945 493.443 476.556C490.843 485.335 481.423 494.051 471.875 494.232L48.5689 494.243C45.305 494.239 41.0038 494.712 37.858 493.862C28.7516 491.401 19.7137 483.801 18.7828 473.835C18.2948 468.611 18.7157 463.151 18.5961 457.892L18.1656 126.375C18.1705 119.375 17.7773 112.117 18.3493 105.153L53.7124 105.023L54.0312 113.375C54.147 115.113 54.4067 116.821 54.4587 118.567L54.9843 264.454L54.5446 335.496C54.5307 354.276 53.9237 366.773 61.6746 384.05C78.742 422.093 116.754 451.103 158.684 454.168C166.746 454.757 175.145 454.32 183.235 454.318L216.375 454.236C218.068 454.153 219.741 453.831 221.432 453.76L230.276 453.603C231.485 453.587 233.025 453.777 234.17 453.444C239.168 457.69 244.521 456.776 250.739 456.779L266.353 456.713C270.304 456.523 272.355 455.385 274.991 452.444C280.919 454.03 287.589 453.533 293.695 453.709L300.777 454.231L488.488 454.758C490.476 454.762 492.517 454.663 494.493 454.896Z"/>
	<path fill="white" transform="scale(0.166016 0.166016)" d="M53.7575 104.96L494.073 105.188C494.486 106.331 494.236 108.284 494.237 109.521L494.245 455.001C492.517 454.663 490.476 454.762 488.488 454.758L300.777 454.231L293.695 453.709C287.589 453.533 280.919 454.03 274.991 452.444C272.355 455.385 270.304 456.523 266.353 456.713L250.739 456.779C244.521 456.776 239.168 457.69 234.17 453.225C233.025 453.777 231.485 453.587 230.276 453.603L221.432 453.76C219.741 453.831 218.068 454.153 216.375 454.236L183.235 454.318C175.145 454.32 166.746 454.757 158.684 454.168C116.754 451.103 78.742 422.093 61.6746 384.05C53.9237 366.773 54.5307 354.276 54.5446 335.496L54.9843 264.454L54.4587 118.567C54.4067 116.821 54.147 115.113 54.0312 113.375L53.7575 104.96Z"/>
	<path fill="#5353C0" transform="scale(0.166016 0.166016)" d="M234.17 453.225C228.788 444.891 231.33 431.853 230.498 422.263C227.363 421.456 223.856 421.288 220.636 420.651C212.217 418.986 204.419 416.261 196.653 412.62C192.801 418.869 187.08 425.441 181.627 430.283C177.063 434.336 175.359 435.601 169.78 433.129C163.79 430.475 148.925 422.749 146.697 416.451C143.902 408.548 154.604 396.009 157.99 389.003L145.644 372.11C139.818 376.358 131.662 380.072 124.25 379.737C114.797 379.311 106.793 366.538 107.538 357.871C108.151 350.746 114.82 345.624 119.971 341.462L127.332 335.346C123.741 328.658 122.243 321.617 120.838 314.217C120.428 312.057 120.434 309.839 119.772 307.74L110.697 307.532C104.15 306.968 95.086 306.329 90.572 300.875L90.2687 300.5C87.274 296.846 88.506 290.344 88.5035 285.933C88.5014 282.113 87.5072 273.724 89.6625 270.409L89.8534 270.125C93.9818 263.497 101.849 263.089 108.969 262.917L119.526 262.416C119.857 261.676 119.915 260.407 120.059 259.597L125.332 238.362C125.417 238.09 125.803 237.165 125.785 236.933C125.654 235.316 108.258 224.094 107.317 216.625C107.073 214.686 107.555 212.608 108.106 210.758C114.811 188.251 129.646 190.492 144.259 202.98C148.5 196.385 154.507 190.743 160.075 185.273L151.875 173.488C141.268 156.588 149.399 154.428 163.792 146.456C177.523 138.85 177.242 138.538 189.349 151.112L199.397 161.871C209.504 157.435 219.931 154.369 230.734 152.135L231.926 136.267C234.021 118.281 243.199 121.779 257.507 121.764C272.061 121.749 276.325 120.09 277.466 137.913L277.911 146.299C278.053 152.687 277.249 151.35 283.385 152.933L294.484 155.966C300.715 157.814 306.677 160.144 312.644 162.702C316.017 159.533 318.702 155.484 321.587 151.875C332.27 138.51 336.33 140.441 348.77 148.874C356.404 154.048 362.901 157.316 360.541 167.5C358.636 175.721 353.432 183.634 347.871 189.843C353.477 195.308 358.156 195.963 360.646 204.164C369.209 196.83 385.256 187.763 394.236 198.885C397.096 202.428 399.835 206.909 401.206 211.266L401.34 211.704C404.395 221.411 386.999 231.412 380.286 236.444C385.076 246.53 385.908 254.271 389.124 263.862L404.5 264.46C406.52 264.59 408.558 264.622 410.541 265.066L411.35 265.248C422.016 267.68 421.184 276.371 421.203 285.094C421.212 289.257 421.625 293.984 420.895 298.088L420.816 298.5C419.257 307.076 409.402 307.686 402.831 307.712C398.584 307.729 394.364 307.71 390.128 308.071C387.753 314.55 386.539 321.545 384.579 328.173L382.741 334.25C381.116 338.96 381.872 337.976 386.264 341.75L394.701 349.589C401.529 356.543 402.964 359.177 398.668 368.133C391.289 383.52 386.166 385.259 371.592 378.604L360.853 373.487L349.263 386.102C355.369 394.68 366.878 410.554 357.975 419.919C354.049 424.049 340.301 434.415 334.528 434.373C325.806 434.31 317.176 418.082 310.955 411.541L278.996 422.335C276.18 429.32 280.756 442.26 274.991 452.444C272.355 455.385 270.304 456.523 266.353 456.713L250.739 456.779C244.521 456.776 239.168 457.69 234.17 453.225Z"/>
	<path fill="#FF4C60" transform="scale(0.166016 0.166016)" d="M247.309 135.723L263.692 135.811C264.395 145.633 264.659 155.765 266.613 165.425C284.547 167.882 300.002 170.686 315.988 180.326C318.255 178.451 320.178 176.107 322.134 173.922L330.29 164.508C332.319 161.982 334.184 159.285 336.597 157.105L343.875 162.544C346.774 165.087 347.348 165.665 345.606 169.135C342.418 175.483 333.456 185.761 334.29 193.21C334.671 196.613 345.918 204.735 348.61 207.499C351.966 210.944 354.7 215.088 358.518 218.044C367.651 216.817 373.846 210.034 382.04 207.822C384.323 209.257 385.698 211.151 386.565 213.696C383.97 219.658 371.031 227.326 366.069 234.248C368.311 242.332 371.705 250.031 373.875 258.117L376.4 268.995C376.808 270.939 377.078 274.159 378.169 275.778C380.006 278.505 402.259 277.031 406.925 277.865L406.875 293.646L394.829 293.67C382.544 293.715 378.705 292.952 376.417 305.274L374.496 314.875C372.409 323.586 369.031 331.82 365.303 339.937C372.666 346.644 380.702 353.049 386.255 361.432C385.393 363.818 384.402 365.38 382.314 366.86C378.45 367.259 363.007 357.904 357.84 356.015L345.16 371.661C341.357 376.062 337.126 380.369 333.917 385.231C333.673 387.458 346.46 406.326 348.595 409.252C347.216 411.292 337.613 417.099 335.425 418.322L314.769 393.55C304.141 400.965 291.267 404.208 278.801 406.996C265.323 410.011 264.57 409.273 264.467 424.613L264.388 438.924L263.848 442.581L245.087 442.698C244.839 440.25 245.016 437.714 244.938 435.25L243.719 420.311C242.728 411.698 243.727 408.837 234.961 407.787C224.939 406.587 215.03 404.241 205.778 400.157C202.193 398.574 198.9 396.369 195.244 394.967C187.57 401.268 182.796 410.426 175.223 416.617C170.283 414.927 165.738 412.896 161.413 409.959C167.772 401.898 171.079 392.839 175.561 383.698C175.167 382.861 174.091 382.018 173.44 381.347L151.418 357.362C150.689 356.597 149.862 355.941 149.026 355.299C141.145 358.407 134.19 364.216 127.205 366.773C125.322 365.034 123.02 361.268 122.743 358.688C122.42 355.689 127.578 353.217 129.582 351.826C134.572 348.363 140.018 344.366 143.693 339.512L135.702 314.747L133.561 304.321C133.082 301.587 132.973 297.575 131.551 295.202C127.458 292.138 119.59 292.983 114.843 292.97L103.469 292.954L103.459 276.801C109.306 276.415 127.655 278.115 131.508 274.375C132.699 273.22 136.228 254.059 137.472 250.012L140.38 240.698C142.342 234.463 143.368 233.428 138.141 228.724L129.67 221.822C127.113 219.889 124.515 218.096 122.346 215.709C124.869 205.709 128.631 209.423 135.639 212.802C140.072 214.939 144.523 217.161 149.188 218.744L149.696 218.367C152.501 216.248 154.844 212.8 157.172 210.139L165.795 201.106C167.441 199.525 169.148 197.972 170.962 196.588C179.027 190.436 178.858 192.715 173.762 183.046L165.595 168.307C164.736 166.84 163.291 165.249 162.676 163.719L173.369 157.954C173.614 157.836 175.758 156.742 175.873 156.775C176.704 157.015 180.715 162.978 181.481 163.972C184.48 167.86 187.838 171.812 191.716 174.838C197.788 179.576 200.857 176.976 207.613 174.53L218.263 170.83C223.057 169.315 227.979 168.294 232.905 167.323C239.823 165.959 242.75 167.88 243.936 160.99L247.309 135.723Z"/>
	<path fill="#5353C0" transform="scale(0.166016 0.166016)" d="M252.916 186.101L253.463 186.026C283.551 185.37 305.021 196.383 326.897 217.366C343.722 233.505 355.052 256.833 355.488 280.384C355.829 298.793 354.553 317.757 345.796 334.357C333.376 357.899 310.322 378.549 284.386 385.341C275.666 387.624 266.232 388.336 257.245 388.489L245.916 388.392C242.984 388.265 240.075 387.951 237.182 387.45C197.054 380.494 168.451 351.676 157.429 312.75C154.753 303.3 152.914 288.684 154.756 278.733L156.786 266.846C167.417 217.998 202.769 189.655 252.916 186.101Z"/>
	<path fill="white" transform="scale(0.166016 0.166016)" d="M275.471 350.367L281.175 350.259L277.204 355.655C276.258 356.397 275.587 357.358 274.857 358.303C274.398 356.068 274.612 352.92 274.786 350.625L275.471 350.367Z"/>
	<path fill="#B8CDF9" transform="scale(0.166016 0.166016)" d="M236.008 349.365L240.911 349.319C241.389 350.258 240.23 358.484 240.115 360.193L238.425 358.25L231.606 349.542L236.008 349.365Z"/>
	<path fill="#93A4ED" transform="scale(0.166016 0.166016)" d="M275.456 214.88L285.853 229.572C284.794 229.643 283.213 229.316 282.079 229.276L275.501 229.17L275.489 220.125C275.466 218.374 275.246 216.624 275.456 214.88Z"/>
	<path fill="#93A4ED" transform="scale(0.166016 0.166016)" d="M240.931 211.92C240.738 213.355 240.044 214.652 239.811 216.08C239.267 219.395 239.523 225.192 239.964 228.465L240.009 228.762C236.404 228.766 232.226 228.181 228.708 228.767L228.375 228.826C227.861 228.941 228.086 228.991 227.688 228.75L240.931 211.92Z"/>
	<path fill="#B8CDF9" transform="scale(0.166016 0.166016)" d="M297.237 350.305L313.773 350.299C308.432 358.356 299.852 362.657 291.425 366.867L279.426 372.756C284.19 368.416 294.91 356.748 297.13 350.611L297.237 350.305Z"/>
	<path fill="white" transform="scale(0.166016 0.166016)" d="M251.817 348.358L262.658 348.31C262.433 354.725 263.851 364.788 260.875 370.661C258.396 372.454 254.328 371.743 252.566 369.276C249.885 365.523 250.429 353.548 251.102 348.647L251.817 348.358Z"/>
	<path fill="white" transform="scale(0.166016 0.166016)" d="M257.536 204.309C261.989 204.393 262.469 207.029 262.923 210.75C263.626 216.511 263.476 222.508 263.294 228.301L256.945 228.04L250.907 228.232L250.836 214.705C250.884 208.446 250.276 205.53 257.536 204.309Z"/>
	<path fill="#B8CDF9" transform="scale(0.166016 0.166016)" d="M281.805 204.955C297.783 212.305 307.891 217.99 320.737 231.037C314.412 230.818 308.329 230.172 302.072 229.239C297.999 228.633 298.032 225.979 295.525 222.318C291.391 216.284 287.246 209.896 281.805 204.955Z"/>
	<path fill="#93A4ED" transform="scale(0.166016 0.166016)" d="M193.321 349.155C200.702 350.287 208.494 349.154 215.96 349.686C218.459 352.239 220.184 356.182 222.281 359.125L233.496 373.45C224.511 369.582 215.618 365.342 207.542 359.785L193.321 349.155Z"/>
	<path fill="#B8CDF9" transform="scale(0.166016 0.166016)" d="M251.884 243.728L262.647 243.804L262.498 279.875C261.479 280.794 253.437 280.337 251.949 280.21L251.884 243.728Z"/>
	<path fill="#B8CDF9" transform="scale(0.166016 0.166016)" d="M251.915 295.703L262.413 295.716C262.607 297.204 262.485 298.807 262.486 300.314L262.503 335.442L251.978 335.476C251.764 334.31 251.911 332.87 251.911 331.671L251.915 295.703Z"/>
	<path fill="#93A4ED" transform="scale(0.166016 0.166016)" d="M231.069 204.125L231.374 204.215C230.805 205.583 229.554 206.86 228.644 208.044L219.742 219.125C216.007 224.024 214.453 230.138 208.736 230.481L189.375 231.907C189.108 231.918 189.264 231.94 188.934 231.744C198.445 221.716 206.014 213.657 218.941 208.239C222.757 206.64 227.102 206.087 230.742 204.29L231.069 204.125Z"/>
	<path fill="#B8CDF9" transform="scale(0.166016 0.166016)" d="M276.982 245.026L290.951 245.17C295.391 256.46 297.881 267.91 298.033 280.037L277.04 280.306L276.982 245.026Z"/>
	<path fill="#B8CDF9" transform="scale(0.166016 0.166016)" d="M233.64 244.466L237.04 244.251L236.805 280.583L219.562 280.395L215.404 280.257C216.175 268.411 219.125 255.815 223.672 244.853L233.64 244.466Z"/>
	<path fill="#B8CDF9" transform="scale(0.166016 0.166016)" d="M216.363 295.744L236.899 295.735L237.04 335.329C233.316 334.823 229.209 335.038 225.18 334.333C218.965 323.025 217.088 308.375 216.363 295.744Z"/>
	<path fill="#B8CDF9" transform="scale(0.166016 0.166016)" d="M276.506 295.801L297.779 295.724C297.377 306.229 296.05 318.772 291.532 328.425C288.253 334.072 282.506 334.131 276.5 334.464L276.506 295.801Z"/>
	<path fill="#B8CDF9" transform="scale(0.166016 0.166016)" d="M307.468 245.411C312.205 245.916 325.136 246.745 328.528 249.475C335.541 255.121 338.225 272.356 339.248 280.559L313.646 280.076C313.088 279.142 313.31 275.441 313.204 274.173L312.18 265.052C311.229 258.373 309.742 251.769 307.468 245.411Z"/>
	<path fill="#93A4ED" transform="scale(0.166016 0.166016)" d="M199.547 245.071L205.999 245.001C203.304 251.794 201.299 263.319 200.212 270.437L199.039 279.932L179.188 279.979L172.585 279.999C173.13 278.946 173.149 277.875 173.341 276.73L174.169 272.837C176.019 264.685 179.398 254.71 185.209 248.562C188.86 244.7 194.623 245.221 199.547 245.071Z"/>
	<path fill="#93A4ED" transform="scale(0.166016 0.166016)" d="M173.103 295.671L200.35 295.72C200.475 310.588 202.471 320.993 209.083 334.856C207.562 334.683 206.056 334.528 204.525 334.503L190.794 334.471C188.531 334.454 187.068 335.099 186.126 332.596C184.917 329.383 182.659 326.3 181.12 323.177C176.8 314.407 174.33 305.358 173.103 295.671Z"/>
	<path fill="#B8CDF9" transform="scale(0.166016 0.166016)" d="M315.664 295.358L339.063 295.64C337.969 309.442 335.076 323.951 324.385 333.659C319.448 336.813 309.364 335.482 303.432 336.003C308.814 327.191 312.142 314.978 313.259 304.849C313.598 301.781 313.211 298.524 313.758 295.514L315.664 295.358Z"/>
</svg>
