<?xml version="1.0" encoding="utf-8" ?>
<svg xmlns="http://www.w3.org/2000/svg" xmlns:xlink="http://www.w3.org/1999/xlink" width="96" height="96">
	<path transform="scale(0.1875 0.1875)" d="M26.571 106.678C37.7245 109.331 34.933 116.675 34.9137 125.6L34.8356 239.848C34.8314 245.646 35.3806 254.395 29.0467 257.809L28.7453 257.959C17.5643 256.209 18.2623 250.041 18.2894 241.706L18.2563 113.677C18.3778 109.091 22.6511 107.695 26.571 106.678Z"/>
	<path transform="scale(0.1875 0.1875)" d="M27.4402 90.4091L27.2097 90.375C26.1135 90.2178 25.3923 89.8591 24.4371 89.3279L24.124 89.1586C19.2332 86.4699 18.396 82.578 18.3392 77.5362L18.3187 69.2777C18.3066 54.3074 17.0289 39.392 24.6417 25.8518C31.5949 13.4847 43.5739 4.67003 57.6232 2.2626C61.3744 1.61981 65.5663 1.98764 69.3805 1.98521L313.558 1.9878C319.127 1.98858 325.158 1.52427 330.664 2.17014C350.413 4.48683 366.648 22.2741 369.198 41.5747C370.271 49.6957 369.779 58.179 369.779 66.3573L369.879 115.703L470.859 115.635C474.903 115.627 479.839 115.034 483.708 116.109C492.308 118.501 501.058 125.636 501.846 135.067L502.019 136.113C502.494 138.604 502.363 141.212 502.369 143.738L502.377 299.13C502.373 310.275 503.114 321.314 492.75 328.517L492.389 328.771C484.954 333.935 476.38 333.208 467.804 333.213L369.982 333.231C369.487 341.63 369.817 350.167 369.793 358.59C369.774 364.898 371.187 375.871 361.781 376.807L361.714 397.456C361.704 400.394 361.327 403.716 361.7 406.598C369.884 406.898 369.764 413.316 369.774 419.048L369.785 454.794C369.78 460.343 370.151 466.078 369.107 471.548C365.328 491.36 349.646 505.663 330 509.498C324.223 510.626 317.493 510.002 311.598 510.005L68.7918 510.003C65.4683 510.002 61.9143 510.259 58.6366 509.74C37.7349 506.43 20.8063 488.411 18.6352 467.363C18.2418 463.55 18.3272 459.698 18.3228 455.87L18.2843 299.914C18.2804 291.585 16.2443 280.173 28.0028 279.048C29.8773 278.627 29.3892 259.119 28.8281 257.959L29.0467 257.809C35.3806 254.395 34.8314 245.646 34.8356 239.848L34.9137 125.6C34.933 116.675 37.7245 109.331 26.571 106.678L27.4402 90.4091Z"/>
	<path fill="#5353C0" transform="scale(0.1875 0.1875)" d="M319.399 89.9845C320.156 90.0186 321.149 90.1668 322.033 90.1857L352.842 90.3283L352.837 116.189C348.554 115.498 343.95 115.708 339.496 115.701L319.468 115.772L319.399 89.9845Z"/>
	<path fill="#5353C0" transform="scale(0.1875 0.1875)" d="M361.7 406.598L361.512 406.63C359.248 407.344 356.883 407.201 354.528 407.206L319.416 407.232L319.409 333.682C320.135 333.245 349.533 333.548 353.017 333.548C352.76 336.222 352.842 338.93 352.77 341.614L352.462 357.382C352.4 366.931 349.924 374.194 361.781 376.807L361.714 397.456C361.704 400.394 361.327 403.716 361.7 406.598Z"/>
	<path fill="#5353C0" transform="scale(0.1875 0.1875)" d="M27.4402 90.4091L63.8665 90.2641L63.6072 407.335L34.9812 407.308L34.8689 297.797C34.8772 294.742 35.8075 288.901 34.5859 286.192L34.4508 285.884C33.3362 283.448 30.4187 280.204 28.0028 279.048C29.8773 278.627 29.3892 259.119 28.8281 257.959L29.0467 257.809C35.3806 254.395 34.8314 245.646 34.8356 239.848L34.9137 125.6C34.933 116.675 37.7245 109.331 26.571 106.678L27.4402 90.4091Z"/>
	<path fill="#FF4C60" transform="scale(0.1875 0.1875)" d="M131.631 17.9947L314.915 18.01C332.472 18.11 350.067 24.4568 352.585 44.5613C353.041 48.2015 352.854 52.0165 352.86 55.6836L352.979 73.1903L257.113 73.1909L35.4931 73.3031L35.501 54.4593C35.5068 51.1942 35.1657 47.3219 35.7974 44.125C39.7017 24.3668 55.4098 18.0223 73.216 18.0104L131.631 17.9947Z"/>
	<path transform="scale(0.1875 0.1875)" d="M236.55 36.8566C251.474 37.4636 255.644 53.2128 237.689 54.7321C234.354 54.7713 230.476 54.8016 227.735 52.6063C218.943 45.5659 226.876 37.6655 236.55 36.8566Z"/>
	<path transform="scale(0.1875 0.1875)" d="M159.887 37.6037L189.891 37.5803C194.951 37.5805 200.464 37.1601 205.472 37.7637C213.315 38.709 217.58 53.6718 204.925 54.6992L174.125 54.7305C169.143 54.7287 163.681 55.1682 158.75 54.5767C148.729 53.3745 148.815 38.3241 159.887 37.6037Z"/>
	<path fill="#FF4C60" transform="scale(0.1875 0.1875)" d="M134.352 424.163L353.011 424.277L352.574 460.625C352.43 463.576 352.558 466.591 351.978 469.5C348.199 488.464 333.495 493.46 316.718 493.496L254.062 493.517L69.6017 493.516C66.3677 493.51 62.1597 493.894 59.1092 492.826C47.941 488.914 36.8293 479.156 35.6669 466.752L35.469 424.329L134.352 424.163Z"/>
	<path transform="scale(0.1875 0.1875)" d="M190.918 430.599C197.595 429.84 204.951 430.937 210.677 434.551C222.492 442.008 228.543 460.279 220.663 472.527C215.742 480.176 207.86 485.802 198.978 487.683L196.445 488.061C162.701 492.166 150.042 435.025 190.918 430.599Z"/>
	<path fill="#5353C0" transform="scale(0.1875 0.1875)" d="M191.856 447.287C208.366 446.017 211.676 467.259 196.846 471.424C180.51 473.133 176.445 450.797 191.856 447.287Z"/>
	<path fill="#FCE8C3" transform="scale(0.1875 0.1875)" d="M165.389 90.2452L302.384 90.2449L302.445 115.73L184.283 115.65C180.071 115.65 174.797 115.076 170.721 116.073C151.851 120.689 150.401 130.528 150.383 147.386L150.366 301.12C150.373 304.716 149.993 308.915 150.904 312.393C157.3 336.8 178.619 332.684 198.872 333.3C199.294 333.992 199.343 334.866 199.496 335.66L204.41 361.534C205.249 366.514 205.745 377.852 209.417 381.589C215.905 388.191 223.562 380.331 227.933 375.853L264.797 340.095L270.231 334.283C272.203 332.351 278.393 333.525 280.992 333.525L302.395 333.526L302.275 407.298L80.6753 407.333L80.6071 90.3507C82.709 89.963 85.3964 90.2609 87.5546 90.2599L165.389 90.2452Z"/>
	<path fill="#FFCF06" transform="scale(0.1875 0.1875)" d="M176.274 132.593L465.102 132.588C470.931 132.599 479.491 131.174 483.977 135.788C485.05 136.892 484.962 140.043 485.006 141.536L485.061 311.159C484.684 319.05 470.475 316.496 464.786 316.498L435.038 316.497L434.564 316.492C418.98 316.343 265.1 316.237 264.146 316.623C262.912 317.123 261.518 318.923 260.595 319.907L221.154 358.734C219.082 351.183 217.87 343.179 216.567 335.457L214.822 325.054C213.135 315.605 212.471 316.247 202.929 316.426L187.453 316.508C179.996 316.532 167.846 317.758 167.502 306.875L167.521 141.951C167.562 140.803 167.617 139.642 168.057 138.565L168.195 138.25C169.495 135.187 172.168 133.274 175.456 132.721L176.274 132.593Z"/>
	<path transform="scale(0.1875 0.1875)" d="M337.16 167.787C343.442 167.51 349.012 171.76 347.251 178.75C346.357 182.299 344.967 185.783 343.787 189.25L317.852 267.719C316.008 273.579 315.211 282.343 308.489 284.676C301.149 286.26 296.39 280.214 298.151 273.456C299.352 268.849 301.166 264.295 302.635 259.754L325.967 188.787C328.217 181.925 329.438 170.338 337.16 167.787Z"/>
	<path transform="scale(0.1875 0.1875)" d="M385.06 169.045C390.744 168.662 393.479 172.243 397.476 175.545L436.208 208.47C440.484 211.982 445.364 215.279 449.166 219.296C451 221.233 454.108 227.585 452.126 230.212L451.93 230.453C447.51 236.254 440.766 240.822 435.176 245.446L405.185 269.93C400.585 273.631 396.298 278.029 391.377 281.275C384.957 284.806 377.73 279.37 378.269 272.131C378.57 268.09 384.937 264.498 387.75 262.245L431.606 226.422L402.437 201.881C395.353 195.956 387.48 190.279 381.126 183.585C375.877 178.056 377.593 170.593 385.06 169.045Z"/>
	<path transform="scale(0.1875 0.1875)" d="M266.255 168.784C275.904 168.274 278.581 178.604 272.479 184.59C269.51 187.504 265.955 189.993 262.721 192.615L230.948 218.441C227.959 220.9 224.919 223.703 221.59 225.682L268.678 265.313C270.484 266.743 272.353 268.124 273.564 270.13C277.082 275.956 271.796 284.501 264.516 282.401L262.909 281.629C257.334 278.682 252.104 273.645 247.302 269.566L210.825 238.756C193.608 224.173 200.19 221.568 213.617 210.747L251.106 179.629C255.806 175.54 260.065 170.496 266.255 168.784Z"/>
</svg>
