<?xml version="1.0" encoding="utf-8" ?>
<svg xmlns="http://www.w3.org/2000/svg" xmlns:xlink="http://www.w3.org/1999/xlink" width="85" height="85">
	<path transform="scale(0.166016 0.166016)" d="M386.005 2.02373L428.065 1.96337C429.215 1.96673 430.812 1.75009 431.875 2.17834C432.088 4.36373 434.552 6.80363 435.4 8.8601C438.115 15.4389 435.877 21.6372 436.946 28.2667C438.79 29.45 442.153 27.3454 443.659 26.2803L449.811 21.8183C463.173 12.6713 468.753 24.0545 477.129 32.9131C482.018 38.0837 488.067 42.9474 491.956 48.9333L492.125 49.1963C494.11 52.1938 495.456 54.3965 493.674 57.7249L493.522 58C492.605 59.6848 483.074 71.7757 481.122 73.521L480.791 73.8064C484.372 73.7434 487.819 74.0638 491.375 74.1722L498.483 74.2358C499.902 74.2526 501.617 74.1906 502.975 74.6366L503.25 74.7338C506.903 75.9741 509.848 81.5186 509.999 85.1168L510.007 402.497C510.014 405.821 510.374 409.628 509.836 412.899L509.774 413.25C509.204 416.861 506.693 421.499 504.628 424.488C495.887 437.139 482.618 436.502 469.142 436.489L343.214 436.489L343.172 450.968C343.159 453.713 343.344 456.628 342.9 459.332L357.572 459.702C360.014 459.706 362.657 459.537 365.058 460.04L365.311 460.095C379.907 462.663 378.249 475.221 378.257 486.032C378.259 490.243 378.624 494.834 377.845 498.971L377.766 499.375C377.62 500.141 377.489 500.815 377.13 501.514L377.005 501.75C374.956 505.765 370.652 507.986 366.625 509.499L366.194 509.672C364.241 510.308 361.361 509.999 359.303 510L146.457 509.995C144.931 509.958 143.7 509.73 142.36 508.976L142 508.77C139.29 507.238 137.025 505.393 135.29 502.774L134.919 502.138C133.793 500.199 133.282 498.341 133.266 496.094L133.241 479.699C133.245 477.103 132.901 473.862 133.483 471.346C136.09 460.087 146.052 459.63 155.067 459.661L168.942 459.627L169.003 436.488L31.8383 436.489C16.9997 436.48 6.36657 427.39 2.73975 413.042L2.63732 412.625C1.63521 408.642 1.99865 404.307 1.99706 400.223L2.00231 99.922C2.15085 87.5148 14.1096 75.6858 26 73.8163C28.7263 73.3877 31.847 73.6732 34.6235 73.6846L335.779 74.2394C334.668 72.8352 334.092 71.1973 332.999 69.75C327.977 63.0937 320.07 56.4889 326.063 47.7202C329.138 43.2213 333.294 39.4215 336.9 35.3503L343.513 27.6906C345.588 25.2183 347.705 22.4107 350.364 20.5549L350.766 20.2788C359.97 13.8656 367.008 30.3318 375.151 29.2184L377.332 28.8659C379.171 22.3014 375.43 4.74792 386.005 2.02373ZM488.472 132.638L481.683 133.055C482.419 133.701 482.947 134.257 483.497 135.075L490.342 144.86C491.061 146.228 491.852 147.545 492.279 149.037L492.406 132.485C491.849 132.511 488.737 132.509 488.472 132.638Z"/>
	<path fill="#5353C0" transform="scale(0.166016 0.166016)" d="M317.73 436.519L326.283 436.48L326.288 459.502L317.622 459.664L317.73 436.519Z"/>
	<path fill="#5353C0" transform="scale(0.166016 0.166016)" d="M186.328 436.73L194.77 436.546L194.805 452.752C194.815 455.018 195.213 457.992 194.684 460.125C191.907 459.705 188.781 459.825 186.165 460.045L186.328 436.73Z"/>
	<path fill="#5353C0" transform="scale(0.166016 0.166016)" d="M224.753 436.492C225.839 436.796 227.906 436.529 229.094 436.529L300.28 436.563C300.673 438.7 300.318 441.526 300.299 443.731L300.214 459.637L288.125 459.693L212.491 459.767C212.181 459.425 212.409 439.147 212.418 436.719C216.376 436.182 220.731 436.574 224.753 436.492Z"/>
	<path fill="#5353C0" transform="scale(0.166016 0.166016)" d="M346.387 492.463L149.848 492.512L149.989 477.74L342.394 477.607L361.259 477.583L361.274 492.476L346.387 492.463Z"/>
	<path fill="#FCE8C3" transform="scale(0.166016 0.166016)" d="M489.398 160.23C490.733 158.762 491.842 157.38 492.612 155.518L492.771 161.359L493.167 365.412L474.54 365.502L475.098 173.029C475.814 172.102 476.953 171.452 477.875 170.738L482.221 167.167C484.729 164.981 487.054 162.589 489.398 160.23Z"/>
	<path fill="#FF4C60" transform="scale(0.166016 0.166016)" d="M395.892 19.2418L418.73 19.5442L418.724 27.255C418.748 42.946 422.222 41.1638 434.429 46.4791C436.763 47.4951 439.342 49.5037 441.902 49.7089C447.088 50.1246 453.125 40.6642 457.393 36.8494C460.453 39.143 462.97 42.1307 465.552 44.9256L475.19 55.1092C469.77 59.4695 464.054 64.3077 461.62 71.0333C463.756 77.1791 463.948 85.0951 469.363 89.6137L469.685 89.875C472.334 92.0905 475.859 91.3528 479.101 91.3643L492.263 91.4313L492.137 114.78L476.082 114.757C474.257 114.757 470.791 114.349 469.221 115.193C465.412 117.24 461.664 128.638 460.861 132.409C461.603 134.264 462.839 135.637 464.108 137.144L468.998 142.983C470.95 145.406 472.718 147.908 474.427 150.504L461.297 163.125C461.052 163.351 458.81 165.33 458.726 165.32C457.076 165.136 449.442 152.331 441.743 152.174C436.175 152.061 426.087 157.522 422.364 161.228C419.73 163.851 419.615 165.563 419.579 169.238L419.544 177.933C419.215 179.549 419.62 181.389 419.136 182.982L398.297 182.965C398.295 178.542 399.111 163.642 397.06 160.645C394.749 157.27 384.299 151.783 380.326 151.341C374.544 150.698 365.202 160.611 360.855 163.989L343.443 146.619L348.28 142.83C352.118 139.489 357.255 134.768 357.48 129.336C357.753 122.739 352.993 115.657 346.523 113.968C344.261 113.377 341.521 113.62 339.193 113.61L327.266 113.497L326.54 91.5011L340.153 91.417C342.18 91.4406 347.177 92.2016 348.684 90.9565C352.76 87.5895 355.632 77.3244 355.954 72.5C356.152 69.5378 354.226 67.0721 352.438 64.9135L342.923 54.4941C348.76 49.523 351.646 44.6678 356.619 39.2702C370.087 47.7434 367.286 53.6824 381.984 46.3342C397.775 38.4401 396.422 37.3472 395.892 19.2418Z"/>
	<path transform="scale(0.166016 0.166016)" d="M407.887 70.102L407.95 70.0908C423.97 68.9639 438.765 81.1169 439.944 97.375C441.192 114.575 428.515 129.186 411.312 130.411C373.883 132.678 364.458 73.6716 407.887 70.102Z"/>
	<path fill="#FCE8C3" transform="scale(0.166016 0.166016)" d="M408.605 87.3214C424.932 86.2045 427.767 111.56 410.052 112.825C393 112.467 390.295 90.0738 408.605 87.3214Z"/>
	<path fill="#5353C0" transform="scale(0.166016 0.166016)" d="M477.498 418.766L31.2341 418.856C19.4977 418.494 19.9699 407.5 19.9869 398.603L20.0773 383.456L477.976 383.307C482.875 383.328 488.21 382.902 493.052 383.512L493.065 402.125C492.993 403.601 492.644 405.091 492.534 406.587C492.049 413.169 489.889 417.172 482.243 418.609C480.749 418.89 479.021 418.785 477.498 418.766Z"/>
	<path transform="scale(0.166016 0.166016)" d="M253.427 392.856L259.933 392.78C263.556 392.783 267.542 392.599 270.428 395.138C273.936 398.225 274.139 403.832 271.018 407.248C268.16 410.377 263.68 410.376 259.761 410.567L253.096 410.722C249.626 410.735 245.975 410.967 243.105 408.623C239.661 405.81 237.775 400.169 241.103 396.544C244.138 393.239 249.27 393.124 253.427 392.856Z"/>
	<path fill="#FFCF06" transform="scale(0.166016 0.166016)" d="M474.361 365.204L20.0136 365.568L20.0411 101.65C20.1627 96.7051 22.3095 93.3231 27.351 91.8116L27.75 91.6965C30.4394 90.8685 33.8078 91.2741 36.6171 91.3056L308.759 91.4007L308.759 106.658C308.763 110.202 308.293 115.304 309.574 118.611L309.853 119.424C313.228 131.158 325.447 130.374 335.317 132.18C325.59 142.283 319.38 144.633 329.804 157.238C333.175 161.314 337.013 164.935 340.758 168.659C345.748 173.621 354.08 184.798 362.236 182.085C369.04 179.821 373.731 173.712 380.239 171.078C381.838 178.742 377.983 199.036 390.742 200.703C396.732 201.485 403.235 201.018 409.278 201.014L418.124 201C420.264 200.994 422.467 201.06 424.572 200.621L425 200.526C437.862 197.757 436.689 186.058 436.725 175.932C436.729 174.678 436.543 173.061 436.925 171.875C448.916 168.768 454.065 198.146 475.098 173.029L474.361 365.204Z"/>
	<path transform="scale(0.166016 0.166016)" d="M117.891 151.107C122.42 150.829 129.835 149.954 133.493 152.918C137.337 156.033 138.444 161.866 134.909 165.659C131.967 168.815 127.895 169.184 123.855 169.394C120.573 169.464 116.241 169.953 113.077 169.102L112.75 169.008C106.704 167.367 101.54 160.55 106.569 154.806C109.458 151.507 113.837 151.337 117.891 151.107Z"/>
	<path transform="scale(0.166016 0.166016)" d="M118.774 111.607C123.695 111.279 130.231 110.951 134.224 114.298C138.738 118.081 138.285 123.484 134.222 127.471C131.273 130.364 127.55 130.249 123.731 130.229C118.596 130.123 112.152 131.089 107.94 127.58C104.209 124.472 103.545 119.195 106.86 115.511C110.03 111.988 114.387 111.822 118.774 111.607Z"/>
	<path transform="scale(0.166016 0.166016)" d="M54.5351 150.853L66.2895 150.91C67.5206 150.967 69.3553 150.946 70.4647 151.498L71.9863 152.355C80.0997 157.347 76.5971 168.301 65.3123 169.513C61.9377 169.701 53.1313 170.149 50.0954 168.949L49.625 168.747C39.1679 164.456 40.7345 152.011 54.5351 150.853Z"/>
	<path transform="scale(0.166016 0.166016)" d="M57.8555 111.609L65.3315 111.622C81.1953 111.883 80.106 127.112 70.1495 129.737L69.7565 129.834C67.5895 130.393 65.3434 130.25 63.1221 130.223C57.6376 130.124 50.6233 131.27 46.2535 127.317C42.4754 123.899 42.0945 118.061 45.7013 114.378C48.8923 111.121 53.6884 111.658 57.8555 111.609Z"/>
	<path transform="scale(0.166016 0.166016)" d="M378.547 234.327L438.057 234.51C444.291 234.505 450.425 234.065 452.295 241.958C453.525 247.144 448.635 251.042 444.062 251.986L386.571 252.111C383.817 252.154 380.861 252.5 378.125 252.221C367.081 251.093 366.495 236.399 378.547 234.327Z"/>
	<path transform="scale(0.166016 0.166016)" d="M377.065 322.576C380.201 322.246 383.551 322.474 386.712 322.473L430.785 322.49C435.071 322.494 439.482 322.282 443.756 322.548C454.602 323.222 454.861 336.635 444.854 339.835C441.549 340.565 437.697 340.224 434.313 340.228L391.489 340.264C387.201 340.266 382.772 340.502 378.5 340.255C368.396 339.671 366.616 325.545 377.065 322.576Z"/>
	<path transform="scale(0.166016 0.166016)" d="M378.508 278.348L437.065 278.398C439.591 278.378 442.254 278.19 444.766 278.387C453.45 279.071 457.149 294.353 442.562 295.627L384.125 296.082C381.723 296.081 378.94 296.34 376.59 295.85L375.484 295.63C366.636 293.706 365.912 279.63 378.508 278.348Z"/>
	<path transform="scale(0.166016 0.166016)" d="M50.3867 234.584L111.438 234.515C114.964 234.514 118.596 234.342 122.11 234.538C132.229 235.104 133.795 249.579 121.315 252.451L55.9638 252.174C53.5733 252.211 51.1134 252.527 48.7323 252.308C38.7024 251.386 39.7837 235.837 50.3867 234.584Z"/>
	<path transform="scale(0.166016 0.166016)" d="M50.6231 278.559C54.861 278.232 59.2254 278.429 63.4767 278.429L110.117 278.429C114.12 278.43 118.251 278.211 122.239 278.494C131.58 279.156 136.33 292.363 122.064 296.167C118.762 296.526 115.667 296.164 112.375 296.122L64.5362 296.094C59.8556 296.101 55.0424 296.38 50.3754 296.148C41.0699 295.686 37.4053 281.114 50.6231 278.559Z"/>
	<path transform="scale(0.166016 0.166016)" d="M53.7033 190.363L114.099 190.34C119.973 190.3 131.662 189.959 131.897 198.375C132.081 204.938 126.074 208.322 120.28 208.243L59.3949 208.082C53.0235 208.25 42.4513 209.341 42.2539 199.498C42.1231 192.974 48.1461 190.564 53.7033 190.363Z"/>
	<path transform="scale(0.166016 0.166016)" d="M50.384 322.588C54.4272 322.313 58.5929 322.502 62.6517 322.501L110.682 322.516C114.53 322.519 122.534 321.599 125.903 323.264L126.25 323.442C134.512 327.583 132.735 339.382 123.719 340.362L58.2966 340.292C55.5607 340.313 52.7174 340.543 49.9979 340.302C40.1143 339.428 39.4227 323.839 50.384 322.588Z"/>
	<path transform="scale(0.166016 0.166016)" d="M235.947 124.318L252.396 124.186C271.473 124.229 267.276 128.775 271.586 144.915C272.258 147.431 279.588 148.452 281.917 149.227L288.006 151.425C291.96 152.784 294.005 149.019 297.681 146.711C306.558 141.138 310.205 143.582 317.964 149.985C335.495 164.451 336.523 165.938 321.817 182.475C325.133 187.482 327.697 192.11 329.355 197.933C330.38 201.531 329.495 203.661 332.556 204.451L337 205.764C350.654 210.36 347.783 215.848 348.075 227.573C348.442 242.271 348.535 245.548 331.589 249.905C328.505 250.698 329.02 257.057 327.725 260.875C326.572 264.27 324.856 267.139 322.494 269.815C326.04 273.928 330.047 278.978 331.877 284.123C334.151 290.513 324.102 297.038 320.302 300.844C317.335 303.817 312.431 310.915 308.375 312.122C304.618 313.241 293.9 305.065 290.29 303.245C286.931 305.831 283.697 308.17 279.695 309.672C278.763 310.021 272.293 311.644 272.098 311.87C270.549 313.664 272.243 328.795 262.797 335.556C261.802 336.099 260.907 336.391 259.767 336.453C252.855 336.827 235.487 337.749 230.799 333.444C225.569 328.641 225.452 318.722 225.211 312.102C218.572 309.641 211.843 307.511 205.961 303.446C201.509 306.663 196.467 309.868 191.057 311.102C185.019 312.48 180.794 305.676 177.151 301.891C164.587 288.838 161.329 288.14 173.598 271.534C173.898 271.129 173.871 271.345 173.669 270.883C170.804 264.355 167.687 256.934 166.662 249.831L166.627 249.568C159.112 249.316 152.403 246.534 149.824 239.041L149.47 237.88C148.583 233.526 149.039 228.321 149.052 223.878C149.098 208.298 149.789 207.984 166.158 204.398C166.823 196.873 170.29 189.571 174.413 183.38C170.479 178.506 164.551 170.487 164.753 164C165.634 162.166 167.204 160.779 168.654 159.393L173.914 154.461C178.399 150.295 183.407 144.092 189.241 141.853C196.268 143.441 204.683 151.642 207.407 152.072C208.208 152.199 215.348 148.585 216.978 147.98C219.009 147.225 226.621 145.863 226.628 144.883L226.652 142.067C226.73 135.275 227.962 125.968 235.947 124.318Z"/>
	<path fill="#5353C0" transform="scale(0.166016 0.166016)" d="M242.84 141.568L254.734 141.711C254.737 146.087 254.576 151.483 256.09 155.628C258.624 162.562 269.001 162.613 274.955 164.92C278.911 166.453 282.533 168.706 286.39 170.453C294.458 174.108 298.175 165.958 305.773 163.113C308.245 163.617 310.015 165.015 311.809 166.687C309.531 171.543 301.098 178.571 303.056 184.242C305.035 189.975 308.861 194.846 311.244 200.397C315.083 209.341 313.735 218.521 325.804 220.397C327.328 220.633 328.806 220.652 330.27 221.194L330.295 231.398C329.038 231.822 327.562 231.892 326.251 232.099C311.888 234.367 316.725 237.76 312.313 250.032C309.839 256.912 306.139 263.443 303.042 270.068C305.402 275.409 308.758 280.411 311.956 285.286C310.318 288.021 308.443 290.183 305.805 291.977C302.405 291.046 297.217 285.462 292.008 283.513C286.291 285.731 281.479 289.547 275.928 292.111C271 294.386 262.182 295.795 258.371 299.01C253.996 302.701 254.243 312.132 253.674 317.558C253.601 320.024 244.831 319.32 242.435 319.387C241.521 314.127 243.534 306.077 241.162 301.408L241.007 301.125C238.327 296.15 224.862 293.546 219.657 291.282C207.683 286.073 209.839 280.916 198.051 288.333C191.218 292.633 190.673 292.745 185.277 285.63C185.624 284.412 186.532 283.206 187.221 282.143C193.073 273.11 194.516 272.309 189.865 262.261C188.494 259.298 187.071 256.365 185.999 253.276L183.391 244.384C180.357 232.63 179.225 232.554 166.46 231.058L166.691 222.97C171.816 216.529 178.656 224.249 182.7 209.269C184.533 202.48 187.424 196.501 190.604 190.248C197.47 176.742 192.56 181.068 185.617 167.673C187.397 165.477 189.888 163.743 192.149 162.065C195.935 165.899 201.361 169.641 206.5 171.33C211.836 170.093 215.723 166.905 220.707 164.95C226.539 162.663 235.931 163.023 240.073 157.664C242.57 154.433 243.416 145.901 242.84 141.568Z"/>
	<path transform="scale(0.166016 0.166016)" d="M244.93 178.11C257.545 177.546 269.426 180.776 279.389 188.7C316.374 218.116 298.373 275.506 252.242 280.399C222.93 282.351 199.636 260.522 197.806 231.508C196.053 203.731 217.085 179.678 244.93 178.11Z"/>
	<path fill="#FFCF06" transform="scale(0.166016 0.166016)" d="M244.421 195.842C287.926 191.606 297.261 255.832 252.31 262.409C205.844 265.893 201.755 201.686 244.421 195.842Z"/>
</svg>
