<?xml version="1.0" encoding="UTF-8"?>
<svg xmlns="http://www.w3.org/2000/svg" xmlns:xlink="http://www.w3.org/1999/xlink" width="550px" height="550px" viewBox="0 0 550 550" version="1.1">
<g id="surface1">
<path style=" stroke:none;fill-rule:evenodd;fill:rgb(99.607843%,99.607843%,99.607843%);fill-opacity:1;" d="M -1.222656 -1.222656 C 182.109375 -1.222656 365.445312 -1.222656 548.777344 -1.222656 C 548.777344 182.109375 548.777344 365.445312 548.777344 548.777344 C 365.445312 548.777344 182.109375 548.777344 -1.222656 548.777344 C -1.222656 365.445312 -1.222656 182.109375 -1.222656 -1.222656 Z M -1.222656 -1.222656 "/>
<path style=" stroke:none;fill-rule:evenodd;fill:rgb(39.215686%,85.490196%,98.431373%);fill-opacity:1;" d="M 172.332031 8.554688 C 199.863281 6.734375 224.304688 14.472656 245.667969 31.777344 C 254.988281 39.0625 263.953125 46.800781 272.554688 55 C 293.78125 36.234375 317.410156 21.160156 343.445312 9.777344 C 387.597656 6.246094 409.597656 27.023438 409.445312 72.109375 C 407.660156 91.828125 405.625 111.382812 403.332031 130.777344 C 434.671875 138.703125 461.5625 154.183594 484 177.222656 C 497.601562 203.089844 493.121094 225.5 470.554688 244.445312 C 449.832031 259.289062 427.015625 269.472656 402.109375 275 C 405.753906 294.378906 408.199219 313.933594 409.445312 333.667969 C 409.9375 354.597656 403.417969 372.933594 389.890625 388.667969 C 375.511719 396.808594 360.03125 399.253906 343.445312 396 C 316.761719 386.128906 293.539062 371.058594 273.777344 350.777344 C 252.894531 370.839844 228.859375 385.914062 201.667969 396 C 165.570312 400.6875 144.792969 384.796875 139.332031 348.332031 C 137.117188 323.515625 139.152344 299.074219 145.445312 275 C 113.109375 268.316406 85.8125 252.835938 63.554688 228.554688 C 49.769531 204.003906 53.433594 182.410156 74.554688 163.777344 C 95.6875 147.507812 119.316406 136.507812 145.445312 130.777344 C 142.546875 111.304688 140.101562 91.75 138.109375 72.109375 C 136.945312 43.441406 148.351562 22.257812 172.332031 8.554688 Z M 172.332031 8.554688 "/>
<path style=" stroke:none;fill-rule:evenodd;fill:rgb(99.215686%,99.607843%,99.607843%);fill-opacity:1;" d="M 177.222656 28.109375 C 194.972656 27.253906 211.269531 31.734375 226.109375 41.554688 C 238.429688 50.175781 249.835938 59.953125 260.332031 70.890625 C 247.191406 84.839844 234.96875 99.507812 223.667969 114.890625 C 204 117.175781 184.441406 120.027344 165 123.445312 C 160.546875 103.28125 158.507812 82.910156 158.890625 62.332031 C 159.347656 47.546875 165.457031 36.140625 177.222656 28.109375 Z M 177.222656 28.109375 "/>
<path style=" stroke:none;fill-rule:evenodd;fill:rgb(99.215686%,99.607843%,99.607843%);fill-opacity:1;" d="M 348.332031 28.109375 C 366.667969 24.035156 379.300781 30.554688 386.222656 47.667969 C 388.558594 56.050781 389.78125 64.605469 389.890625 73.332031 C 388.632812 90.242188 386.1875 106.945312 382.554688 123.445312 C 362.992188 120.863281 343.4375 118.011719 323.890625 114.890625 C 313.8125 100.734375 302.8125 87.289062 290.890625 74.554688 C 289.257812 72.109375 289.257812 69.667969 290.890625 67.222656 C 307.847656 50.621094 326.992188 37.585938 348.332031 28.109375 Z M 348.332031 28.109375 "/>
<path style=" stroke:none;fill-rule:evenodd;fill:rgb(98.431373%,99.607843%,99.607843%);fill-opacity:1;" d="M 270.109375 86.777344 C 280.847656 93.023438 289.8125 101.578125 297 112.445312 C 281.519531 114.074219 266.035156 114.074219 250.554688 112.445312 C 257.660156 104.144531 264.179688 95.589844 270.109375 86.777344 Z M 270.109375 86.777344 "/>
<path style=" stroke:none;fill-rule:evenodd;fill:rgb(98.823529%,99.607843%,99.607843%);fill-opacity:1;" d="M 233.445312 133.222656 C 260.488281 132.230469 287.378906 133.453125 314.109375 136.890625 C 327.464844 155.84375 339.28125 175.808594 349.554688 196.777344 C 351.1875 200.851562 351.1875 204.925781 349.554688 209 C 339.28125 229.972656 327.464844 249.933594 314.109375 268.890625 C 287.328125 273.140625 260.441406 273.546875 233.445312 270.109375 C 220.394531 250.539062 208.582031 230.171875 198 209 C 196.371094 204.925781 196.371094 200.851562 198 196.777344 C 209.460938 175.199219 221.277344 154.011719 233.445312 133.222656 Z M 233.445312 133.222656 "/>
<path style=" stroke:none;fill-rule:evenodd;fill:rgb(97.254902%,99.215686%,99.607843%);fill-opacity:1;" d="M 194.332031 138.109375 C 199.289062 137.714844 204.179688 138.121094 209 139.332031 C 200.546875 151.753906 192.398438 164.382812 184.554688 177.222656 C 178.535156 166.496094 174.460938 155.085938 172.332031 143 C 180.128906 142.125 187.460938 140.496094 194.332031 138.109375 Z M 194.332031 138.109375 "/>
<path style=" stroke:none;fill-rule:evenodd;fill:rgb(97.647059%,99.215686%,99.607843%);fill-opacity:1;" d="M 341 138.109375 C 352.492188 139.210938 363.898438 140.839844 375.222656 143 C 373.09375 155.085938 369.019531 166.496094 363 177.222656 C 354.367188 164.84375 347.035156 151.804688 341 138.109375 Z M 341 138.109375 "/>
<path style=" stroke:none;fill-rule:evenodd;fill:rgb(99.215686%,99.607843%,99.607843%);fill-opacity:1;" d="M 143 150.332031 C 147.019531 149.8125 150.683594 150.625 154 152.777344 C 159.4375 169.355469 165.550781 185.652344 172.332031 201.667969 C 165.984375 217.855469 159.875 234.152344 154 250.554688 C 152.730469 253.039062 150.695312 254.667969 147.890625 255.445312 C 52.222656 223.101562 50.589844 188.0625 143 150.332031 Z M 143 150.332031 "/>
<path style=" stroke:none;fill-rule:evenodd;fill:rgb(99.215686%,99.607843%,99.607843%);fill-opacity:1;" d="M 394.777344 150.332031 C 422.316406 155.75 446.351562 167.972656 466.890625 187 C 476.085938 204.179688 472.421875 218.4375 455.890625 229.777344 C 438.453125 240.9375 419.710938 249.492188 399.667969 255.445312 C 389.484375 239.300781 381.339844 221.785156 375.222656 202.890625 C 382.136719 185.417969 388.65625 167.898438 394.777344 150.332031 Z M 394.777344 150.332031 "/>
<path style=" stroke:none;fill-rule:evenodd;fill:rgb(38.823529%,85.490196%,98.431373%);fill-opacity:1;" d="M 262.777344 162.554688 C 297.78125 160.625 314.488281 176.921875 312.890625 211.445312 C 301.757812 240.417969 281.796875 248.972656 253 237.109375 C 230.289062 218.367188 227.84375 197.183594 245.667969 173.554688 C 251.527344 169.828125 257.230469 166.164062 262.777344 162.554688 Z M 262.777344 162.554688 "/>
<path style=" stroke:none;fill-rule:evenodd;fill:rgb(98.039216%,99.215686%,99.607843%);fill-opacity:1;" d="M 184.554688 228.554688 C 192.441406 240.21875 199.773438 252.441406 206.554688 265.222656 C 204.109375 266.035156 201.667969 266.851562 199.222656 267.667969 C 190.304688 265.636719 181.339844 264.011719 172.332031 262.777344 C 175.035156 250.859375 179.109375 239.453125 184.554688 228.554688 Z M 184.554688 228.554688 "/>
<path style=" stroke:none;fill-rule:evenodd;fill:rgb(97.647059%,99.215686%,99.607843%);fill-opacity:1;" d="M 360.554688 228.554688 C 363.609375 228.746094 365.648438 230.375 366.667969 233.445312 C 370.292969 243.09375 373.144531 252.871094 375.222656 262.777344 C 364.519531 263.808594 353.925781 265.441406 343.445312 267.667969 C 342.628906 266.851562 341.8125 266.035156 341 265.222656 C 348.203125 253.257812 354.71875 241.035156 360.554688 228.554688 Z M 360.554688 228.554688 "/>
<path style=" stroke:none;fill-rule:evenodd;fill:rgb(99.215686%,99.607843%,99.607843%);fill-opacity:1;" d="M 165 282.332031 C 184.558594 285.023438 204.113281 287.871094 223.667969 290.890625 C 234.96875 306.269531 247.191406 320.9375 260.332031 334.890625 C 240.949219 357.960938 216.507812 372.21875 187 377.667969 C 175.917969 378.035156 168.179688 373.148438 163.777344 363 C 156.039062 336.039062 156.449219 309.148438 165 282.332031 Z M 165 282.332031 "/>
<path style=" stroke:none;fill-rule:evenodd;fill:rgb(98.823529%,99.607843%,99.607843%);fill-opacity:1;" d="M 367.890625 282.332031 C 374.191406 281.3125 379.488281 282.945312 383.777344 287.222656 C 392.628906 314.503906 391.816406 341.390625 381.332031 367.890625 C 371.332031 377.191406 359.519531 380.042969 345.890625 376.445312 C 323.757812 366.199219 304.203125 352.34375 287.222656 334.890625 C 300.367188 320.9375 312.589844 306.269531 323.890625 290.890625 C 339.042969 288.8125 353.707031 285.960938 367.890625 282.332031 Z M 367.890625 282.332031 "/>
<path style=" stroke:none;fill-rule:evenodd;fill:rgb(98.431373%,99.607843%,99.607843%);fill-opacity:1;" d="M 250.554688 294.554688 C 265.597656 291.738281 281.078125 291.328125 297 293.332031 C 290.105469 302.671875 282.363281 311.226562 273.777344 319 C 265.523438 311.160156 257.785156 303.011719 250.554688 294.554688 Z M 250.554688 294.554688 "/>
<path style=" stroke:none;fill-rule:evenodd;fill:rgb(39.607843%,85.490196%,98.431373%);fill-opacity:1;" d="M 103.890625 495 C 96.25 492.605469 88.101562 491.789062 79.445312 492.554688 C 79.445312 507.222656 79.445312 521.890625 79.445312 536.554688 C 75.371094 536.554688 71.296875 536.554688 67.222656 536.554688 C 67.222656 499.074219 67.222656 461.589844 67.222656 424.109375 C 86.792969 423.707031 106.351562 424.109375 125.890625 425.332031 C 146.773438 433.28125 154.515625 448.359375 149.109375 470.554688 C 144.144531 482.449219 135.589844 490.59375 123.445312 495 C 131.796875 509.269531 140.761719 523.121094 150.332031 536.554688 C 144.796875 539.359375 139.09375 539.765625 133.222656 537.777344 C 123.78125 523.082031 114 508.824219 103.890625 495 Z M 103.890625 495 "/>
<path style=" stroke:none;fill-rule:evenodd;fill:rgb(40%,85.490196%,98.431373%);fill-opacity:1;" d="M 446.109375 468.109375 C 442.640625 465.785156 438.570312 464.972656 433.890625 465.667969 C 433.890625 462.410156 433.890625 459.148438 433.890625 455.890625 C 437.964844 455.890625 442.035156 455.890625 446.109375 455.890625 C 446.109375 448.554688 446.109375 441.222656 446.109375 433.890625 C 450.1875 433.890625 454.257812 433.890625 458.332031 433.890625 C 458.332031 440.410156 458.332031 446.925781 458.332031 453.445312 C 464.035156 453.445312 469.742188 453.445312 475.445312 453.445312 C 475.445312 458.332031 475.445312 463.222656 475.445312 468.109375 C 469.742188 468.109375 464.035156 468.109375 458.332031 468.109375 C 457.925781 486.054688 458.332031 503.980469 459.554688 521.890625 C 462.878906 529.347656 468.175781 530.976562 475.445312 526.777344 C 477.679688 528.800781 479.308594 531.246094 480.332031 534.109375 C 467.542969 545 456.542969 543.371094 447.332031 529.222656 C 446.109375 508.867188 445.707031 488.496094 446.109375 468.109375 Z M 446.109375 468.109375 "/>
<path style=" stroke:none;fill-rule:evenodd;fill:rgb(98.431373%,99.607843%,99.607843%);fill-opacity:1;" d="M 79.445312 438.777344 C 94.132812 438.371094 108.800781 438.78125 123.445312 440 C 140.296875 454.277344 139.484375 467.316406 121 479.109375 C 107.171875 480.332031 93.320312 480.738281 79.445312 480.332031 C 79.445312 466.480469 79.445312 452.628906 79.445312 438.777344 Z M 79.445312 438.777344 "/>
<path style=" stroke:none;fill-rule:evenodd;fill:rgb(39.607843%,85.490196%,98.431373%);fill-opacity:1;" d="M 382.554688 453.445312 C 397.480469 451.367188 410.921875 454.628906 422.890625 463.222656 C 424.792969 469.105469 422.757812 473.179688 416.777344 475.445312 C 399.929688 461.382812 384.851562 463.011719 371.554688 480.332031 C 363.773438 501.824219 369.882812 517.710938 389.890625 528 C 401.152344 529.507812 410.523438 525.839844 418 517 C 420.851562 519.851562 423.703125 522.703125 426.554688 525.554688 C 423.296875 528.8125 420.035156 532.074219 416.777344 535.332031 C 370.535156 546.136719 350.570312 527.800781 356.890625 480.332031 C 362.652344 468.464844 371.207031 459.503906 382.554688 453.445312 Z M 382.554688 453.445312 "/>
<path style=" stroke:none;fill-rule:evenodd;fill:rgb(41.176471%,85.882353%,98.431373%);fill-opacity:1;" d="M 199.222656 453.445312 C 232.628906 452.628906 248.925781 468.925781 248.109375 502.332031 C 226.109375 502.332031 204.109375 502.332031 182.109375 502.332031 C 186.3125 525.648438 200.164062 534.203125 223.667969 528 C 227.359375 525.921875 231.023438 523.886719 234.667969 521.890625 C 240.015625 523.253906 241.644531 526.515625 239.554688 531.667969 C 216.96875 546.175781 195.785156 544.542969 176 526.777344 C 158.289062 493.5 166.03125 469.054688 199.222656 453.445312 Z M 199.222656 453.445312 "/>
<path style=" stroke:none;fill-rule:evenodd;fill:rgb(41.568627%,85.882353%,98.431373%);fill-opacity:1;" d="M 287.222656 453.445312 C 303.484375 451.289062 317.742188 455.363281 330 465.667969 C 333.539062 489.039062 334.761719 512.664062 333.667969 536.554688 C 327.992188 537.21875 323.105469 535.585938 319 531.667969 C 299.746094 546.214844 282.226562 544.582031 266.445312 526.777344 C 260.964844 497.199219 273.59375 483.753906 304.332031 486.445312 C 309.433594 488.378906 313.917969 491.234375 317.777344 495 C 323.074219 470.964844 313.703125 461.589844 289.667969 466.890625 C 284.375 469.125 279.488281 471.976562 275 475.445312 C 266.878906 471.929688 266.0625 467.449219 272.554688 462 C 278 459.699219 282.886719 456.847656 287.222656 453.445312 Z M 287.222656 453.445312 "/>
<path style=" stroke:none;fill-rule:evenodd;fill:rgb(68.627451%,91.764706%,99.215686%);fill-opacity:1;" d="M 433.890625 455.890625 C 433.890625 459.148438 433.890625 462.410156 433.890625 465.667969 C 438.570312 464.972656 442.640625 465.785156 446.109375 468.109375 C 441.222656 468.109375 436.332031 468.109375 431.445312 468.109375 C 430.75 463.429688 431.5625 459.359375 433.890625 455.890625 Z M 433.890625 455.890625 "/>
<path style=" stroke:none;fill-rule:evenodd;fill:rgb(98.431373%,99.607843%,99.607843%);fill-opacity:1;" d="M 201.667969 465.667969 C 221.863281 463.882812 232.453125 472.84375 233.445312 492.554688 C 216.332031 492.554688 199.222656 492.554688 182.109375 492.554688 C 183.007812 479.445312 189.523438 470.484375 201.667969 465.667969 Z M 201.667969 465.667969 "/>
<path style=" stroke:none;fill-rule:evenodd;fill:rgb(77.647059%,93.72549%,99.215686%);fill-opacity:1;" d="M 103.890625 495 C 96.554688 495 89.222656 495 81.890625 495 C 82.675781 509.320312 81.863281 523.171875 79.445312 536.554688 C 79.445312 521.890625 79.445312 507.222656 79.445312 492.554688 C 88.101562 491.789062 96.25 492.605469 103.890625 495 Z M 103.890625 495 "/>
<path style=" stroke:none;fill-rule:evenodd;fill:rgb(98.039216%,99.215686%,99.607843%);fill-opacity:1;" d="M 292.109375 495 C 312.289062 493.574219 320.84375 502.535156 317.777344 521.890625 C 306.324219 533.628906 294.101562 534.445312 281.109375 524.332031 C 274.625 510.460938 278.289062 500.683594 292.109375 495 Z M 292.109375 495 "/>
</g>
</svg>
