<?xml version="1.0" encoding="UTF-8"?>
<svg xmlns="http://www.w3.org/2000/svg" xmlns:xlink="http://www.w3.org/1999/xlink" width="500px" height="500px" viewBox="0 0 500 500" version="1.1">
<g id="surface1">
<path style=" stroke:none;fill-rule:evenodd;fill:rgb(99.607843%,99.607843%,99.607843%);fill-opacity:1;" d="M -1.109375 -1.109375 C 165.554688 -1.109375 332.222656 -1.109375 498.890625 -1.109375 C 498.890625 165.554688 498.890625 332.222656 498.890625 498.890625 C 332.222656 498.890625 165.554688 498.890625 -1.109375 498.890625 C -1.109375 332.222656 -1.109375 165.554688 -1.109375 -1.109375 Z M -1.109375 -1.109375 "/>
<path style=" stroke:none;fill-rule:evenodd;fill:rgb(89.411765%,89.411765%,89.411765%);fill-opacity:1;" d="M 310 76.667969 C 367.039062 73.703125 424.074219 73.703125 481.109375 76.667969 C 452.960938 76.667969 424.816406 76.667969 396.667969 76.667969 C 397.398438 105.949219 396.65625 134.839844 394.445312 163.332031 C 395.175781 135.53125 394.433594 108.125 392.222656 81.109375 C 392.46875 79.738281 393.207031 78.628906 394.445312 77.777344 C 366.308594 76.667969 338.15625 76.296875 310 76.667969 Z M 310 76.667969 "/>
<path style=" stroke:none;fill-rule:evenodd;fill:rgb(0.784314%,0.784314%,0.784314%);fill-opacity:1;" d="M 103.332031 245.554688 C 102.125 245.6875 101.386719 246.429688 101.109375 247.777344 C 158.128906 250 215.164062 250.738281 272.222656 250 C 272.222656 301.109375 272.222656 352.222656 272.222656 403.332031 C 244.074219 403.332031 215.925781 403.332031 187.777344 403.332031 C 187.777344 375.183594 187.777344 347.039062 187.777344 318.890625 C 131.125 316.671875 74.085938 315.929688 16.667969 316.667969 C 16.667969 293.703125 16.667969 270.738281 16.667969 247.777344 C 72.515625 190.816406 128.8125 134.152344 185.554688 77.777344 C 214.445312 76.296875 243.332031 76.296875 272.222656 77.777344 C 216.21875 134.152344 159.921875 190.078125 103.332031 245.554688 Z M 103.332031 245.554688 "/>
<path style=" stroke:none;fill-rule:evenodd;fill:rgb(1.176471%,1.176471%,1.176471%);fill-opacity:1;" d="M 310 76.667969 C 338.15625 76.296875 366.308594 76.667969 394.445312 77.777344 C 393.207031 78.628906 392.46875 79.738281 392.222656 81.109375 C 364.894531 107.328125 337.855469 133.996094 311.109375 161.109375 C 310 132.972656 309.628906 104.824219 310 76.667969 Z M 310 76.667969 "/>
<path style=" stroke:none;fill-rule:evenodd;fill:rgb(0%,0%,0%);fill-opacity:1;" d="M 481.109375 76.667969 C 481.480469 106.304688 481.109375 135.933594 480 165.554688 C 451.097656 191.863281 423.320312 219.273438 396.667969 247.777344 C 394.457031 275.53125 393.714844 303.679688 394.445312 332.222656 C 367.039062 332.222656 339.628906 332.222656 312.222656 332.222656 C 312.222656 304.074219 312.222656 275.925781 312.222656 247.777344 C 339.628906 219.628906 367.039062 191.480469 394.445312 163.332031 C 396.65625 134.839844 397.398438 105.949219 396.667969 76.667969 C 424.816406 76.667969 452.960938 76.667969 481.109375 76.667969 Z M 481.109375 76.667969 "/>
<path style=" stroke:none;fill-rule:evenodd;fill:rgb(43.921569%,43.921569%,43.921569%);fill-opacity:1;" d="M 103.332031 245.554688 C 159.988281 247.773438 217.023438 248.511719 274.445312 247.777344 C 275.179688 300.011719 274.441406 351.863281 272.222656 403.332031 C 272.222656 352.222656 272.222656 301.109375 272.222656 250 C 215.164062 250.738281 158.128906 250 101.109375 247.777344 C 101.386719 246.429688 102.125 245.6875 103.332031 245.554688 Z M 103.332031 245.554688 "/>
<path style=" stroke:none;fill-rule:evenodd;fill:rgb(2.352941%,2.352941%,2.352941%);fill-opacity:1;" d="M 478.890625 252.222656 C 481.101562 279.234375 481.84375 306.640625 481.109375 334.445312 C 480.371094 334.445312 479.628906 334.445312 478.890625 334.445312 C 452.960938 332.960938 427.039062 331.480469 401.109375 330 C 426.296875 303.332031 452.222656 277.40625 478.890625 252.222656 Z M 478.890625 252.222656 "/>
<path style=" stroke:none;fill-rule:evenodd;fill:rgb(58.823529%,58.823529%,58.823529%);fill-opacity:1;" d="M 478.890625 252.222656 C 479.023438 251.015625 479.761719 250.277344 481.109375 250 C 484.054688 278.503906 484.054688 306.652344 481.109375 334.445312 C 481.84375 306.640625 481.101562 279.234375 478.890625 252.222656 Z M 478.890625 252.222656 "/>
<path style=" stroke:none;fill-rule:evenodd;fill:rgb(52.941176%,52.941176%,52.941176%);fill-opacity:1;" d="M 16.667969 247.777344 C 16.667969 270.738281 16.667969 293.703125 16.667969 316.667969 C 74.085938 315.929688 131.125 316.671875 187.777344 318.890625 C 130 318.890625 72.222656 318.890625 14.445312 318.890625 C 13.714844 294.785156 14.457031 271.082031 16.667969 247.777344 Z M 16.667969 247.777344 "/>
<path style=" stroke:none;fill-rule:evenodd;fill:rgb(19.215686%,19.215686%,19.215686%);fill-opacity:1;" d="M 312.222656 247.777344 C 312.222656 275.925781 312.222656 304.074219 312.222656 332.222656 C 339.628906 332.222656 367.039062 332.222656 394.445312 332.222656 C 393.714844 303.679688 394.457031 275.53125 396.667969 247.777344 C 396.296875 275.9375 396.667969 304.085938 397.777344 332.222656 C 398.628906 330.988281 399.738281 330.246094 401.109375 330 C 427.039062 331.480469 452.960938 332.960938 478.890625 334.445312 C 422.59375 334.445312 366.296875 334.445312 310 334.445312 C 309.269531 305.164062 310.011719 276.273438 312.222656 247.777344 Z M 312.222656 247.777344 "/>
</g>
</svg>
