<?xml version="1.0" encoding="utf-8" ?>
<svg xmlns="http://www.w3.org/2000/svg" xmlns:xlink="http://www.w3.org/1999/xlink" width="512" height="512">
	<path fill="#004B23" transform="scale(0.5 0.5)" d="M-0 -0L1024 0L1024 1024L-0 1024L0 -0Z"/>
	<path fill="#38B000" transform="scale(0.5 0.5)" d="M369.354 125.652C373.367 121.106 382.266 119.14 387.959 117.456C405.891 112.151 424.647 107.763 443.378 106.662L463.234 106.471L503 106.597L548.958 106.737C565.455 106.776 581.627 106.817 597.998 109.225C604.954 110.248 611.673 111.909 618.496 113.559C627.442 115.722 635.143 117.747 643.698 121.288C649.029 123.495 655.074 125.362 659.506 129.162C655.876 128.507 652.597 127.048 649.071 126.034C641.301 123.802 633.61 122.14 625.559 121.29C611.585 119.814 597.076 120.162 583.027 120.28L533.563 120.556L447.886 120.538C430.176 120.515 411.91 119.646 394.269 121.351C385.781 122.171 377.718 124.187 369.354 125.652Z"/>
	<defs>
		<linearGradient id="gradient_0" gradientUnits="userSpaceOnUse" x1="510.95712" y1="272.23758" x2="511.1507" y2="119.88839">
			<stop offset="0" stop-color="#2CA900"/>
			<stop offset="1" stop-color="#EEFF2E"/>
		</linearGradient>
	</defs>
	<path fill="url(#gradient_0)" transform="scale(0.5 0.5)" d="M369.354 125.652C377.718 124.187 385.781 122.171 394.269 121.351C411.91 119.646 430.176 120.515 447.886 120.538L533.563 120.556L583.027 120.28C597.076 120.162 611.585 119.814 625.559 121.29C633.61 122.14 641.301 123.802 649.071 126.034C652.597 127.048 655.876 128.507 659.506 129.162C664.275 130.819 668.069 133.027 672.471 135.367C683.364 141.155 693.511 148.636 702.78 156.779C708.033 161.393 713.556 166.617 717.654 172.312L717.656 172.426C723.372 178.211 727.487 185.29 731.694 192.187C740.489 207.448 745.823 222.47 750.503 239.356C748.636 243.753 744.585 246.511 741.412 249.938L718.155 273.619C716.422 271.89 715.553 265.316 714.78 262.708C713.461 258.261 712.37 253.513 710.545 249.25C706.557 239.939 701.099 230.771 695.126 222.636L683.716 208.506C677.24 202.546 670.098 196.482 662.561 191.882C644.224 180.689 624.069 176.711 602.965 175.325C595.962 174.864 588.786 175.533 581.752 175.558L537.709 175.485L469.984 175.476L435.6 175.385C425.6 175.388 415.337 175.044 405.398 176.26C399.382 176.996 392.346 178.731 386.453 180.368C369.916 184.962 354.108 195.407 341.341 206.59L328.749 220.202C321.775 229.989 317.241 240.555 311.94 251.252C310.262 254.639 307.753 258.427 306.64 262C306.262 263.216 306.629 264.331 306.48 265.5C306.396 266.157 306.204 266.425 305.961 266.998L305.643 267.783L305.389 268.382L303.748 268.875L304.119 269.64C304.639 270.742 304.46 270.292 304.787 271.474L271.673 238.919C273.552 234.167 274.793 229.283 276.425 224.453C280.864 211.309 286.615 196.404 295.192 185.408L307.314 169.553C314.487 159.643 324.653 151.707 334.547 144.701C345.231 137.136 356.861 129.84 369.354 125.652Z"/>
	<defs>
		<linearGradient id="gradient_1" gradientUnits="userSpaceOnUse" x1="510.90045" y1="751.85767" x2="511.3634" y2="901.33643">
			<stop offset="0" stop-color="#36AE00"/>
			<stop offset="1" stop-color="#F2FF2E"/>
		</linearGradient>
	</defs>
	<path fill="url(#gradient_1)" transform="scale(0.5 0.5)" d="M304.112 752.1C306.692 753.21 307.656 754.651 308.699 757.176C311.13 763.055 312.587 769.296 315.11 775.166C321.391 789.779 332.495 803.57 343.48 814.91C343.984 814.956 348.355 819.149 349.25 819.883C353.998 823.778 359.424 827.352 364.78 830.356C378.982 838.32 393.3 842.424 409.401 843.864C434.574 846.116 460.139 844.529 485.38 844.724L563.25 844.874C581.579 844.807 600.699 846.057 618.88 843.784C624.458 843.087 630.305 841.558 635.746 840.108C653.538 835.365 668.059 825.432 681.998 813.849C694.355 800.088 705.407 784.932 712.101 767.558C712.56 763.785 715.877 760.14 716.802 756.385C717.148 754.984 717.685 753.723 718.253 752.4L740.441 774.239C743.861 777.587 747.815 780.777 750.754 784.545C748.857 792.076 746.812 800.067 742.828 806.805C736.723 820.611 729.033 833.396 719.263 844.95C717.176 847.419 715.072 850.355 712.616 852.45C688.27 879.263 653.278 896.435 617.706 901.7C600.188 904.573 582.001 904.456 564.321 904.22L521.521 904.029L462.25 904.345C443.476 904.359 425.315 904.438 406.662 901.724C399.726 900.383 392.683 899.602 385.829 897.847C356.379 890.304 329.364 873.347 309.394 850.542C303.895 846.02 299.398 838.508 295.554 832.518C287.675 820.243 279.464 807.414 275.205 793.347L271.85 783.469L303.339 753.098L304.112 752.1Z"/>
	<path fill="#9EF01A" transform="scale(0.5 0.5)" d="M426.645 900.362L427.072 899.83L482.25 899.255C483.462 898.043 494.648 898.806 497.252 898.625C496.218 898.108 496.049 898.146 494.886 898.269C492.959 897.018 489.412 897.217 487.19 897.653C484.73 898.136 482.338 897.97 479.851 897.858C485.917 896.945 491.914 897.213 498 896.931L521.5 895.798C525.654 895.709 530.028 896.354 534.203 896.522L555.75 897.23L551.991 897.932C550.203 897.073 547.428 897.536 545.459 897.606L545.837 898.078L546.75 898.255C548.746 899.062 551.027 898.753 553.25 898.755C554.506 899.584 556.714 899.253 558.25 899.255L558.75 898.755L572.311 898.722C573.922 898.723 576.21 898.422 577.666 899.002C578.342 899.27 578.591 899.299 579.316 899.289L580.231 899.266L580.792 899.959L426.645 900.362Z"/>
	<path fill="#70E000" transform="scale(0.5 0.5)" d="M426.645 900.362L580.792 899.959L604.266 900.638C607.719 900.722 612.648 900.036 615.753 901.293L617.706 901.7C600.188 904.573 582.001 904.456 564.321 904.22L521.521 904.029L462.25 904.345C443.476 904.359 425.315 904.438 406.662 901.724C408.909 900.331 411.112 900.718 413.723 900.66L426.645 900.362Z"/>
	<path fill="#CF3" transform="scale(0.5 0.5)" d="M767.774 276.968C770.879 273.482 773.923 269.566 777.612 266.692C795.957 265.72 816.072 266.86 833.252 273.955C840.048 276.762 845.903 280.416 852.127 284.25C858.112 287.938 863.253 291.342 868.509 296.076C902.156 326.379 915.542 369.04 917.825 413.089L918.108 448.293L918.037 507.125L918.067 570.934C918.131 589.367 919.233 608.299 917.369 626.671C916.45 635.735 914.6 645.079 912.306 653.893C907.931 670.706 900.027 688.565 890.162 702.912C885.771 709.299 880.759 715.039 875.568 720.776C869.479 727.505 862.783 732.675 855.349 737.836C837.475 750.247 818.332 757.385 796.45 758.427L782.354 758.638C781.038 758.651 778.715 759.002 777.568 758.68C777.029 758.529 775.914 757.42 775.476 757.016L766.289 747.034L782.779 730.585L792.456 722.25L807.99 707.096C821.11 694.939 835.056 683.246 845.713 668.724C847.617 666.13 849.077 662.988 850.572 660.14C855.216 651.29 859.048 641.174 860.51 631.243C862.711 616.292 861.869 601.296 861.904 586.248L861.938 515.095L861.943 441.436C861.906 427.148 862.939 412.261 860.558 398.141C858.054 383.289 853.701 369.66 845.872 356.734C838.117 343.931 827.39 334.22 816.935 323.729L791.75 298.789C783.988 291.414 776.516 283.183 767.774 276.968Z"/>
	<path fill="#CF3" transform="scale(0.5 0.5)" d="M256.977 746.592C253.484 750.918 250.065 754.835 245.895 758.541C234.037 758.543 222.033 758.572 210.312 756.527C206.774 755.91 203.45 754.702 200.033 753.637C183.668 748.538 167.891 739.478 155.25 727.83C121.778 696.988 107.717 654.188 106.101 609.5L105.919 576.411L105.881 498.308L105.954 445.907C105.952 422.612 105.496 400.194 110.516 377.25C116.436 350.19 128.135 324.538 147.118 304.136C167.594 282.131 194.62 268.02 224.93 267.026L237.757 266.736C239.855 266.715 242.934 266.519 244.932 267.124C248.103 268.085 252.842 274.463 255.446 276.903L255.193 277.277C251.945 281.837 246.341 285.333 242.306 289.341L216.09 314.765C204.165 326.027 191.535 337.241 182.413 351C173.719 364.114 166.736 379.928 164.103 395.495C161.058 413.494 162.366 432.099 162.43 450.271L162.476 526.953L162.182 584.641L162.411 612.546C162.551 617.467 162.449 622.57 163.208 627.433C165.158 639.912 168.803 652.449 175.417 663.347C177.689 667.092 180.421 671.153 183.32 674.431C195.046 687.694 208.441 699.53 221.05 711.934L240.412 731.137C244.652 735.346 248.788 739.929 253.656 743.411C254.962 744.345 256.085 745.247 256.977 746.592Z"/>
	<path fill="#38B000" transform="scale(0.5 0.5)" d="M688.731 723.449C694.511 727.778 699.318 733.658 704.424 738.75C708.958 743.271 714.05 747.594 718.253 752.4C717.685 753.723 717.148 754.984 716.802 756.385C715.877 760.14 712.56 763.785 712.101 767.558C705.407 784.932 694.355 800.088 681.998 813.849C668.059 825.432 653.538 835.365 635.746 840.108C630.305 841.558 624.458 843.087 618.88 843.784C600.699 846.057 581.579 844.807 563.25 844.874L485.38 844.724C460.139 844.529 434.574 846.116 409.401 843.864C393.3 842.424 378.982 838.32 364.78 830.356C359.424 827.352 353.998 823.778 349.25 819.883C348.355 819.149 343.984 814.956 343.48 814.91C332.495 803.57 321.391 789.779 315.11 775.166C312.587 769.296 311.13 763.055 308.699 757.176C307.656 754.651 306.692 753.21 304.112 752.1C305.841 751.066 307.736 748.512 309.263 747.08L332.703 725.069C333.63 724.473 334.587 723.972 335.689 723.785C338.818 723.252 342.691 723.622 345.906 723.621C352.171 723.62 358.467 723.468 364.717 723.918L489.03 724.496L560.666 724.23L643.215 724.069L659.436 724.004C662.306 724.005 665.425 724.247 668.254 723.841C670.125 723.229 672.914 723.551 674.906 723.536L688.731 723.449Z"/>
	<path fill="#70E000" transform="scale(0.5 0.5)" d="M364.717 723.918L489.03 724.496L560.666 724.23L643.215 724.069L659.436 724.004C662.306 724.005 665.425 724.247 668.254 723.841C668.19 727.539 667.151 730.541 666.012 734.013C664.806 737.687 663.626 741.481 661.878 744.939C659.933 748.784 657.1 752.544 654.677 756.12C649.615 763.589 643.753 768.575 636.778 774.052C633.415 776.693 630.156 779.539 626.552 781.854C619.517 786.374 609.727 790.439 601.498 792.009C585.04 795.148 567.445 793.914 550.773 793.698L504.008 793.602L457.979 793.627C445.688 793.532 434.159 793.458 421.997 791.218C413.321 789.621 402.6 784.285 395.281 779.237C376.541 766.313 361.974 746.642 357.81 724.119L364.717 723.918Z"/>
	<path fill="#38B000" transform="scale(0.5 0.5)" d="M341.341 206.59C354.108 195.407 369.916 184.962 386.453 180.368C392.346 178.731 399.382 176.996 405.398 176.26C415.337 175.044 425.6 175.388 435.6 175.385L469.984 175.476L537.709 175.485L581.752 175.558C588.786 175.533 595.962 174.864 602.965 175.325C624.069 176.711 644.224 180.689 662.561 191.882C670.098 196.482 677.24 202.546 683.716 208.506L695.126 222.636C701.099 230.771 706.557 239.939 710.545 249.25C712.37 253.513 713.461 258.261 714.78 262.708C715.553 265.316 716.422 271.89 718.155 273.619L688.998 302.655C678.84 302.855 667.847 303.866 657.776 302.901L358.184 302.976L336.559 303.641L304.787 271.474C304.46 270.292 304.639 270.742 304.119 269.64L303.748 268.875L305.389 268.382L305.643 267.783L305.961 266.998C306.204 266.425 306.396 266.157 306.48 265.5C306.629 264.331 306.262 263.216 306.64 262C307.753 258.427 310.262 254.639 311.94 251.252C317.241 240.555 321.775 229.989 328.749 220.202L341.341 206.59Z"/>
	<path fill="#70E000" transform="scale(0.5 0.5)" d="M358.184 302.976L356.444 302.25C357.732 293.828 359.981 284.068 363.439 276.264C368.892 263.955 379.568 252.045 390.337 244.115C398.91 237.802 410.453 231.958 421 229.985C434.416 227.475 449.069 228.502 462.7 228.525L518.472 228.486L570.484 228.589C577.827 228.665 585.555 227.928 592.814 229.087C598.704 230.027 604.463 231.913 610.101 233.815C614.142 235.178 618.276 236.37 622.054 238.378C629.743 242.465 636.173 247.694 642.516 253.587C646.969 257.725 651.261 261.976 654.853 266.907C661.992 276.707 667.099 290.746 668.86 302.637C665.259 302.647 661.321 302.347 657.776 302.901L358.184 302.976Z"/>
	<path fill="#38B000" transform="scale(0.5 0.5)" d="M255.446 276.903C258.182 278.316 260.483 281.208 262.633 283.42L276.964 298.536L287.97 309.704C288.79 310.583 290.606 312.104 291.1 313.127L291.077 314.421C289.997 313.44 288.195 312.182 287.875 310.748L287.024 310.246C286.086 312.787 287.23 315.744 286.248 318.375L286.493 318.881C287.252 321.014 286.696 323.88 287.238 326.254C287.5 327.399 287.306 328.633 287.571 329.839C288.042 331.985 287.63 334.648 287.527 336.844L287.098 349.893L287.552 370.997C287.627 374.106 287.999 378.059 287.521 381.092L287.59 566.952L287.501 611.322C287.461 618.529 286.538 627.192 287.719 634.257C289.934 645.213 285.962 657.762 288.971 668.5L288.625 668.875L288.241 668.853C287.461 671.665 287.263 677.065 287.882 679.943C288.169 681.278 287.724 682.95 287.699 684.351C287.602 689.854 286.627 697.523 288.646 702.517L288.789 704.303C288.903 706.606 290.09 709.288 290.789 711.516C291.868 710.291 293.314 708.233 294.878 707.788L295.199 708.151L271.194 732.182L261.782 741.863C260.28 743.412 258.731 745.355 256.977 746.592C256.085 745.247 254.962 744.345 253.656 743.411C248.788 739.929 244.652 735.346 240.412 731.137L221.05 711.934C208.441 699.53 195.046 687.694 183.32 674.431C180.421 671.153 177.689 667.092 175.417 663.347C168.803 652.449 165.158 639.912 163.208 627.433C162.449 622.57 162.551 617.467 162.411 612.546L162.182 584.641L162.476 526.953L162.43 450.271C162.366 432.099 161.058 413.494 164.103 395.495C166.736 379.928 173.719 364.114 182.413 351C191.535 337.241 204.165 326.027 216.09 314.765L242.306 289.341C246.341 285.333 251.945 281.837 255.193 277.277L255.446 276.903Z"/>
	<path fill="#70E000" transform="scale(0.5 0.5)" d="M287.719 634.257C284.184 634.792 280.331 634.612 276.75 634.742C264.175 635.201 248.864 635.774 237.366 629.875C230.325 626.263 221.81 616.681 218.286 609.616C217.025 607.088 216.364 604.015 215.513 601.314C213.767 595.769 213.044 590.63 212.712 584.872C212.208 576.127 212.642 567.137 212.614 558.357L212.575 497.88L212.54 449.779C212.497 439.496 211.818 428.789 212.863 418.562C213.333 413.971 215.428 409.089 217.577 405.017C222.707 395.294 231.277 386.329 242.069 383.025L242.833 382.797C248.339 381.086 253.58 381.031 259.295 380.98C268.606 380.897 278.296 381.678 287.521 381.092L287.59 566.952L287.501 611.322C287.461 618.529 286.538 627.192 287.719 634.257Z"/>
	<path fill="#38B000" transform="scale(0.5 0.5)" d="M732.282 312.324L755.018 289.3C759.12 285.208 763.111 280.39 767.774 276.968C776.516 283.183 783.988 291.414 791.75 298.789L816.935 323.729C827.39 334.22 838.117 343.931 845.872 356.734C853.701 369.66 858.054 383.289 860.558 398.141C862.939 412.261 861.906 427.148 861.943 441.436L861.938 515.095L861.904 586.248C861.869 601.296 862.711 616.292 860.51 631.243C859.048 641.174 855.216 651.29 850.572 660.14C849.077 662.988 847.617 666.13 845.713 668.724C835.056 683.246 821.11 694.939 807.99 707.096L792.456 722.25L782.779 730.585L766.289 747.034C763.577 744.894 761.321 741.739 758.798 739.298L728.694 709.724L729.355 709.208C729.993 709.758 730.412 710.352 731.255 710.5L732.003 709.503L732.421 710.029L732.047 711.547C733.17 713.078 734.723 714.349 736.106 715.645L736.255 706.75L735.755 706C735.732 703.03 735.189 698.803 735.944 696C737.073 691.8 736.445 686.606 736.431 682.245L736.749 669.635L736.439 644.88C736.416 642.066 735.796 637.778 736.759 635.15C737.674 626.418 736.956 616.845 736.932 608.029L736.946 557.91L736.922 380.997L736.935 344.394C736.898 343.646 736.895 342.964 736.69 342.237C736.418 341.271 736.269 340.809 736.393 339.781C736.547 338.498 736.185 336.907 736.575 335.753C737.199 333.907 737.258 320.063 736.755 318C736.16 315.564 736.663 313.358 735.755 311L735.183 310.843L733.125 312.649L732.282 312.324Z"/>
	<path fill="#70E000" transform="scale(0.5 0.5)" d="M736.922 380.997L761.074 380.786C767.1 380.883 773.07 380.986 778.916 382.672C785.619 384.606 791.898 388.676 796.884 393.485C808.33 404.524 812.016 415.432 812.243 431.107L811.998 536.658L812.168 562.139C812.39 571.82 813.251 582.451 811.408 591.983C809.301 602.882 804.225 613.413 796.349 621.345C789.846 627.893 782.342 632.286 773.275 634.175C768.413 635.188 762.909 634.997 757.948 634.995L736.759 635.15C737.674 626.418 736.956 616.845 736.932 608.029L736.946 557.91L736.922 380.997Z"/>
	<path fill="#006400" transform="scale(0.5 0.5)" d="M657.776 302.901C667.847 303.866 678.84 302.855 688.998 302.655L654.504 338.389C648.538 344.502 642.72 350.137 637.259 356.768C635.539 358.857 633.432 360.842 631.992 363.133C630.606 365.342 630.366 367.054 630.475 369.625C630.696 374.816 632.495 379.215 636.342 382.75C640.795 386.84 647.763 389.573 653.808 389.06C656.03 388.872 658.052 387.694 659.755 386.302C665.774 381.382 670.866 375.438 676.147 369.769L691.136 354.076L702.904 342.65C705.324 340.248 707.396 337.459 709.75 334.979L722.448 322.168L729.779 314.528C730.271 314.023 731.599 312.509 732.282 312.324L733.125 312.649L735.183 310.843L735.755 311C736.663 313.358 736.16 315.564 736.755 318C737.258 320.063 737.199 333.907 736.575 335.753C736.185 336.907 736.547 338.498 736.393 339.781C736.269 340.809 736.418 341.271 736.69 342.237C736.895 342.964 736.898 343.646 736.935 344.394L736.922 380.997L736.946 557.91L736.932 608.029C736.956 616.845 737.674 626.418 736.759 635.15C735.796 637.778 736.416 642.066 736.439 644.88L736.749 669.635L736.431 682.245C736.445 686.606 737.073 691.8 735.944 696C735.189 698.803 735.732 703.03 735.755 706L736.255 706.75L736.106 715.645C734.723 714.349 733.17 713.078 732.047 711.547L732.421 710.029L732.003 709.503L731.255 710.5C730.412 710.352 729.993 709.758 729.355 709.208L728.694 709.724L728.057 709.267C724.825 706.882 722.337 703.286 719.559 700.438L710.239 691.584L695.548 676.012L674.912 654.518C669.812 648.904 664.908 641.309 658.778 636.915C655.801 634.781 652.007 633.603 648.343 634.099C642.2 634.931 636.412 639.574 632.963 644.571C631.953 646.035 631.37 647.573 630.826 649.25L630.587 649.95C629.716 652.721 629.119 658.638 630.468 661.141C632.144 664.25 634.723 666.826 637.065 669.444L652.25 685.145L679.043 713.174C682.101 716.391 686.296 719.832 688.731 723.449L674.906 723.536C672.914 723.551 670.125 723.229 668.254 723.841C665.425 724.247 662.306 724.005 659.436 724.004L643.215 724.069L560.666 724.23L489.03 724.496L364.717 723.918C358.467 723.468 352.171 723.62 345.906 723.621C342.691 723.622 338.818 723.252 335.689 723.785C334.587 723.972 333.63 724.473 332.703 725.069C332.804 724.521 332.866 723.274 333.116 722.835C334.503 720.396 339.128 717.438 341.244 715.233L355.204 700.718L375.278 680.659C381.592 674.269 389.748 666.969 393.038 658.446C394.468 654.741 393.561 650.828 392.087 647.326C389.7 641.658 385.104 637.197 379.311 634.961L378.75 634.755C377.919 634.435 377.143 634.119 376.25 633.999C372.131 633.447 369.147 634.351 365.685 636.638C359.984 640.402 355.493 646.539 350.75 651.419L333.174 668.673C331.519 670.443 330.122 672.45 328.495 674.25L305.43 697.972C302.457 701.027 299.289 705.229 295.85 707.698L295.199 708.151L294.878 707.788C293.314 708.233 291.868 710.291 290.789 711.516C290.09 709.288 288.903 706.606 288.789 704.303L288.646 702.517C286.627 697.523 287.602 689.854 287.699 684.351C287.724 682.95 288.169 681.278 287.882 679.943C287.263 677.065 287.461 671.665 288.241 668.853L288.625 668.875L288.971 668.5C285.962 657.762 289.934 645.213 287.719 634.257C286.538 627.192 287.461 618.529 287.501 611.322L287.59 566.952L287.521 381.092C287.999 378.059 287.627 374.106 287.552 370.997L287.098 349.893L287.527 336.844C287.63 334.648 288.042 331.985 287.571 329.839C287.306 328.633 287.5 327.399 287.238 326.254C286.696 323.88 287.252 321.014 286.493 318.881L286.248 318.375C287.23 315.744 286.086 312.787 287.024 310.246L287.875 310.748C288.195 312.182 289.997 313.44 291.077 314.421L291.1 313.127C296.455 317.236 301.141 323.186 305.75 328.131L325.112 348.615L345.25 368.604L358.122 382.431C360.569 384.887 363 387.655 366.326 388.895C370.345 390.394 375.755 389.86 379.507 387.864C385.24 384.814 390.762 379.348 392.32 372.914C393.418 368.374 391.486 364.427 389.104 360.683C386.339 356.336 382.441 353.101 378.955 349.382L350.082 319.141C345.61 314.396 340.349 309.684 336.872 304.155L336.559 303.641L358.184 302.976L657.776 302.901Z"/>
	<path fill="#CF3" transform="scale(0.5 0.5)" d="M622.08 492.461C617.801 493.13 613.344 493.023 609.021 493.124L583.103 493.911C576.061 494.427 567.176 497.082 561.999 502.25C558.238 506.004 556.055 510.424 553.657 515.069C549.936 522.273 546.847 529.033 541.449 535.203C536.881 540.423 529.096 545.632 522.257 547.043C518.697 547.778 514.726 547.78 511.091 548.036C511.023 554.176 510.553 602.524 510.261 603.094C509.65 604.291 495.126 612.572 492.813 614.154C479.47 623.278 465.699 634.915 456.038 647.961L455.736 583.896C455.721 574.225 456.39 563.926 455.445 554.301C455.353 553.359 455.071 552.962 454.491 552.25C451.091 550.521 377.845 551.393 368.897 551.61C369.442 544.8 369.468 538.026 370.717 531.276C371.404 527.567 372.768 523.92 373.845 520.301C375.943 513.251 378.318 507.122 383.596 501.774C388.291 497.016 394.315 492.935 400.838 491.204C411.594 488.35 424.256 489.554 435.336 489.552L486.462 489.771L486.456 463.794C486.514 447.663 486.52 432.194 496.611 418.566C512.49 397.123 541.339 390.698 566.382 387.271C560.884 390.393 556.8 392.791 553.003 397.965C549.597 402.606 546.451 408.793 545.172 414.437C543.245 422.943 543.496 432.653 543.474 441.335L543.496 471.433L543.588 482.29C543.611 483.941 543.408 486.433 543.89 488C544.271 489.242 544.703 489.406 545.75 489.961C556.205 488.467 567.68 489.31 578.25 489.446L613.622 489.7L634.25 490.064L634.642 490.75C632.146 492.459 625.225 492.747 622.08 492.461Z"/>
</svg>
