<?xml version="1.0" encoding="UTF-8"?>
<svg xmlns="http://www.w3.org/2000/svg" xmlns:xlink="http://www.w3.org/1999/xlink" width="500px" height="500px" viewBox="0 0 500 500" version="1.1">
<g id="surface1">
<path style=" stroke:none;fill-rule:evenodd;fill:rgb(99.215686%,99.215686%,99.215686%);fill-opacity:1;" d="M -1.109375 -1.109375 C 165.554688 -1.109375 332.222656 -1.109375 498.890625 -1.109375 C 498.890625 165.554688 498.890625 332.222656 498.890625 498.890625 C 332.222656 498.890625 165.554688 498.890625 -1.109375 498.890625 C -1.109375 332.222656 -1.109375 165.554688 -1.109375 -1.109375 Z M -1.109375 -1.109375 "/>
<path style=" stroke:none;fill-rule:evenodd;fill:rgb(0.784314%,0.784314%,0.784314%);fill-opacity:1;" d="M 258.890625 118.890625 C 250.738281 125.554688 243.332031 132.960938 236.667969 141.109375 C 218.226562 158.4375 200.078125 176.21875 182.222656 194.445312 C 174.984375 206.972656 174.984375 219.566406 182.222656 232.222656 C 197.859375 247.484375 213.042969 263.039062 227.777344 278.890625 C 231.972656 292.5 226.785156 299.167969 212.222656 298.890625 C 193.160156 283.167969 175.011719 266.132812 157.777344 247.777344 C 143.890625 223.535156 144.632812 199.832031 160 176.667969 C 195.183594 141.480469 230.371094 106.296875 265.554688 71.109375 C 283.878906 67.9375 290.175781 74.976562 284.445312 92.222656 C 275.472656 100.820312 266.957031 109.707031 258.890625 118.890625 Z M 258.890625 118.890625 "/>
<path style=" stroke:none;fill-rule:evenodd;fill:rgb(95.686275%,63.137255%,14.901961%);fill-opacity:1;" d="M 258.890625 118.890625 C 267.71875 121.378906 275.867188 125.453125 283.332031 131.109375 C 292.59375 140.371094 301.851562 149.628906 311.109375 158.890625 C 314.929688 175.066406 308.632812 182.105469 292.222656 180 C 283.332031 171.109375 274.445312 162.222656 265.554688 153.332031 C 255.957031 148.082031 246.328125 144.007812 236.667969 141.109375 C 243.332031 132.960938 250.738281 125.554688 258.890625 118.890625 Z M 258.890625 118.890625 "/>
<path style=" stroke:none;fill-rule:evenodd;fill:rgb(70.980392%,70.588235%,69.803922%);fill-opacity:1;" d="M 232.222656 198.890625 C 268.527344 198.519531 304.820312 198.890625 341.109375 200 C 352.820312 209.289062 352.820312 218.179688 341.109375 226.667969 C 304.074219 228.148438 267.039062 228.148438 230 226.667969 C 220.886719 216.542969 221.628906 207.285156 232.222656 198.890625 Z M 232.222656 198.890625 "/>
<path style=" stroke:none;fill-rule:evenodd;fill:rgb(95.686275%,63.137255%,13.72549%);fill-opacity:1;" d="M 212.222656 298.890625 C 226.785156 299.167969 231.972656 292.5 227.777344 278.890625 C 232.945312 280.335938 238.132812 281.816406 243.332031 283.332031 C 249.441406 282.136719 255.367188 280.285156 261.109375 277.777344 C 272.113281 265.269531 284.335938 254.527344 297.777344 245.554688 C 311.691406 248.945312 315.394531 257.09375 308.890625 270 C 296.507812 283.871094 282.804688 296.09375 267.777344 306.667969 C 252.222656 311.109375 236.667969 311.109375 221.109375 306.667969 C 217.570312 304.558594 214.609375 301.964844 212.222656 298.890625 Z M 212.222656 298.890625 "/>
<path style=" stroke:none;fill-rule:evenodd;fill:rgb(0.784314%,0.784314%,0.784314%);fill-opacity:1;" d="M 12.222656 347.777344 C 15.183594 347.777344 18.148438 347.777344 21.109375 347.777344 C 20.742188 370.753906 21.113281 393.714844 22.222656 416.667969 C 23.332031 417.777344 24.445312 418.890625 25.554688 420 C 33.671875 421.109375 41.820312 421.476562 50 421.109375 C 50 424.074219 50 427.039062 50 430 C 14.433594 434.007812 1.101562 418.082031 10 382.222656 C 10.054688 370.5625 10.792969 359.085938 12.222656 347.777344 Z M 12.222656 347.777344 "/>
<path style=" stroke:none;fill-rule:evenodd;fill:rgb(6.27451%,6.27451%,6.27451%);fill-opacity:1;" d="M 194.445312 347.777344 C 197.382812 347.398438 199.976562 348.140625 202.222656 350 C 203.328125 356.625 203.699219 363.292969 203.332031 370 C 207.839844 369.640625 212.28125 370.011719 216.667969 371.109375 C 219.394531 374.636719 218.652344 377.601562 214.445312 380 C 210.8125 381.097656 207.109375 381.464844 203.332031 381.109375 C 202.964844 393.722656 203.335938 406.316406 204.445312 418.890625 C 210 419.890625 214.816406 422.109375 218.890625 425.554688 C 209.273438 432.269531 200.753906 430.792969 193.332031 421.109375 C 191.535156 396.496094 191.90625 372.054688 194.445312 347.777344 Z M 194.445312 347.777344 "/>
<path style=" stroke:none;fill-rule:evenodd;fill:rgb(8.235294%,8.235294%,8.235294%);fill-opacity:1;" d="M 258.890625 345.554688 C 264.125 345.191406 269.3125 345.5625 274.445312 346.667969 C 282.539062 350.171875 282.910156 354.246094 275.554688 358.890625 C 243.4375 356.28125 230.84375 371.097656 237.777344 403.332031 C 247.9375 417.222656 261.640625 422.78125 278.890625 420 C 281.851562 422.960938 281.851562 425.925781 278.890625 428.890625 C 244.503906 433.015625 226.351562 417.828125 224.445312 383.332031 C 229.457031 364.625 240.941406 352.035156 258.890625 345.554688 Z M 258.890625 345.554688 "/>
<path style=" stroke:none;fill-rule:evenodd;fill:rgb(7.45098%,7.45098%,7.45098%);fill-opacity:1;" d="M 410 345.554688 C 413.371094 345.578125 415.964844 347.058594 417.777344 350 C 419.816406 370.910156 419.074219 391.648438 415.554688 412.222656 C 407.347656 428.351562 394.386719 433.910156 376.667969 428.890625 C 355.019531 416.25 351.3125 399.582031 365.554688 378.890625 C 378.6875 367.925781 392.394531 367.183594 406.667969 376.667969 C 407.292969 366.1875 408.402344 355.816406 410 345.554688 Z M 410 345.554688 "/>
<path style=" stroke:none;fill-rule:evenodd;fill:rgb(4.705882%,4.705882%,4.705882%);fill-opacity:1;" d="M 74.445312 370 C 92.738281 366.824219 106.070312 373.492188 114.445312 390 C 100.058594 398.308594 85.242188 406.085938 70 413.332031 C 85.753906 425.386719 98.347656 422.421875 107.777344 404.445312 C 109.257812 402.960938 110.742188 402.960938 112.222656 404.445312 C 114.5625 407.527344 114.933594 410.863281 113.332031 414.445312 C 104.082031 428.875 91.117188 433.6875 74.445312 428.890625 C 57.695312 419.929688 52.140625 406.226562 57.777344 387.777344 C 62.285156 380.683594 67.839844 374.757812 74.445312 370 Z M 74.445312 370 "/>
<path style=" stroke:none;fill-rule:evenodd;fill:rgb(5.490196%,5.490196%,5.490196%);fill-opacity:1;" d="M 143.332031 370 C 159.234375 367.035156 171.457031 372.222656 180 385.554688 C 181.582031 389.703125 180.46875 393.039062 176.667969 395.554688 C 163.351562 400.226562 150.757812 406.152344 138.890625 413.332031 C 154.109375 425.527344 165.960938 422.5625 174.445312 404.445312 C 181.480469 402.59375 184.074219 405.183594 182.222656 412.222656 C 173.261719 428.972656 159.558594 434.527344 141.109375 428.890625 C 121.675781 415.496094 118.34375 398.832031 131.109375 378.890625 C 135.589844 376.230469 139.664062 373.265625 143.332031 370 Z M 143.332031 370 "/>
<path style=" stroke:none;fill-rule:evenodd;fill:rgb(4.705882%,4.705882%,4.705882%);fill-opacity:1;" d="M 307.777344 370 C 338.472656 368.449219 351.433594 382.527344 346.667969 412.222656 C 336.652344 429.875 322.207031 434.691406 303.332031 426.667969 C 281.703125 405.882812 283.183594 386.992188 307.777344 370 Z M 307.777344 370 "/>
<path style=" stroke:none;fill-rule:evenodd;fill:rgb(5.490196%,5.490196%,5.490196%);fill-opacity:1;" d="M 447.777344 370 C 463.46875 367.679688 475.691406 372.867188 484.445312 385.554688 C 486.023438 389.703125 484.914062 393.039062 481.109375 395.554688 C 468.183594 400.910156 455.589844 406.835938 443.332031 413.332031 C 449.070312 420.625 456.480469 422.847656 465.554688 420 C 470.832031 415.46875 475.277344 410.285156 478.890625 404.445312 C 482.929688 402.703125 485.894531 403.816406 487.777344 407.777344 C 479.972656 427.015625 465.898438 434.054688 445.554688 428.890625 C 426.414062 415.394531 423.082031 398.730469 435.554688 378.890625 C 440.035156 376.230469 444.109375 373.265625 447.777344 370 Z M 447.777344 370 "/>
<path style=" stroke:none;fill-rule:evenodd;fill:rgb(92.54902%,92.54902%,92.54902%);fill-opacity:1;" d="M 76.667969 381.109375 C 85.652344 379.90625 93.800781 381.757812 101.109375 386.667969 C 89.945312 393.367188 78.09375 398.183594 65.554688 401.109375 C 66.394531 392.863281 70.097656 386.195312 76.667969 381.109375 Z M 76.667969 381.109375 "/>
<path style=" stroke:none;fill-rule:evenodd;fill:rgb(93.333333%,93.333333%,93.333333%);fill-opacity:1;" d="M 143.332031 381.109375 C 150.039062 380.746094 156.707031 381.117188 163.332031 382.222656 C 164.816406 383.703125 166.296875 385.183594 167.777344 386.667969 C 157.226562 393.015625 146.117188 397.828125 134.445312 401.109375 C 134.40625 393.046875 137.367188 386.378906 143.332031 381.109375 Z M 143.332031 381.109375 "/>
<path style=" stroke:none;fill-rule:evenodd;fill:rgb(94.901961%,94.901961%,94.901961%);fill-opacity:1;" d="M 310 381.109375 C 337.4375 380.089844 344.84375 391.570312 332.222656 415.554688 C 318.613281 424.539062 307.871094 421.945312 300 407.777344 C 296.601562 396.183594 299.933594 387.296875 310 381.109375 Z M 310 381.109375 "/>
<path style=" stroke:none;fill-rule:evenodd;fill:rgb(96.078431%,96.078431%,96.078431%);fill-opacity:1;" d="M 378.890625 381.109375 C 403.882812 380.515625 411.660156 391.625 402.222656 414.445312 C 387.34375 425.25 376.230469 422.285156 368.890625 405.554688 C 367.40625 401.109375 367.40625 396.667969 368.890625 392.222656 C 372.683594 388.808594 376.015625 385.101562 378.890625 381.109375 Z M 378.890625 381.109375 "/>
<path style=" stroke:none;fill-rule:evenodd;fill:rgb(92.941176%,92.941176%,92.941176%);fill-opacity:1;" d="M 447.777344 381.109375 C 454.484375 380.746094 461.152344 381.117188 467.777344 382.222656 C 469.261719 383.703125 470.738281 385.183594 472.222656 386.667969 C 461.671875 393.015625 450.558594 397.828125 438.890625 401.109375 C 438.847656 393.046875 441.8125 386.378906 447.777344 381.109375 Z M 447.777344 381.109375 "/>
</g>
</svg>
