<?xml version="1.0" encoding="UTF-8"?>
<svg xmlns="http://www.w3.org/2000/svg" xmlns:xlink="http://www.w3.org/1999/xlink" width="550px" height="475px" viewBox="0 0 550 475" version="1.1">
<g id="surface1">
<path style=" stroke:none;fill-rule:evenodd;fill:rgb(98.823529%,98.823529%,98.823529%);fill-opacity:1;" d="M -0.738281 -0.738281 C 23.410156 -0.738281 47.558594 -0.738281 71.707031 -0.738281 C 71.648438 0.863281 71.15625 2.34375 70.226562 3.699219 C 53.988281 4.929688 37.722656 5.671875 21.4375 5.917969 C 15.878906 8.082031 11.691406 11.78125 8.871094 17.015625 C 7.171875 54.925781 6.433594 92.90625 6.652344 130.957031 C 6.652344 167.214844 7.144531 203.222656 8.132812 238.980469 C 8.921875 241.859375 10.894531 243.339844 14.046875 243.417969 C 14.046875 248.351562 14.046875 253.285156 14.046875 258.214844 C 10.953125 258.308594 8.734375 259.785156 7.390625 262.65625 C 6.40625 304.089844 6.40625 345.523438 7.390625 386.953125 C 8.5625 392.25 10.535156 397.183594 13.304688 401.753906 C 15.40625 403.171875 17.621094 404.40625 19.960938 405.453125 C 128.054688 407.164062 235.984375 408.394531 343.75 409.152344 C 344.128906 412.800781 345.605469 415.761719 348.183594 418.03125 C 349.328125 419.796875 350.804688 421.277344 352.621094 422.46875 C 366.296875 446.726562 386.996094 461.277344 414.71875 466.121094 C 446.527344 470.054688 474.128906 461.421875 497.511719 440.226562 C 501.457031 439.238281 503.917969 436.773438 504.90625 432.828125 C 508.71875 426.691406 512.90625 420.773438 517.472656 415.070312 C 518.726562 411.585938 519.957031 408.132812 521.167969 404.710938 C 523.453125 403.632812 524.683594 401.660156 524.867188 398.792969 C 525.816406 392.886719 526.554688 386.96875 527.082031 381.035156 C 527.328125 371.652344 527.082031 362.28125 526.34375 352.921875 C 523.660156 346.121094 521.445312 339.214844 519.691406 332.203125 C 519.992188 326.785156 520.488281 321.359375 521.167969 315.925781 C 523.113281 312.492188 525.085938 309.035156 527.082031 305.570312 C 526.203125 302.222656 524.230469 299.757812 521.167969 298.167969 C 519.988281 293.835938 519.496094 289.394531 519.691406 284.851562 C 523.929688 285.046875 526.394531 283.070312 527.082031 278.933594 C 527.332031 193.105469 527.082031 107.28125 526.34375 21.457031 C 522.761719 13.191406 516.601562 7.765625 507.863281 5.179688 C 480.023438 3.460938 451.933594 3.210938 423.589844 4.4375 C 420.472656 6.308594 418.996094 9.023438 419.152344 12.578125 C 412.871094 13.4375 407.449219 11.957031 402.890625 8.136719 C 401.722656 7.71875 400.738281 6.980469 399.933594 5.917969 C 299.394531 5.425781 198.859375 4.933594 98.320312 4.4375 C 96.363281 3.230469 95.378906 1.503906 95.363281 -0.738281 C 246.660156 -0.738281 397.960938 -0.738281 549.261719 -0.738281 C 549.261719 157.59375 549.261719 315.925781 549.261719 474.261719 C 365.925781 474.261719 182.59375 474.261719 -0.738281 474.261719 C -0.738281 315.925781 -0.738281 157.59375 -0.738281 -0.738281 Z M -0.738281 -0.738281 "/>
<path style=" stroke:none;fill-rule:evenodd;fill:rgb(3.137255%,3.137255%,3.529412%);fill-opacity:1;" d="M 71.707031 -0.738281 C 79.59375 -0.738281 87.476562 -0.738281 95.363281 -0.738281 C 95.378906 1.503906 96.363281 3.230469 98.320312 4.4375 C 198.859375 4.933594 299.394531 5.425781 399.933594 5.917969 C 400.738281 6.980469 401.722656 7.71875 402.890625 8.136719 C 403.777344 13.238281 402.296875 17.1875 398.453125 19.976562 C 302.347656 19.484375 206.246094 19.976562 110.148438 21.457031 C 110.671875 22.96875 111.660156 23.957031 113.105469 24.414062 C 113.953125 27.242188 115.433594 29.710938 117.539062 31.816406 C 133.582031 32.933594 149.84375 33.921875 166.332031 34.773438 C 174.164062 39.746094 175.890625 46.652344 171.503906 55.492188 C 168.316406 56.953125 166.589844 59.421875 166.332031 62.890625 C 164.882812 63.351562 163.898438 64.335938 163.375 65.847656 C 279.679688 67.328125 395.988281 67.820312 512.296875 67.328125 C 512.78125 52.757812 512.289062 38.453125 510.820312 24.414062 C 510.371094 23.453125 509.878906 22.46875 509.339844 21.457031 C 480.28125 19.976562 451.203125 19.484375 422.109375 19.976562 C 419.25 14.410156 420.238281 9.726562 425.066406 5.917969 C 452.660156 5.179688 480.257812 4.933594 507.863281 5.179688 C 516.601562 7.765625 522.761719 13.191406 526.34375 21.457031 C 527.082031 107.28125 527.332031 193.105469 527.082031 278.933594 C 522.933594 282.070312 518.5 282.5625 513.777344 280.414062 C 512.3125 214.378906 511.820312 148.285156 512.296875 82.125 C 507.0625 81.664062 502.132812 82.15625 497.511719 83.605469 C 496.515625 155.925781 495.527344 228.433594 494.554688 301.128906 C 492.09375 302.609375 490.121094 304.582031 488.640625 307.046875 C 485.15625 307.289062 481.707031 307.042969 478.292969 306.308594 C 474.136719 301.046875 468.714844 297.84375 462.03125 296.691406 C 458.320312 293.652344 453.886719 292.171875 448.722656 292.25 C 438.730469 289.460938 428.378906 288.722656 417.675781 290.03125 C 411.226562 291.269531 405.316406 293.492188 399.933594 296.691406 C 393.085938 298.632812 387.171875 302.085938 382.191406 307.046875 C 374.269531 312.757812 367.617188 319.664062 362.230469 327.765625 C 360.5625 330.496094 359.824219 333.453125 360.011719 336.644531 C 355.511719 341.445312 352.800781 347.363281 351.882812 354.398438 C 350.667969 365.515625 350.914062 376.367188 352.621094 386.953125 C 352.035156 398.847656 354.992188 409.699219 361.492188 419.507812 C 359.664062 423.273438 357.941406 423.273438 356.316406 419.507812 C 355.699219 421.367188 354.46875 422.355469 352.621094 422.46875 C 350.804688 421.277344 349.328125 419.796875 348.183594 418.03125 C 347.808594 414.378906 346.328125 411.417969 343.75 409.152344 C 235.984375 408.394531 128.054688 407.164062 19.960938 405.453125 C 17.621094 404.40625 15.40625 403.171875 13.304688 401.753906 C 10.535156 397.183594 8.5625 392.25 7.390625 386.953125 C 6.40625 345.523438 6.40625 304.089844 7.390625 262.65625 C 8.734375 259.785156 10.953125 258.308594 14.046875 258.214844 C 21.015625 258 27.914062 258.492188 34.746094 259.695312 C 79.382812 270.085938 108.707031 297.214844 122.714844 341.082031 C 123.777344 346.476562 124.515625 351.902344 124.933594 357.359375 C 124.933594 358.839844 124.933594 360.320312 124.933594 361.800781 C 195.160156 363.523438 265.632812 363.769531 336.359375 362.539062 C 337.132812 361.515625 338.121094 360.773438 339.316406 360.320312 C 340.625 352.453125 341.613281 344.5625 342.273438 336.644531 C 351.738281 312.160156 368.492188 294.15625 392.539062 282.632812 C 397.300781 280.632812 402.230469 279.398438 407.324219 278.933594 C 425.664062 276.59375 443.898438 277.085938 462.03125 280.414062 C 467.21875 283.140625 472.640625 285.609375 478.292969 287.8125 C 479.339844 289.148438 480.820312 289.640625 482.726562 289.292969 C 483.21875 257.464844 482.722656 225.898438 481.25 194.585938 C 458.617188 183.652344 435.949219 172.554688 413.238281 161.292969 C 408.289062 157.59375 404.839844 152.90625 402.890625 147.234375 C 403.113281 140.6875 404.101562 134.277344 405.847656 128 C 412.582031 113.035156 420.464844 98.730469 429.503906 85.085938 C 430.304688 84.996094 430.796875 84.503906 430.980469 83.605469 C 383.917969 83.113281 336.851562 82.621094 289.785156 82.125 C 242.214844 82.125 195.152344 83.113281 148.589844 85.085938 C 146.984375 85.261719 145.996094 86.25 145.632812 88.046875 C 152.464844 100.496094 156.902344 113.816406 158.9375 128 C 160.839844 136.378906 157.882812 141.804688 150.066406 144.277344 C 145.113281 144.519531 140.1875 144.273438 135.28125 143.535156 C 124.367188 139.976562 113.773438 135.785156 103.496094 130.957031 C 98.054688 135.175781 92.878906 139.617188 87.96875 144.277344 C 82.714844 146.152344 78.28125 149.113281 74.664062 153.152344 C 71.820312 153.589844 69.355469 154.824219 67.273438 156.855469 C 55.503906 160.589844 49.097656 156.394531 48.050781 144.277344 C 48.996094 129.394531 48.011719 115.089844 45.09375 101.363281 C 37.421875 98.125 30.523438 93.6875 24.394531 88.046875 C 23.890625 86.804688 22.902344 86.3125 21.4375 86.566406 C 19.964844 86.691406 18.734375 86.199219 17.742188 85.085938 C 17.25 86.566406 16.757812 88.046875 16.261719 89.523438 C 15.769531 89.03125 15.277344 88.539062 14.785156 88.046875 C 14.058594 89.957031 13.8125 91.933594 14.046875 93.964844 C 15.523438 93.964844 17.003906 93.964844 18.480469 93.964844 C 17 129.484375 17 165 18.480469 200.507812 C 17.988281 212.34375 17.496094 224.183594 17.003906 236.019531 C 16.054688 238.230469 14.578125 239.710938 12.566406 240.460938 C 10.925781 240.375 9.449219 239.882812 8.132812 238.980469 C 7.144531 203.222656 6.652344 167.214844 6.652344 130.957031 C 6.433594 92.90625 7.171875 54.925781 8.871094 17.015625 C 11.691406 11.78125 15.878906 8.082031 21.4375 5.917969 C 37.722656 5.671875 53.988281 4.929688 70.226562 3.699219 C 71.15625 2.34375 71.648438 0.863281 71.707031 -0.738281 Z M 71.707031 -0.738281 "/>
<path style=" stroke:none;fill-rule:evenodd;fill:rgb(45.490196%,47.058824%,49.803922%);fill-opacity:1;" d="M 27.351562 21.457031 C 38.90625 19.988281 50.734375 19.496094 62.835938 19.976562 C 63.273438 23.285156 62.777344 26.242188 61.359375 28.855469 C 61.359375 26.390625 61.359375 23.921875 61.359375 21.457031 C 52.488281 21.457031 43.617188 21.457031 34.746094 21.457031 C 32.28125 21.457031 29.816406 21.457031 27.351562 21.457031 Z M 27.351562 21.457031 "/>
<path style=" stroke:none;fill-rule:evenodd;fill:rgb(45.490196%,47.843137%,50.196078%);fill-opacity:1;" d="M 398.453125 19.976562 C 303.082031 20.472656 207.964844 21.949219 113.105469 24.414062 C 111.660156 23.957031 110.671875 22.96875 110.148438 21.457031 C 206.246094 19.976562 302.347656 19.484375 398.453125 19.976562 Z M 398.453125 19.976562 "/>
<path style=" stroke:none;fill-rule:evenodd;fill:rgb(77.254902%,80.784314%,84.705882%);fill-opacity:1;" d="M 34.746094 21.457031 C 43.617188 21.457031 52.488281 21.457031 61.359375 21.457031 C 61.359375 23.921875 61.359375 26.390625 61.359375 28.855469 C 60.574219 33.613281 59.589844 38.300781 58.402344 42.914062 C 53.0625 44.613281 47.640625 45.847656 42.136719 46.613281 C 39.671875 46.613281 37.207031 46.613281 34.746094 46.613281 C 34.746094 38.226562 34.746094 29.839844 34.746094 21.457031 Z M 34.746094 21.457031 "/>
<path style=" stroke:none;fill-rule:evenodd;fill:rgb(77.647059%,81.568627%,85.490196%);fill-opacity:1;" d="M 507.863281 5.179688 C 480.257812 4.933594 452.660156 5.179688 425.066406 5.917969 C 420.238281 9.726562 419.25 14.410156 422.109375 19.976562 C 451.203125 19.484375 480.28125 19.976562 509.339844 21.457031 C 509.878906 22.46875 510.371094 23.453125 510.820312 24.414062 C 510.820312 38.226562 510.820312 52.039062 510.820312 65.847656 C 395.488281 66.832031 280.65625 65.84375 166.332031 62.890625 C 166.589844 59.421875 168.316406 56.953125 171.503906 55.492188 C 175.890625 46.652344 174.164062 39.746094 166.332031 34.773438 C 165.203125 33.636719 163.722656 32.898438 161.894531 32.554688 C 147.117188 31.816406 132.332031 31.566406 117.539062 31.816406 C 115.433594 29.710938 113.953125 27.242188 113.105469 24.414062 C 207.964844 21.949219 303.082031 20.472656 398.453125 19.976562 C 402.296875 17.1875 403.777344 13.238281 402.890625 8.136719 C 407.449219 11.957031 412.871094 13.4375 419.152344 12.578125 C 418.996094 9.023438 420.472656 6.308594 423.589844 4.4375 C 451.933594 3.210938 480.023438 3.460938 507.863281 5.179688 Z M 507.863281 5.179688 "/>
<path style=" stroke:none;fill-rule:evenodd;fill:rgb(61.568627%,64.313725%,68.235294%);fill-opacity:1;" d="M 27.351562 21.457031 C 29.816406 21.457031 32.28125 21.457031 34.746094 21.457031 C 34.746094 29.839844 34.746094 38.226562 34.746094 46.613281 C 37.207031 46.613281 39.671875 46.613281 42.136719 46.613281 C 35.527344 48.308594 29.121094 50.773438 22.917969 54.011719 C 21.195312 44.183594 20.949219 34.316406 22.175781 24.414062 C 23.382812 22.457031 25.109375 21.472656 27.351562 21.457031 Z M 27.351562 21.457031 "/>
<path style=" stroke:none;fill-rule:evenodd;fill:rgb(41.960784%,43.921569%,46.27451%);fill-opacity:1;" d="M 117.539062 31.816406 C 132.332031 31.566406 147.117188 31.816406 161.894531 32.554688 C 163.722656 32.898438 165.203125 33.636719 166.332031 34.773438 C 149.84375 33.921875 133.582031 32.933594 117.539062 31.816406 Z M 117.539062 31.816406 "/>
<path style=" stroke:none;fill-rule:evenodd;fill:rgb(99.215686%,93.72549%,68.235294%);fill-opacity:1;" d="M 99.796875 33.292969 C 101.328125 35.816406 101.328125 38.285156 99.796875 40.691406 C 101.019531 42.003906 102.496094 42.496094 104.234375 42.171875 C 102.949219 50.179688 106.398438 54.125 114.582031 54.011719 C 125.496094 52.140625 136.339844 51.648438 147.109375 52.53125 C 147.296875 56.59375 145.574219 59.550781 141.933594 61.410156 C 141.210938 63.324219 140.964844 65.296875 141.195312 67.328125 C 138.085938 66.886719 135.128906 67.378906 132.324219 68.808594 C 134.101562 73.144531 132.625 76.105469 127.890625 77.6875 C 126.125 88.269531 127.605469 98.378906 132.324219 108.023438 C 131.832031 108.515625 131.339844 109.007812 130.847656 109.5 C 133.441406 112.367188 135.90625 115.078125 138.238281 117.640625 C 139.480469 119.328125 140.464844 121.300781 141.195312 123.558594 C 134.039062 125.09375 127.878906 123.121094 122.714844 117.640625 C 121.222656 118.21875 120.480469 119.207031 120.496094 120.601562 C 115.414062 117.519531 109.992188 115.546875 104.234375 114.679688 C 101.628906 114.46875 99.164062 114.960938 96.839844 116.160156 C 86.925781 125.101562 76.574219 133.484375 65.792969 141.316406 C 63.855469 137.996094 62.867188 134.050781 62.835938 129.476562 C 64.035156 118.144531 64.28125 106.796875 63.574219 95.445312 C 63.007812 94.621094 62.269531 94.128906 61.359375 93.964844 C 53.640625 89.375 46.25 84.441406 39.179688 79.167969 C 39.015625 78.253906 38.523438 77.511719 37.703125 76.945312 C 39.847656 77.335938 41.816406 77.089844 43.617188 76.207031 C 39.828125 74.519531 35.886719 73.285156 31.789062 72.507812 C 30.382812 71.445312 30.136719 70.210938 31.046875 68.808594 C 44.425781 65.277344 57.980469 62.316406 71.707031 59.929688 C 73.230469 58.152344 74.464844 56.179688 75.402344 54.011719 C 78.5 42.753906 80.964844 31.40625 82.796875 19.976562 C 83.40625 19.300781 84.148438 18.804688 85.011719 18.496094 C 86.78125 21.15625 89.246094 22.636719 92.40625 22.9375 C 92.167969 25.9375 92.414062 28.894531 93.144531 31.816406 C 95.675781 30.214844 97.890625 30.707031 99.796875 33.292969 Z M 99.796875 33.292969 "/>
<path style=" stroke:none;fill-rule:evenodd;fill:rgb(5.098039%,5.882353%,6.666667%);fill-opacity:1;" d="M 425.066406 36.253906 C 435.132812 36.921875 437.597656 41.609375 432.460938 50.3125 C 421.496094 53.175781 417.554688 48.984375 420.632812 37.734375 C 422.539062 38.085938 424.019531 37.589844 425.066406 36.253906 Z M 425.066406 36.253906 "/>
<path style=" stroke:none;fill-rule:evenodd;fill:rgb(3.921569%,4.705882%,6.27451%);fill-opacity:1;" d="M 463.507812 37.734375 C 465.882812 42.585938 465.390625 47.023438 462.03125 51.050781 C 454.753906 52.917969 450.808594 50.207031 450.203125 42.914062 C 450.113281 40.382812 451.097656 38.410156 453.160156 36.992188 C 456.75 35.953125 460.199219 36.199219 463.507812 37.734375 Z M 463.507812 37.734375 "/>
<path style=" stroke:none;fill-rule:evenodd;fill:rgb(5.882353%,6.666667%,7.843137%);fill-opacity:1;" d="M 484.207031 36.253906 C 488.207031 36.363281 492.152344 36.859375 496.035156 37.734375 C 496.496094 41.796875 496.003906 45.746094 494.554688 49.570312 C 482.210938 51.976562 478.761719 47.539062 484.207031 36.253906 Z M 484.207031 36.253906 "/>
<path style=" stroke:none;fill-rule:evenodd;fill:rgb(34.509804%,31.372549%,18.823529%);fill-opacity:1;" d="M 123.453125 48.09375 C 134.03125 46.382812 144.875 46.136719 155.980469 47.351562 C 157.902344 49.6875 157.410156 51.414062 154.503906 52.53125 C 154.503906 51.050781 154.503906 49.570312 154.503906 48.09375 C 144.152344 48.09375 133.804688 48.09375 123.453125 48.09375 Z M 123.453125 48.09375 "/>
<path style=" stroke:none;fill-rule:evenodd;fill:rgb(41.960784%,43.921569%,45.882353%);fill-opacity:1;" d="M 463.507812 37.734375 C 465.765625 39.203125 466.75 41.421875 466.464844 44.390625 C 467.128906 48.277344 465.652344 50.496094 462.03125 51.050781 C 465.652344 50.496094 467.128906 48.277344 466.464844 44.390625 C 466.75 41.421875 465.765625 39.203125 463.507812 37.734375 Z M 463.507812 37.734375 "/>
<path style=" stroke:none;fill-rule:evenodd;fill:rgb(50.588235%,47.45098%,34.901961%);fill-opacity:1;" d="M 71.707031 52.53125 C 71.691406 54.777344 70.707031 56.503906 68.75 57.710938 C 65.832031 58.445312 62.875 58.691406 59.878906 58.449219 C 64.121094 57.3125 68.0625 55.339844 71.707031 52.53125 Z M 71.707031 52.53125 "/>
<path style=" stroke:none;fill-rule:evenodd;fill:rgb(89.019608%,85.098039%,67.058824%);fill-opacity:1;" d="M 99.796875 33.292969 C 97.890625 30.707031 95.675781 30.214844 93.144531 31.816406 C 92.414062 28.894531 92.167969 25.9375 92.40625 22.9375 C 89.246094 22.636719 86.78125 21.15625 85.011719 18.496094 C 84.148438 18.804688 83.40625 19.300781 82.796875 19.976562 C 80.964844 31.40625 78.5 42.753906 75.402344 54.011719 C 74.464844 56.179688 73.230469 58.152344 71.707031 59.929688 C 57.980469 62.316406 44.425781 65.277344 31.046875 68.808594 C 30.136719 70.210938 30.382812 71.445312 31.789062 72.507812 C 35.886719 73.285156 39.828125 74.519531 43.617188 76.207031 C 41.816406 77.089844 39.847656 77.335938 37.703125 76.945312 C 38.523438 77.511719 39.015625 78.253906 39.179688 79.167969 C 33.742188 77.425781 29.308594 74.21875 25.875 69.546875 C 29.578125 66.265625 34.015625 64.539062 39.179688 64.371094 C 46.46875 63.246094 53.371094 61.273438 59.878906 58.449219 C 62.875 58.691406 65.832031 58.445312 68.75 57.710938 C 70.707031 56.503906 71.691406 54.777344 71.707031 52.53125 C 72.480469 38.074219 76.671875 24.757812 84.273438 12.578125 C 91.417969 18.003906 96.59375 24.90625 99.796875 33.292969 Z M 99.796875 33.292969 "/>
<path style=" stroke:none;fill-rule:evenodd;fill:rgb(63.137255%,60.392157%,47.45098%);fill-opacity:1;" d="M 59.878906 58.449219 C 53.371094 61.273438 46.46875 63.246094 39.179688 64.371094 C 45.527344 60.941406 52.429688 58.96875 59.878906 58.449219 Z M 59.878906 58.449219 "/>
<path style=" stroke:none;fill-rule:evenodd;fill:rgb(37.647059%,35.294118%,25.882353%);fill-opacity:1;" d="M 148.589844 61.410156 C 147.730469 64.738281 145.761719 67.203125 142.675781 68.808594 C 143.53125 65.480469 145.503906 63.015625 148.589844 61.410156 Z M 148.589844 61.410156 "/>
<path style=" stroke:none;fill-rule:evenodd;fill:rgb(61.176471%,63.137255%,65.882353%);fill-opacity:1;" d="M 510.820312 24.414062 C 512.289062 38.453125 512.78125 52.757812 512.296875 67.328125 C 395.988281 67.820312 279.679688 67.328125 163.375 65.847656 C 163.898438 64.335938 164.882812 63.351562 166.332031 62.890625 C 280.65625 65.84375 395.488281 66.832031 510.820312 65.847656 C 510.820312 52.039062 510.820312 38.226562 510.820312 24.414062 Z M 510.820312 24.414062 "/>
<path style=" stroke:none;fill-rule:evenodd;fill:rgb(93.333333%,89.019608%,69.803922%);fill-opacity:1;" d="M 99.796875 33.292969 C 103.398438 38.25 106.847656 43.429688 110.148438 48.832031 C 114.664062 49.769531 119.101562 49.523438 123.453125 48.09375 C 133.804688 48.09375 144.152344 48.09375 154.503906 48.09375 C 154.503906 49.570312 154.503906 51.050781 154.503906 52.53125 C 151.960938 55.082031 149.992188 58.039062 148.589844 61.410156 C 145.503906 63.015625 143.53125 65.480469 142.675781 68.808594 C 136.804688 73.648438 132.371094 79.566406 129.367188 86.566406 C 133.445312 94.484375 136.402344 102.867188 138.238281 111.722656 C 138.238281 113.695312 138.238281 115.667969 138.238281 117.640625 C 135.90625 115.078125 133.441406 112.367188 130.847656 109.5 C 131.339844 109.007812 131.832031 108.515625 132.324219 108.023438 C 127.605469 98.378906 126.125 88.269531 127.890625 77.6875 C 132.625 76.105469 134.101562 73.144531 132.324219 68.808594 C 135.128906 67.378906 138.085938 66.886719 141.195312 67.328125 C 140.964844 65.296875 141.210938 63.324219 141.933594 61.410156 C 145.574219 59.550781 147.296875 56.59375 147.109375 52.53125 C 136.339844 51.648438 125.496094 52.140625 114.582031 54.011719 C 106.398438 54.125 102.949219 50.179688 104.234375 42.171875 C 102.496094 42.496094 101.019531 42.003906 99.796875 40.691406 C 101.328125 38.285156 101.328125 35.816406 99.796875 33.292969 Z M 99.796875 33.292969 "/>
<path style=" stroke:none;fill-rule:evenodd;fill:rgb(25.882353%,34.117647%,40.784314%);fill-opacity:1;" d="M 429.503906 85.085938 C 336.007812 83.117188 242.371094 83.117188 148.589844 85.085938 C 195.152344 83.113281 242.214844 82.125 289.785156 82.125 C 336.851562 82.621094 383.917969 83.113281 430.980469 83.605469 C 430.796875 84.503906 430.304688 84.996094 429.503906 85.085938 Z M 429.503906 85.085938 "/>
<path style=" stroke:none;fill-rule:evenodd;fill:rgb(99.215686%,81.568627%,39.215686%);fill-opacity:1;" d="M 448.722656 85.085938 C 458.582031 85.085938 468.4375 85.085938 478.292969 85.085938 C 478.292969 113.199219 478.292969 141.316406 478.292969 169.429688 C 468.875 169.652344 461.480469 165.949219 456.117188 158.332031 C 443.886719 155.0625 432.058594 150.871094 420.632812 145.753906 C 418.835938 141.863281 418.835938 137.917969 420.632812 133.917969 C 423.746094 132.339844 425.964844 129.875 427.285156 126.519531 C 428.574219 121.328125 430.296875 116.394531 432.460938 111.722656 C 434.703125 111.707031 436.429688 110.71875 437.632812 108.761719 C 440.601562 104.269531 441.832031 99.335938 441.332031 93.964844 C 443.410156 93.265625 444.394531 91.785156 444.289062 89.523438 C 447.246094 89.523438 448.722656 88.046875 448.722656 85.085938 Z M 448.722656 85.085938 "/>
<path style=" stroke:none;fill-rule:evenodd;fill:rgb(41.568627%,41.960784%,42.352941%);fill-opacity:1;" d="M 497.511719 83.605469 C 498 156.21875 497.507812 228.726562 496.035156 301.128906 C 495.542969 301.128906 495.046875 301.128906 494.554688 301.128906 C 495.527344 228.433594 496.515625 155.925781 497.511719 83.605469 Z M 497.511719 83.605469 "/>
<path style=" stroke:none;fill-rule:evenodd;fill:rgb(68.235294%,69.019608%,69.019608%);fill-opacity:1;" d="M 497.511719 83.605469 C 502.132812 82.15625 507.0625 81.664062 512.296875 82.125 C 511.820312 148.285156 512.3125 214.378906 513.777344 280.414062 C 512.863281 280.25 512.125 279.753906 511.558594 278.933594 C 510.820312 213.824219 510.574219 148.714844 510.820312 83.605469 C 506.382812 83.605469 501.949219 83.605469 497.511719 83.605469 Z M 497.511719 83.605469 "/>
<path style=" stroke:none;fill-rule:evenodd;fill:rgb(78.431373%,67.058824%,38.431373%);fill-opacity:1;" d="M 441.332031 93.964844 C 441.832031 99.335938 440.601562 104.269531 437.632812 108.761719 C 436.429688 110.71875 434.703125 111.707031 432.460938 111.722656 C 434.03125 104.984375 436.988281 99.066406 441.332031 93.964844 Z M 441.332031 93.964844 "/>
<path style=" stroke:none;fill-rule:evenodd;fill:rgb(42.352941%,34.509804%,18.431373%);fill-opacity:1;" d="M 476.816406 175.351562 C 478.292969 175.351562 479.773438 175.351562 481.25 175.351562 C 481.25 144.769531 481.25 114.1875 481.25 83.605469 C 470.132812 83.125 459.292969 83.617188 448.722656 85.085938 C 448.722656 88.046875 447.246094 89.523438 444.289062 89.523438 C 444.660156 87.054688 445.644531 84.832031 447.246094 82.867188 C 459.0625 82.125 470.890625 81.878906 482.726562 82.125 C 482.726562 114.1875 482.726562 146.25 482.726562 178.308594 C 479.949219 178.710938 477.976562 177.722656 476.816406 175.351562 Z M 476.816406 175.351562 "/>
<path style=" stroke:none;fill-rule:evenodd;fill:rgb(79.215686%,76.078431%,60.392157%);fill-opacity:1;" d="M 138.238281 111.722656 C 141.863281 116.933594 143.832031 122.851562 144.152344 129.476562 C 141.640625 129.714844 139.175781 129.46875 136.761719 128.738281 C 125.464844 124.738281 114.621094 120.050781 104.234375 114.679688 C 109.992188 115.546875 115.414062 117.519531 120.496094 120.601562 C 120.480469 119.207031 121.222656 118.21875 122.714844 117.640625 C 127.878906 123.121094 134.039062 125.09375 141.195312 123.558594 C 140.464844 121.300781 139.480469 119.328125 138.238281 117.640625 C 138.238281 115.667969 138.238281 113.695312 138.238281 111.722656 Z M 138.238281 111.722656 "/>
<path style=" stroke:none;fill-rule:evenodd;fill:rgb(73.72549%,63.137255%,37.254902%);fill-opacity:1;" d="M 432.460938 111.722656 C 430.296875 116.394531 428.574219 121.328125 427.285156 126.519531 C 425.964844 129.875 423.746094 132.339844 420.632812 133.917969 C 422.667969 127.277344 425.378906 120.863281 428.761719 114.679688 C 429.808594 113.378906 431.042969 112.390625 432.460938 111.722656 Z M 432.460938 111.722656 "/>
<path style=" stroke:none;fill-rule:evenodd;fill:rgb(40.784314%,38.039216%,28.627451%);fill-opacity:1;" d="M 61.359375 93.964844 C 62.269531 94.128906 63.007812 94.621094 63.574219 95.445312 C 64.28125 106.796875 64.035156 118.144531 62.835938 129.476562 C 62.867188 134.050781 63.855469 137.996094 65.792969 141.316406 C 64.746094 142.652344 63.265625 143.148438 61.359375 142.796875 C 61.734375 126.425781 61.734375 110.148438 61.359375 93.964844 Z M 61.359375 93.964844 "/>
<path style=" stroke:none;fill-rule:evenodd;fill:rgb(18.823529%,27.058824%,33.333333%);fill-opacity:1;" d="M 45.09375 101.363281 C 48.011719 115.089844 48.996094 129.394531 48.050781 144.277344 C 47.03125 130.117188 46.046875 115.8125 45.09375 101.363281 Z M 45.09375 101.363281 "/>
<path style=" stroke:none;fill-rule:evenodd;fill:rgb(17.647059%,24.313725%,30.196078%);fill-opacity:1;" d="M 405.847656 128 C 404.101562 134.277344 403.113281 140.6875 402.890625 147.234375 C 401.214844 143.585938 400.964844 139.640625 402.152344 135.398438 C 402.296875 132.210938 403.53125 129.746094 405.847656 128 Z M 405.847656 128 "/>
<path style=" stroke:none;fill-rule:evenodd;fill:rgb(61.176471%,55.294118%,34.901961%);fill-opacity:1;" d="M 420.632812 133.917969 C 418.835938 137.917969 418.835938 141.863281 420.632812 145.753906 C 421.617188 147.234375 422.601562 148.714844 423.589844 150.195312 C 416.832031 147.328125 414.863281 142.394531 417.675781 135.398438 C 418.351562 134.21875 419.335938 133.722656 420.632812 133.917969 Z M 420.632812 133.917969 "/>
<path style=" stroke:none;fill-rule:evenodd;fill:rgb(30.196078%,49.803922%,65.490196%);fill-opacity:1;" d="M 24.394531 88.046875 C 30.523438 93.6875 37.421875 98.125 45.09375 101.363281 C 46.046875 115.8125 47.03125 130.117188 48.050781 144.277344 C 49.097656 156.394531 55.503906 160.589844 67.273438 156.855469 C 69.355469 154.824219 71.820312 153.589844 74.664062 153.152344 C 73.121094 156.9375 70.65625 160.144531 67.273438 162.773438 C 62.503906 164.082031 58.066406 166.054688 53.964844 168.691406 C 51.832031 169.847656 49.859375 169.601562 48.050781 167.953125 C 45.890625 151.289062 44.414062 134.515625 43.617188 117.640625 C 40.953125 115.441406 37.996094 113.960938 34.746094 113.199219 C 34.746094 162.03125 34.746094 210.863281 34.746094 259.695312 C 27.914062 258.492188 21.015625 258 14.046875 258.214844 C 14.046875 253.285156 14.046875 248.351562 14.046875 243.417969 C 17.597656 243.578125 20.308594 242.097656 22.175781 238.980469 C 22.425781 188.417969 23.164062 138.105469 24.394531 88.046875 Z M 24.394531 88.046875 "/>
<path style=" stroke:none;fill-rule:evenodd;fill:rgb(90.196078%,76.862745%,45.098039%);fill-opacity:1;" d="M 448.722656 85.085938 C 459.292969 83.617188 470.132812 83.125 481.25 83.605469 C 481.25 114.1875 481.25 144.769531 481.25 175.351562 C 479.773438 175.351562 478.292969 175.351562 476.816406 175.351562 C 459.328125 166.527344 441.585938 158.140625 423.589844 150.195312 C 422.601562 148.714844 421.617188 147.234375 420.632812 145.753906 C 432.058594 150.871094 443.886719 155.0625 456.117188 158.332031 C 461.480469 165.949219 468.875 169.652344 478.292969 169.429688 C 478.292969 141.316406 478.292969 113.199219 478.292969 85.085938 C 468.4375 85.085938 458.582031 85.085938 448.722656 85.085938 Z M 448.722656 85.085938 "/>
<path style=" stroke:none;fill-rule:evenodd;fill:rgb(50.196078%,65.882353%,77.647059%);fill-opacity:1;" d="M 429.503906 85.085938 C 420.464844 98.730469 412.582031 113.035156 405.847656 128 C 403.53125 129.746094 402.296875 132.210938 402.152344 135.398438 C 400.964844 139.640625 401.214844 143.585938 402.890625 147.234375 C 404.839844 152.90625 408.289062 157.59375 413.238281 161.292969 C 435.949219 172.554688 458.617188 183.652344 481.25 194.585938 C 482.21875 226.195312 481.234375 257.269531 478.292969 287.8125 C 472.640625 285.609375 467.21875 283.140625 462.03125 280.414062 C 458.980469 278.523438 455.53125 277.289062 451.679688 276.714844 C 438.375 275.726562 425.066406 275.726562 411.761719 276.714844 C 409.933594 277.058594 408.453125 277.796875 407.324219 278.933594 C 402.230469 279.398438 397.300781 280.632812 392.539062 282.632812 C 368.492188 294.15625 351.738281 312.160156 342.273438 336.644531 C 338.019531 343.800781 336.046875 351.691406 336.359375 360.320312 C 334.386719 360.320312 332.414062 360.320312 330.445312 360.320312 C 261.617188 361.285156 193.113281 360.300781 124.933594 357.359375 C 124.515625 351.902344 123.777344 346.476562 122.714844 341.082031 C 108.707031 297.214844 79.382812 270.085938 34.746094 259.695312 C 34.746094 210.863281 34.746094 162.03125 34.746094 113.199219 C 37.996094 113.960938 40.953125 115.441406 43.617188 117.640625 C 44.414062 134.515625 45.890625 151.289062 48.050781 167.953125 C 49.859375 169.601562 51.832031 169.847656 53.964844 168.691406 C 58.066406 166.054688 62.503906 164.082031 67.273438 162.773438 C 70.65625 160.144531 73.121094 156.9375 74.664062 153.152344 C 78.28125 149.113281 82.714844 146.152344 87.96875 144.277344 C 90.214844 144.261719 91.9375 143.273438 93.144531 141.316406 C 97.050781 145.191406 101.730469 147.90625 107.191406 149.453125 C 118.210938 152.824219 129.546875 155.042969 141.195312 156.113281 C 141.195312 152.660156 141.195312 149.207031 141.195312 145.753906 C 144.5 146.191406 147.457031 145.699219 150.066406 144.277344 C 157.882812 141.804688 160.839844 136.378906 158.9375 128 C 156.902344 113.816406 152.464844 100.496094 145.632812 88.046875 C 145.996094 86.25 146.984375 85.261719 148.589844 85.085938 C 242.371094 83.117188 336.007812 83.117188 429.503906 85.085938 Z M 429.503906 85.085938 "/>
<path style=" stroke:none;fill-rule:evenodd;fill:rgb(29.803922%,49.411765%,65.098039%);fill-opacity:1;" d="M 150.066406 144.277344 C 147.457031 145.699219 144.5 146.191406 141.195312 145.753906 C 141.195312 149.207031 141.195312 152.660156 141.195312 156.113281 C 129.546875 155.042969 118.210938 152.824219 107.191406 149.453125 C 101.730469 147.90625 97.050781 145.191406 93.144531 141.316406 C 91.9375 143.273438 90.214844 144.261719 87.96875 144.277344 C 92.878906 139.617188 98.054688 135.175781 103.496094 130.957031 C 113.773438 135.785156 124.367188 139.976562 135.28125 143.535156 C 140.1875 144.273438 145.113281 144.519531 150.066406 144.277344 Z M 150.066406 144.277344 "/>
<path style=" stroke:none;fill-rule:evenodd;fill:rgb(22.352941%,30.196078%,36.862745%);fill-opacity:1;" d="M 178.160156 129.476562 C 176.246094 132.136719 174.027344 134.601562 171.503906 136.875 C 170.773438 139.296875 170.53125 141.761719 170.765625 144.277344 C 167.726562 136.882812 170.191406 131.953125 178.160156 129.476562 Z M 178.160156 129.476562 "/>
<path style=" stroke:none;fill-rule:evenodd;fill:rgb(86.27451%,90.196078%,93.333333%);fill-opacity:1;" d="M 265.390625 114.679688 C 298.222656 121.1875 321.632812 139.4375 335.617188 169.429688 C 337.9375 175.652344 339.167969 182.0625 339.316406 188.667969 C 339.5625 207.910156 339.316406 227.148438 338.574219 246.378906 C 338.082031 244.40625 337.589844 242.433594 337.097656 240.460938 C 336.605469 247.859375 336.109375 255.257812 335.617188 262.65625 C 333.023438 260.066406 329.820312 259.078125 326.007812 259.695312 C 326.363281 264.875 325.132812 265.367188 322.3125 261.175781 C 321.992188 263.964844 321.007812 266.429688 319.355469 268.574219 C 318.863281 265.121094 318.367188 261.667969 317.875 258.214844 C 316.890625 262.164062 315.90625 266.109375 314.917969 270.054688 C 314.1875 267.636719 313.945312 265.167969 314.179688 262.65625 C 314.785156 257.691406 313.796875 253.25 311.222656 249.339844 C 311.058594 248.425781 310.566406 247.683594 309.746094 247.117188 C 270.558594 245.890625 231.625 246.136719 192.945312 247.859375 C 190.953125 246.867188 189.226562 246.867188 187.769531 247.859375 C 186.609375 221.683594 187.105469 195.542969 189.246094 169.429688 C 190.898438 159.015625 195.085938 149.890625 201.816406 142.054688 C 200.027344 137.578125 200.765625 133.386719 204.03125 129.476562 C 206.496094 129.476562 208.960938 129.476562 211.425781 129.476562 C 212.367188 125.246094 215.078125 121.792969 219.554688 119.121094 C 221.527344 118.625 223.5 118.132812 225.46875 117.640625 C 238.660156 115.367188 251.96875 114.378906 265.390625 114.679688 Z M 265.390625 114.679688 "/>
<path style=" stroke:none;fill-rule:evenodd;fill:rgb(3.921569%,4.705882%,5.882353%);fill-opacity:1;" d="M 306.789062 330.722656 C 254.929688 357.589844 209.339844 349.699219 170.027344 307.046875 C 161.625 295.496094 154.972656 283.164062 150.066406 270.054688 C 150.066406 267.585938 150.066406 265.121094 150.066406 262.65625 C 140.15625 262.628906 132.269531 258.683594 126.410156 250.816406 C 125.425781 247.367188 124.441406 243.910156 123.453125 240.460938 C 123.207031 228.609375 123.453125 216.773438 124.195312 204.945312 C 125.730469 203.84375 126.46875 202.363281 126.410156 200.507812 C 128.015625 197.417969 130.480469 195.445312 133.804688 194.585938 C 138.664062 193.609375 143.59375 192.871094 148.589844 192.367188 C 149.984375 188.34375 150.476562 184.152344 150.066406 179.789062 C 151.335938 174.75 153.0625 169.816406 155.242188 164.992188 C 158.484375 161.535156 162.183594 161.042969 166.332031 163.511719 C 168.195312 170.109375 167.457031 176.523438 164.113281 182.75 C 163.125 206.917969 163.125 231.089844 164.113281 255.257812 C 168.421875 282.15625 181.972656 302.871094 204.773438 317.40625 C 213.265625 324.285156 223.125 328.476562 234.339844 329.984375 C 243.480469 331.195312 252.351562 330.949219 260.953125 329.246094 C 291.628906 326.203125 314.789062 311.15625 330.445312 284.113281 C 335.132812 274.46875 338.335938 264.359375 340.054688 253.777344 C 341.277344 231.820312 341.03125 210.117188 339.316406 188.667969 C 339.167969 182.0625 337.9375 175.652344 335.617188 169.429688 C 321.632812 139.4375 298.222656 121.1875 265.390625 114.679688 C 255.796875 112.972656 245.941406 112.726562 235.820312 113.941406 C 231.839844 114.171875 228.390625 115.40625 225.46875 117.640625 C 223.5 118.132812 221.527344 118.625 219.554688 119.121094 C 204.207031 125.121094 191.394531 134.496094 181.117188 147.234375 C 178.117188 147.476562 175.160156 147.230469 172.246094 146.496094 C 171.421875 145.929688 170.929688 145.1875 170.765625 144.277344 C 170.53125 141.761719 170.773438 139.296875 171.503906 136.875 C 174.027344 134.601562 176.246094 132.136719 178.160156 129.476562 C 201.804688 103.332031 231.375 93.21875 266.867188 99.144531 C 306.667969 106.933594 334.515625 129.375 350.402344 166.472656 C 353.535156 174.558594 354.769531 182.941406 354.097656 191.628906 C 358.5625 191.382812 362.996094 191.628906 367.40625 192.367188 C 371.5625 195.292969 375.503906 198.5 379.234375 201.984375 C 380.917969 215.726562 381.164062 229.539062 379.972656 243.417969 C 377.050781 253.425781 370.398438 259.589844 360.011719 261.914062 C 357.597656 262.648438 355.132812 262.890625 352.621094 262.65625 C 346.828125 291.652344 331.550781 314.34375 306.789062 330.722656 Z M 306.789062 330.722656 "/>
<path style=" stroke:none;fill-rule:evenodd;fill:rgb(60.392157%,62.745098%,64.705882%);fill-opacity:1;" d="M 265.390625 114.679688 C 251.96875 114.378906 238.660156 115.367188 225.46875 117.640625 C 228.390625 115.40625 231.839844 114.171875 235.820312 113.941406 C 245.941406 112.726562 255.796875 112.972656 265.390625 114.679688 Z M 265.390625 114.679688 "/>
<path style=" stroke:none;fill-rule:evenodd;fill:rgb(20.784314%,29.803922%,38.039216%);fill-opacity:1;" d="M 21.4375 86.566406 C 22.902344 86.3125 23.890625 86.804688 24.394531 88.046875 C 23.164062 138.105469 22.425781 188.417969 22.175781 238.980469 C 20.308594 242.097656 17.597656 243.578125 14.046875 243.417969 C 10.894531 243.339844 8.921875 241.859375 8.132812 238.980469 C 9.449219 239.882812 10.925781 240.375 12.566406 240.460938 C 16.523438 242.304688 19.234375 240.824219 20.699219 236.019531 C 21.4375 186.203125 21.683594 136.386719 21.4375 86.566406 Z M 21.4375 86.566406 "/>
<path style=" stroke:none;fill-rule:evenodd;fill:rgb(0.392157%,3.137255%,7.843137%);fill-opacity:1;" d="M 21.4375 86.566406 C 21.683594 136.386719 21.4375 186.203125 20.699219 236.019531 C 19.234375 240.824219 16.523438 242.304688 12.566406 240.460938 C 14.578125 239.710938 16.054688 238.230469 17.003906 236.019531 C 17.496094 224.183594 17.988281 212.34375 18.480469 200.507812 C 17 165 17 129.484375 18.480469 93.964844 C 17.003906 93.964844 15.523438 93.964844 14.046875 93.964844 C 13.8125 91.933594 14.058594 89.957031 14.785156 88.046875 C 15.277344 88.539062 15.769531 89.03125 16.261719 89.523438 C 16.757812 88.046875 17.25 86.566406 17.742188 85.085938 C 18.734375 86.199219 19.964844 86.691406 21.4375 86.566406 Z M 21.4375 86.566406 "/>
<path style=" stroke:none;fill-rule:evenodd;fill:rgb(73.72549%,81.568627%,87.45098%);fill-opacity:1;" d="M 219.554688 119.121094 C 215.078125 121.792969 212.367188 125.246094 211.425781 129.476562 C 208.960938 129.476562 206.496094 129.476562 204.03125 129.476562 C 200.765625 133.386719 200.027344 137.578125 201.816406 142.054688 C 195.085938 149.890625 190.898438 159.015625 189.246094 169.429688 C 187.105469 195.542969 186.609375 221.683594 187.769531 247.859375 C 189.226562 246.867188 190.953125 246.867188 192.945312 247.859375 C 190.734375 250.566406 189.746094 253.773438 189.988281 257.476562 C 190.824219 263.191406 191.808594 268.863281 192.945312 274.492188 C 191.597656 272.246094 190.367188 269.78125 189.246094 267.09375 C 188.324219 282.863281 192.511719 297.167969 201.816406 310.007812 C 201.503906 310.875 201.011719 311.613281 200.335938 312.226562 C 203.183594 312.851562 204.660156 314.578125 204.773438 317.40625 C 181.972656 302.871094 168.421875 282.15625 164.113281 255.257812 C 163.125 231.089844 163.125 206.917969 164.113281 182.75 C 167.457031 176.523438 168.195312 170.109375 166.332031 163.511719 C 165.882812 162.550781 165.390625 161.5625 164.851562 160.554688 C 167.109375 156.570312 169.082031 152.625 170.765625 148.714844 C 174.550781 149.160156 178 148.667969 181.117188 147.234375 C 191.394531 134.496094 204.207031 125.121094 219.554688 119.121094 Z M 219.554688 119.121094 "/>
<path style=" stroke:none;fill-rule:evenodd;fill:rgb(20%,27.058824%,32.156863%);fill-opacity:1;" d="M 150.066406 179.789062 C 150.476562 184.152344 149.984375 188.34375 148.589844 192.367188 C 143.59375 192.871094 138.664062 193.609375 133.804688 194.585938 C 133.96875 193.675781 134.460938 192.933594 135.28125 192.367188 C 139.3125 192.097656 143.253906 191.359375 147.109375 190.148438 C 147.949219 186.476562 148.933594 183.023438 150.066406 179.789062 Z M 150.066406 179.789062 "/>
<path style=" stroke:none;fill-rule:evenodd;fill:rgb(5.098039%,5.490196%,6.666667%);fill-opacity:1;" d="M 212.164062 194.585938 C 216.398438 193.929688 220.097656 194.914062 223.253906 197.546875 C 224.238281 207.414062 224.238281 217.277344 223.253906 227.140625 C 218.707031 230.929688 214.269531 230.929688 209.945312 227.140625 C 208.960938 217.769531 208.960938 208.398438 209.945312 199.027344 C 210.703125 197.507812 211.445312 196.027344 212.164062 194.585938 Z M 212.164062 194.585938 "/>
<path style=" stroke:none;fill-rule:evenodd;fill:rgb(1.960784%,2.352941%,3.529412%);fill-opacity:1;" d="M 290.523438 194.585938 C 290.941406 195.753906 291.683594 196.742188 292.742188 197.546875 C 293.480469 207.398438 293.726562 217.265625 293.480469 227.140625 C 288.972656 230.945312 284.535156 230.945312 280.175781 227.140625 C 279.789062 216.699219 280.28125 206.339844 281.652344 196.066406 C 284.429688 194.824219 287.386719 194.328125 290.523438 194.585938 Z M 290.523438 194.585938 "/>
<path style=" stroke:none;fill-rule:evenodd;fill:rgb(38.039216%,47.843137%,55.686275%);fill-opacity:1;" d="M 121.976562 207.90625 C 121.496094 219.03125 121.988281 229.882812 123.453125 240.460938 C 124.441406 243.910156 125.425781 247.367188 126.410156 250.816406 C 123.847656 248.464844 122.121094 245.503906 121.238281 241.9375 C 120.019531 230.332031 120.265625 218.988281 121.976562 207.90625 Z M 121.976562 207.90625 "/>
<path style=" stroke:none;fill-rule:evenodd;fill:rgb(16.078431%,23.529412%,29.411765%);fill-opacity:1;" d="M 126.410156 200.507812 C 126.46875 202.363281 125.730469 203.84375 124.195312 204.945312 C 123.453125 216.773438 123.207031 228.609375 123.453125 240.460938 C 121.988281 229.882812 121.496094 219.03125 121.976562 207.90625 C 121.640625 204.304688 123.117188 201.839844 126.410156 200.507812 Z M 126.410156 200.507812 "/>
<path style=" stroke:none;fill-rule:evenodd;fill:rgb(36.078431%,38.039216%,40.392157%);fill-opacity:1;" d="M 281.652344 196.066406 C 280.28125 206.339844 279.789062 216.699219 280.175781 227.140625 C 278.46875 217.542969 278.222656 207.675781 279.433594 197.546875 C 280 196.722656 280.742188 196.230469 281.652344 196.066406 Z M 281.652344 196.066406 "/>
<path style=" stroke:none;fill-rule:evenodd;fill:rgb(41.568627%,43.529412%,45.490196%);fill-opacity:1;" d="M 290.523438 194.585938 C 291.996094 194.460938 293.226562 194.953125 294.21875 196.066406 C 295.433594 206.691406 295.1875 217.046875 293.480469 227.140625 C 293.726562 217.265625 293.480469 207.398438 292.742188 197.546875 C 291.683594 196.742188 290.941406 195.753906 290.523438 194.585938 Z M 290.523438 194.585938 "/>
<path style=" stroke:none;fill-rule:evenodd;fill:rgb(68.627451%,74.509804%,79.215686%);fill-opacity:1;" d="M 138.238281 207.90625 C 141.195312 207.90625 144.152344 207.90625 147.109375 207.90625 C 147.109375 220.730469 147.109375 233.554688 147.109375 246.378906 C 142.464844 245.9375 139.261719 243.46875 137.5 238.980469 C 136.324219 228.503906 136.570312 218.144531 138.238281 207.90625 Z M 138.238281 207.90625 "/>
<path style=" stroke:none;fill-rule:evenodd;fill:rgb(19.215686%,24.705882%,30.196078%);fill-opacity:1;" d="M 481.25 194.585938 C 482.722656 225.898438 483.21875 257.464844 482.726562 289.292969 C 480.820312 289.640625 479.339844 289.148438 478.292969 287.8125 C 481.234375 257.269531 482.21875 226.195312 481.25 194.585938 Z M 481.25 194.585938 "/>
<path style=" stroke:none;fill-rule:evenodd;fill:rgb(49.019608%,53.72549%,57.254902%);fill-opacity:1;" d="M 357.054688 209.382812 C 356.117188 221.820312 357.105469 233.65625 360.011719 244.898438 C 358.964844 246.238281 357.488281 246.730469 355.578125 246.378906 C 355.097656 233.777344 355.589844 221.445312 357.054688 209.382812 Z M 357.054688 209.382812 "/>
<path style=" stroke:none;fill-rule:evenodd;fill:rgb(71.372549%,78.039216%,82.352941%);fill-opacity:1;" d="M 360.011719 244.898438 C 357.105469 233.65625 356.117188 221.820312 357.054688 209.382812 C 359.605469 207.449219 362.316406 207.449219 365.1875 209.382812 C 366.175781 219.25 366.175781 229.113281 365.1875 238.980469 C 364.210938 241.679688 362.488281 243.652344 360.011719 244.898438 Z M 360.011719 244.898438 "/>
<path style=" stroke:none;fill-rule:evenodd;fill:rgb(69.803922%,71.764706%,73.333333%);fill-opacity:1;" d="M 192.945312 247.859375 C 231.625 246.136719 270.558594 245.890625 309.746094 247.117188 C 310.566406 247.683594 311.058594 248.425781 311.222656 249.339844 C 271.863281 247.886719 232.4375 247.390625 192.945312 247.859375 Z M 192.945312 247.859375 "/>
<path style=" stroke:none;fill-rule:evenodd;fill:rgb(4.313725%,4.705882%,5.098039%);fill-opacity:1;" d="M 192.945312 247.859375 C 232.4375 247.390625 271.863281 247.886719 311.222656 249.339844 C 313.796875 253.25 314.785156 257.691406 314.179688 262.65625 C 298.566406 308.789062 267.519531 324.082031 221.035156 308.527344 C 208.796875 299.269531 199.429688 287.921875 192.945312 274.492188 C 191.808594 268.863281 190.824219 263.191406 189.988281 257.476562 C 189.746094 253.773438 190.734375 250.566406 192.945312 247.859375 Z M 192.945312 247.859375 "/>
<path style=" stroke:none;fill-rule:evenodd;fill:rgb(62.352941%,61.960784%,62.352941%);fill-opacity:1;" d="M 296.4375 264.136719 C 266.335938 263.167969 236.765625 264.152344 207.726562 267.09375 C 206.390625 266.046875 205.898438 264.566406 206.25 262.65625 C 236.570312 262.167969 266.632812 262.660156 296.4375 264.136719 Z M 296.4375 264.136719 "/>
<path style=" stroke:none;fill-rule:evenodd;fill:rgb(98.039216%,98.039216%,98.039216%);fill-opacity:1;" d="M 296.4375 264.136719 C 296.4375 265.121094 296.4375 266.109375 296.4375 267.09375 C 293.5 272.410156 290.542969 277.835938 287.566406 283.371094 C 269.359375 301.390625 248.660156 304.597656 225.46875 292.992188 C 216.417969 286.445312 210.503906 277.8125 207.726562 267.09375 C 236.765625 264.152344 266.335938 263.167969 296.4375 264.136719 Z M 296.4375 264.136719 "/>
<path style=" stroke:none;fill-rule:evenodd;fill:rgb(12.156863%,18.431373%,23.921569%);fill-opacity:1;" d="M 462.03125 280.414062 C 443.898438 277.085938 425.664062 276.59375 407.324219 278.933594 C 408.453125 277.796875 409.933594 277.058594 411.761719 276.714844 C 425.066406 275.726562 438.375 275.726562 451.679688 276.714844 C 455.53125 277.289062 458.980469 278.523438 462.03125 280.414062 Z M 462.03125 280.414062 "/>
<path style=" stroke:none;fill-rule:evenodd;fill:rgb(89.019608%,56.862745%,71.764706%);fill-opacity:1;" d="M 34.746094 275.972656 C 37.605469 276.933594 40.5625 277.429688 43.617188 277.453125 C 53.511719 280.433594 62.382812 285.367188 70.226562 292.25 C 70.007812 293.808594 70.253906 295.289062 70.96875 296.691406 C 74.984375 301.675781 79.914062 305.621094 85.753906 308.527344 C 86.523438 312.960938 88.742188 316.414062 92.40625 318.886719 C 93.550781 322.308594 94.535156 325.761719 95.363281 329.246094 C 96.582031 330.554688 98.0625 331.046875 99.796875 330.722656 C 101.308594 338.738281 103.277344 346.628906 105.710938 354.398438 C 105.53125 356.507812 105.039062 358.480469 104.234375 360.320312 C 81.070312 360.320312 57.90625 360.320312 34.746094 360.320312 C 34.746094 332.203125 34.746094 304.089844 34.746094 275.972656 Z M 34.746094 275.972656 "/>
<path style=" stroke:none;fill-rule:evenodd;fill:rgb(25.490196%,34.509804%,17.254902%);fill-opacity:1;" d="M 448.722656 292.25 C 436.886719 292.003906 425.058594 292.25 413.238281 292.992188 C 409.019531 295.105469 404.585938 296.339844 399.933594 296.691406 C 405.316406 293.492188 411.226562 291.269531 417.675781 290.03125 C 428.378906 288.722656 438.730469 289.460938 448.722656 292.25 Z M 448.722656 292.25 "/>
<path style=" stroke:none;fill-rule:evenodd;fill:rgb(45.490196%,21.568627%,31.372549%);fill-opacity:1;" d="M 43.617188 277.453125 C 40.5625 277.429688 37.605469 276.933594 34.746094 275.972656 C 30.90625 274.839844 26.964844 274.347656 22.917969 274.492188 C 22.917969 303.101562 22.917969 331.710938 22.917969 360.320312 C 26.859375 360.320312 30.800781 360.320312 34.746094 360.320312 C 34.746094 360.8125 34.746094 361.304688 34.746094 361.800781 C 30.308594 361.800781 25.875 361.800781 21.4375 361.800781 C 21.4375 332.203125 21.4375 302.609375 21.4375 273.015625 C 29.414062 272.457031 36.804688 273.9375 43.617188 277.453125 Z M 43.617188 277.453125 "/>
<path style=" stroke:none;fill-rule:evenodd;fill:rgb(81.960784%,38.431373%,57.647059%);fill-opacity:1;" d="M 34.746094 275.972656 C 34.746094 304.089844 34.746094 332.203125 34.746094 360.320312 C 30.800781 360.320312 26.859375 360.320312 22.917969 360.320312 C 22.917969 331.710938 22.917969 303.101562 22.917969 274.492188 C 26.964844 274.347656 30.90625 274.839844 34.746094 275.972656 Z M 34.746094 275.972656 "/>
<path style=" stroke:none;fill-rule:evenodd;fill:rgb(85.490196%,34.901961%,56.862745%);fill-opacity:1;" d="M 25.875 278.933594 C 28.335938 278.933594 30.800781 278.933594 33.265625 278.933594 C 33.265625 305.570312 33.265625 332.203125 33.265625 358.839844 C 30.835938 359.15625 28.617188 358.660156 26.613281 357.359375 C 25.875 331.222656 25.628906 305.082031 25.875 278.933594 Z M 25.875 278.933594 "/>
<path style=" stroke:none;fill-rule:evenodd;fill:rgb(39.607843%,49.411765%,30.196078%);fill-opacity:1;" d="M 448.722656 292.25 C 453.886719 292.171875 458.320312 293.652344 462.03125 296.691406 C 456.789062 297.234375 452.355469 295.753906 448.722656 292.25 Z M 448.722656 292.25 "/>
<path style=" stroke:none;fill-rule:evenodd;fill:rgb(60.392157%,78.039216%,43.529412%);fill-opacity:1;" d="M 448.722656 292.25 C 452.355469 295.753906 456.789062 297.234375 462.03125 296.691406 C 468.714844 297.84375 474.136719 301.046875 478.292969 306.308594 C 481.707031 307.042969 485.15625 307.289062 488.640625 307.046875 C 494.605469 308.578125 497.070312 312.523438 496.035156 318.886719 C 492.09375 321.847656 488.640625 325.296875 485.683594 329.246094 C 483.332031 332.402344 480.375 334.867188 476.816406 336.644531 C 476.59375 335.085938 476.839844 333.605469 477.554688 332.203125 C 483.136719 326.878906 487.820312 320.960938 491.597656 314.445312 C 489.316406 313.039062 486.851562 312.546875 484.207031 312.96875 C 483.085938 319.507812 479.144531 322.960938 472.378906 323.324219 C 472.378906 321.351562 472.378906 319.378906 472.378906 317.40625 C 473.859375 317.40625 475.335938 317.40625 476.816406 317.40625 C 475.820312 312.753906 474.34375 308.316406 472.378906 304.089844 C 466.261719 306.40625 459.855469 307.144531 453.160156 306.308594 C 455.964844 304.976562 458.429688 303.25 460.550781 301.128906 C 456.953125 298.828125 453.011719 297.84375 448.722656 298.167969 C 448.957031 300.203125 448.707031 302.175781 447.984375 304.089844 C 444.632812 301.933594 440.9375 300.699219 436.894531 300.390625 C 439.644531 299.378906 442.109375 297.898438 444.289062 295.949219 C 428.667969 294.144531 413.390625 295.378906 398.453125 299.648438 C 398.945312 298.664062 399.441406 297.675781 399.933594 296.691406 C 404.585938 296.339844 409.019531 295.105469 413.238281 292.992188 C 425.058594 292.25 436.886719 292.003906 448.722656 292.25 Z M 448.722656 292.25 "/>
<path style=" stroke:none;fill-rule:evenodd;fill:rgb(83.921569%,87.45098%,90.588235%);fill-opacity:1;" d="M 339.316406 188.667969 C 341.03125 210.117188 341.277344 231.820312 340.054688 253.777344 C 338.335938 264.359375 335.132812 274.46875 330.445312 284.113281 C 314.789062 311.15625 291.628906 326.203125 260.953125 329.246094 C 244.742188 331.101562 229.464844 328.390625 215.121094 321.105469 C 216.105469 320.613281 217.09375 320.117188 218.078125 319.625 C 213.578125 319.089844 209.140625 318.347656 204.773438 317.40625 C 204.660156 314.578125 203.183594 312.851562 200.335938 312.226562 C 201.011719 311.613281 201.503906 310.875 201.816406 310.007812 C 192.511719 297.167969 188.324219 282.863281 189.246094 267.09375 C 190.367188 269.78125 191.597656 272.246094 192.945312 274.492188 C 199.429688 287.921875 208.796875 299.269531 221.035156 308.527344 C 267.519531 324.082031 298.566406 308.789062 314.179688 262.65625 C 313.945312 265.167969 314.1875 267.636719 314.917969 270.054688 C 315.90625 266.109375 316.890625 262.164062 317.875 258.214844 C 318.367188 261.667969 318.863281 265.121094 319.355469 268.574219 C 321.007812 266.429688 321.992188 263.964844 322.3125 261.175781 C 325.132812 265.367188 326.363281 264.875 326.007812 259.695312 C 329.820312 259.078125 333.023438 260.066406 335.617188 262.65625 C 336.109375 255.257812 336.605469 247.859375 337.097656 240.460938 C 337.589844 242.433594 338.082031 244.40625 338.574219 246.378906 C 339.316406 227.148438 339.5625 207.910156 339.316406 188.667969 Z M 339.316406 188.667969 "/>
<path style=" stroke:none;fill-rule:evenodd;fill:rgb(34.901961%,34.901961%,34.509804%);fill-opacity:1;" d="M 296.4375 267.09375 C 295.664062 273.988281 292.707031 279.414062 287.566406 283.371094 C 290.542969 277.835938 293.5 272.410156 296.4375 267.09375 Z M 296.4375 267.09375 "/>
<path style=" stroke:none;fill-rule:evenodd;fill:rgb(90.588235%,91.764706%,93.333333%);fill-opacity:1;" d="M 497.511719 83.605469 C 501.949219 83.605469 506.382812 83.605469 510.820312 83.605469 C 510.574219 148.714844 510.820312 213.824219 511.558594 278.933594 C 512.125 279.753906 512.863281 280.25 513.777344 280.414062 C 518.5 282.5625 522.933594 282.070312 527.082031 278.933594 C 526.394531 283.070312 523.929688 285.046875 519.691406 284.851562 C 519.496094 289.394531 519.988281 293.835938 521.167969 298.167969 C 519.140625 297.9375 517.167969 298.183594 515.253906 298.910156 C 511.5 303.90625 507.0625 308.097656 501.949219 311.488281 C 501.140625 308.480469 499.167969 307 496.035156 307.046875 C 496.035156 305.074219 496.035156 303.101562 496.035156 301.128906 C 497.507812 228.726562 498 156.21875 497.511719 83.605469 Z M 497.511719 83.605469 "/>
<path style=" stroke:none;fill-rule:evenodd;fill:rgb(3.921569%,4.705882%,3.921569%);fill-opacity:1;" d="M 521.167969 298.167969 C 524.230469 299.757812 526.203125 302.222656 527.082031 305.570312 C 525.085938 309.035156 523.113281 312.492188 521.167969 315.925781 C 518.011719 317.363281 515.546875 319.582031 513.777344 322.585938 C 515.625 326.078125 517.597656 329.28125 519.691406 332.203125 C 521.445312 339.214844 523.660156 346.121094 526.34375 352.921875 C 527.082031 362.28125 527.328125 371.652344 527.082031 381.035156 C 524.875 388.71875 522.902344 396.609375 521.167969 404.710938 C 519.957031 408.132812 518.726562 411.585938 517.472656 415.070312 C 512.90625 420.773438 508.71875 426.691406 504.90625 432.828125 C 501.949219 434.800781 499.484375 437.265625 497.511719 440.226562 C 474.128906 461.421875 446.527344 470.054688 414.71875 466.121094 C 386.996094 461.277344 366.296875 446.726562 352.621094 422.46875 C 354.46875 422.355469 355.699219 421.367188 356.316406 419.507812 C 357.941406 423.273438 359.664062 423.273438 361.492188 419.507812 C 354.992188 409.699219 352.035156 398.847656 352.621094 386.953125 C 353.113281 386.953125 353.605469 386.953125 354.097656 386.953125 C 353.859375 389.953125 354.105469 392.914062 354.839844 395.832031 C 357.636719 400.445312 359.609375 405.378906 360.753906 410.628906 C 364.628906 415.992188 368.816406 420.921875 373.320312 425.429688 C 373.8125 426.414062 374.304688 427.402344 374.796875 428.386719 C 381.019531 436.070312 388.90625 441.496094 398.453125 444.664062 C 399.28125 446.574219 400.757812 447.804688 402.890625 448.363281 C 417.234375 452.183594 431.527344 452.921875 445.765625 450.585938 C 446.753906 450.585938 447.738281 450.585938 448.722656 450.585938 C 456.355469 450.554688 462.765625 448.089844 467.945312 443.183594 C 470.203125 443.292969 471.679688 442.304688 472.378906 440.226562 C 477.746094 439.929688 481.6875 437.460938 484.207031 432.828125 C 486.179688 430.855469 488.148438 428.878906 490.121094 426.90625 C 494.175781 424.335938 497.132812 420.882812 498.992188 416.550781 C 503.746094 407.027344 507.691406 397.164062 510.820312 386.953125 C 512.769531 375.871094 512.769531 365.019531 510.820312 354.398438 C 510.148438 348.195312 508.425781 342.277344 505.644531 336.644531 C 504.40625 334.414062 502.683594 333.671875 500.46875 334.421875 C 480.914062 353.253906 462.183594 372.738281 444.289062 392.875 C 443.300781 393.367188 442.316406 393.859375 441.332031 394.355469 C 438.246094 395.960938 436.273438 398.425781 435.417969 401.753906 C 431.984375 403.699219 428.53125 405.671875 425.066406 407.671875 C 421.71875 406.292969 418.761719 404.320312 416.195312 401.753906 C 415.703125 401.753906 415.210938 401.753906 414.71875 401.753906 C 412.359375 396.921875 408.910156 392.976562 404.367188 389.914062 C 402.890625 389.421875 401.902344 388.433594 401.410156 386.953125 C 398.945312 383.503906 395.988281 380.542969 392.539062 378.078125 C 392.046875 378.078125 391.554688 378.078125 391.0625 378.078125 C 388.207031 372.503906 384.019531 368.0625 378.496094 364.757812 C 376.71875 361.539062 375.976562 358.082031 376.277344 354.398438 C 376.769531 354.398438 377.261719 354.398438 377.753906 354.398438 C 382.46875 352.382812 386.902344 352.878906 391.0625 355.878906 C 395.1875 360.351562 399.132812 364.789062 402.890625 369.199219 C 405.355469 372.648438 408.3125 375.609375 411.761719 378.078125 C 415.335938 380.902344 418.785156 384.109375 422.109375 387.695312 C 423.511719 388.410156 424.992188 388.65625 426.546875 388.433594 C 427.636719 388.628906 428.625 388.382812 429.503906 387.695312 C 435.746094 382.140625 441.167969 375.972656 445.765625 369.199219 C 452.238281 365.679688 457.164062 360.75 460.550781 354.398438 C 466.328125 348.800781 471.75 342.878906 476.816406 336.644531 C 480.375 334.867188 483.332031 332.402344 485.683594 329.246094 C 490.679688 327.207031 494.128906 323.753906 496.035156 318.886719 C 497.960938 316.457031 499.933594 313.988281 501.949219 311.488281 C 507.0625 308.097656 511.5 303.90625 515.253906 298.910156 C 517.167969 298.183594 519.140625 297.9375 521.167969 298.167969 Z M 521.167969 298.167969 "/>
<path style=" stroke:none;fill-rule:evenodd;fill:rgb(60.784314%,81.568627%,40.784314%);fill-opacity:1;" d="M 476.816406 336.644531 C 469.640625 339.984375 463.234375 344.425781 457.59375 349.960938 C 456.859375 353.164062 455.132812 355.628906 452.417969 357.359375 C 451.964844 356.164062 451.226562 355.175781 450.203125 354.398438 C 448.773438 357.207031 448.28125 360.164062 448.722656 363.277344 C 446.984375 362.953125 445.507812 363.449219 444.289062 364.757812 C 440.796875 368.25 437.347656 371.703125 433.9375 375.117188 C 431.792969 377.113281 430.808594 379.578125 430.980469 382.515625 C 429.503906 384.488281 428.023438 386.460938 426.546875 388.433594 C 424.992188 388.65625 423.511719 388.410156 422.109375 387.695312 C 418.785156 384.109375 415.335938 380.902344 411.761719 378.078125 C 410.28125 373.636719 407.324219 370.675781 402.890625 369.199219 C 399.132812 364.789062 395.1875 360.351562 391.0625 355.878906 C 389.566406 352.363281 386.855469 350.882812 382.929688 351.441406 C 380.445312 351.601562 378.71875 352.585938 377.753906 354.398438 C 377.261719 354.398438 376.769531 354.398438 376.277344 354.398438 C 374.796875 354.398438 373.320312 354.398438 371.839844 354.398438 C 370.847656 359.558594 372.328125 363.503906 376.277344 366.238281 C 373.320312 366.238281 370.363281 366.238281 367.40625 366.238281 C 367.65625 368.195312 367.164062 369.921875 365.925781 371.417969 C 367.765625 373.125 369.242188 375.097656 370.363281 377.335938 C 371.765625 378.050781 373.242188 378.296875 374.796875 378.078125 C 375.785156 381.527344 376.769531 384.980469 377.753906 388.433594 C 381.003906 388.53125 383.960938 389.519531 386.625 391.394531 C 389.269531 394.464844 391.734375 397.671875 394.019531 401.011719 C 396.433594 401.742188 398.898438 401.988281 401.410156 401.753906 C 403.738281 406.421875 406.203125 411.105469 408.804688 415.808594 C 412.476562 417.773438 416.171875 419.5 419.890625 420.988281 C 422.40625 421.15625 424.128906 420.171875 425.066406 418.03125 C 427.578125 418.265625 430.042969 418.019531 432.460938 417.289062 C 435.128906 413.734375 438.578125 411.265625 442.808594 409.890625 C 445.804688 397.027344 453.199219 387.65625 464.988281 381.777344 C 470.925781 371.882812 478.8125 363.992188 488.640625 358.101562 C 493.394531 352.1875 498.320312 346.511719 503.425781 341.082031 C 504.414062 341.082031 504.90625 341.574219 504.90625 342.5625 C 507.359375 354.234375 508.347656 366.074219 507.863281 378.078125 C 505.890625 378.078125 503.917969 378.078125 501.949219 378.078125 C 500.605469 366.488281 498.636719 366.734375 496.035156 378.816406 C 497.472656 382.933594 498.703125 387.125 499.730469 391.394531 C 500.640625 389.003906 502.117188 387.03125 504.167969 385.476562 C 503.421875 392.914062 501.945312 400.3125 499.730469 407.671875 C 495.46875 413.925781 491.28125 420.339844 487.164062 426.90625 C 480.835938 429.316406 475.90625 433.261719 472.378906 438.746094 C 472.378906 439.238281 472.378906 439.734375 472.378906 440.226562 C 471.679688 442.304688 470.203125 443.292969 467.945312 443.183594 C 461.308594 445.394531 454.902344 447.859375 448.722656 450.585938 C 447.738281 450.585938 446.753906 450.585938 445.765625 450.585938 C 430.347656 451.78125 415.5625 449.808594 401.410156 444.664062 C 397.066406 441 392.140625 438.039062 386.625 435.785156 C 383.542969 432.039062 379.597656 429.574219 374.796875 428.386719 C 374.304688 427.402344 373.8125 426.414062 373.320312 425.429688 C 369.933594 420.097656 367.714844 414.179688 366.667969 407.671875 C 365.1875 406.683594 363.710938 405.699219 362.230469 404.710938 C 361.71875 400.160156 360.734375 395.722656 359.273438 391.394531 C 358.152344 389.082031 356.425781 387.601562 354.097656 386.953125 C 353.609375 374.585938 354.101562 362.253906 355.578125 349.960938 C 356.445312 349.652344 357.183594 349.15625 357.796875 348.480469 C 358.378906 344.476562 359.117188 340.53125 360.011719 336.644531 C 361.484375 336.769531 362.71875 336.277344 363.710938 335.164062 C 366.085938 330.898438 368.058594 326.460938 369.625 321.847656 C 376.027344 318.148438 381.199219 313.21875 385.148438 307.046875 C 389.011719 303.765625 393.445312 301.300781 398.453125 299.648438 C 413.390625 295.378906 428.667969 294.144531 444.289062 295.949219 C 442.109375 297.898438 439.644531 299.378906 436.894531 300.390625 C 440.9375 300.699219 444.632812 301.933594 447.984375 304.089844 C 448.707031 302.175781 448.957031 300.203125 448.722656 298.167969 C 453.011719 297.84375 456.953125 298.828125 460.550781 301.128906 C 458.429688 303.25 455.964844 304.976562 453.160156 306.308594 C 459.855469 307.144531 466.261719 306.40625 472.378906 304.089844 C 474.34375 308.316406 475.820312 312.753906 476.816406 317.40625 C 475.335938 317.40625 473.859375 317.40625 472.378906 317.40625 C 472.378906 319.378906 472.378906 321.351562 472.378906 323.324219 C 479.144531 322.960938 483.085938 319.507812 484.207031 312.96875 C 486.851562 312.546875 489.316406 313.039062 491.597656 314.445312 C 487.820312 320.960938 483.136719 326.878906 477.554688 332.203125 C 476.839844 333.605469 476.59375 335.085938 476.816406 336.644531 Z M 476.816406 336.644531 "/>
<path style=" stroke:none;fill-rule:evenodd;fill:rgb(30.588235%,41.176471%,21.960784%);fill-opacity:1;" d="M 399.933594 296.691406 C 399.441406 297.675781 398.945312 298.664062 398.453125 299.648438 C 393.445312 301.300781 389.011719 303.765625 385.148438 307.046875 C 384.160156 307.046875 383.175781 307.046875 382.191406 307.046875 C 387.171875 302.085938 393.085938 298.632812 399.933594 296.691406 Z M 399.933594 296.691406 "/>
<path style=" stroke:none;fill-rule:evenodd;fill:rgb(79.215686%,86.27451%,76.862745%);fill-opacity:1;" d="M 494.554688 301.128906 C 495.046875 301.128906 495.542969 301.128906 496.035156 301.128906 C 496.035156 303.101562 496.035156 305.074219 496.035156 307.046875 C 499.167969 307 501.140625 308.480469 501.949219 311.488281 C 499.933594 313.988281 497.960938 316.457031 496.035156 318.886719 C 497.070312 312.523438 494.605469 308.578125 488.640625 307.046875 C 490.121094 304.582031 492.09375 302.609375 494.554688 301.128906 Z M 494.554688 301.128906 "/>
<path style=" stroke:none;fill-rule:evenodd;fill:rgb(77.254902%,54.509804%,65.098039%);fill-opacity:1;" d="M 70.226562 292.25 C 92.214844 307.335938 105.027344 328.054688 108.667969 354.398438 C 108.667969 356.371094 108.667969 358.347656 108.667969 360.320312 C 107.191406 360.320312 105.710938 360.320312 104.234375 360.320312 C 105.039062 358.480469 105.53125 356.507812 105.710938 354.398438 C 103.277344 346.628906 101.308594 338.738281 99.796875 330.722656 C 98.0625 331.046875 96.582031 330.554688 95.363281 329.246094 C 94.535156 325.761719 93.550781 322.308594 92.40625 318.886719 C 88.742188 316.414062 86.523438 312.960938 85.753906 308.527344 C 79.914062 305.621094 74.984375 301.675781 70.96875 296.691406 C 70.253906 295.289062 70.007812 293.808594 70.226562 292.25 Z M 70.226562 292.25 "/>
<path style=" stroke:none;fill-rule:evenodd;fill:rgb(52.156863%,66.27451%,38.823529%);fill-opacity:1;" d="M 382.191406 307.046875 C 383.175781 307.046875 384.160156 307.046875 385.148438 307.046875 C 381.199219 313.21875 376.027344 318.148438 369.625 321.847656 C 368.058594 326.460938 366.085938 330.898438 363.710938 335.164062 C 362.71875 336.277344 361.484375 336.769531 360.011719 336.644531 C 359.824219 333.453125 360.5625 330.496094 362.230469 327.765625 C 367.617188 319.664062 374.269531 312.757812 382.191406 307.046875 Z M 382.191406 307.046875 "/>
<path style=" stroke:none;fill-rule:evenodd;fill:rgb(64.313725%,66.666667%,67.843137%);fill-opacity:1;" d="M 204.773438 317.40625 C 209.140625 318.347656 213.578125 319.089844 218.078125 319.625 C 217.09375 320.117188 216.105469 320.613281 215.121094 321.105469 C 229.464844 328.390625 244.742188 331.101562 260.953125 329.246094 C 252.351562 330.949219 243.480469 331.195312 234.339844 329.984375 C 223.125 328.476562 213.265625 324.285156 204.773438 317.40625 Z M 204.773438 317.40625 "/>
<path style=" stroke:none;fill-rule:evenodd;fill:rgb(77.647059%,77.254902%,76.470588%);fill-opacity:1;" d="M 521.167969 315.925781 C 520.488281 321.359375 519.992188 326.785156 519.691406 332.203125 C 517.597656 329.28125 515.625 326.078125 513.777344 322.585938 C 515.546875 319.582031 518.011719 317.363281 521.167969 315.925781 Z M 521.167969 315.925781 "/>
<path style=" stroke:none;fill-rule:evenodd;fill:rgb(13.72549%,21.568627%,9.411765%);fill-opacity:1;" d="M 496.035156 318.886719 C 494.128906 323.753906 490.679688 327.207031 485.683594 329.246094 C 488.640625 325.296875 492.09375 321.847656 496.035156 318.886719 Z M 496.035156 318.886719 "/>
<path style=" stroke:none;fill-rule:evenodd;fill:rgb(48.235294%,61.176471%,70.196078%);fill-opacity:1;" d="M 150.066406 270.054688 C 154.972656 283.164062 161.625 295.496094 170.027344 307.046875 C 209.339844 349.699219 254.929688 357.589844 306.789062 330.722656 C 307.007812 332.28125 306.761719 333.761719 306.046875 335.164062 C 282.605469 349.417969 257.226562 353.609375 229.90625 347.742188 C 224.070312 346.035156 218.15625 344.800781 212.164062 344.042969 C 212.164062 342.5625 212.164062 341.082031 212.164062 339.601562 C 206.757812 337.914062 201.335938 337.664062 195.902344 338.863281 C 194.332031 336.941406 192.609375 335.214844 190.726562 333.683594 C 186.34375 333.117188 182.402344 331.636719 178.898438 329.246094 C 178.113281 324.050781 176.632812 319.121094 174.460938 314.445312 C 171.792969 311.753906 168.589844 310.027344 164.851562 309.269531 C 165.34375 308.773438 165.839844 308.28125 166.332031 307.789062 C 156.175781 298.601562 150.753906 286.027344 150.066406 270.054688 Z M 150.066406 270.054688 "/>
<path style=" stroke:none;fill-rule:evenodd;fill:rgb(22.352941%,33.333333%,13.72549%);fill-opacity:1;" d="M 391.0625 355.878906 C 386.902344 352.878906 382.46875 352.382812 377.753906 354.398438 C 378.71875 352.585938 380.445312 351.601562 382.929688 351.441406 C 386.855469 350.882812 389.566406 352.363281 391.0625 355.878906 Z M 391.0625 355.878906 "/>
<path style=" stroke:none;fill-rule:evenodd;fill:rgb(60.784314%,76.078431%,45.098039%);fill-opacity:1;" d="M 476.816406 336.644531 C 471.75 342.878906 466.328125 348.800781 460.550781 354.398438 C 455.128906 358.839844 450.203125 363.773438 445.765625 369.199219 C 440.800781 373.679688 435.871094 378.121094 430.980469 382.515625 C 430.808594 379.578125 431.792969 377.113281 433.9375 375.117188 C 437.347656 371.703125 440.796875 368.25 444.289062 364.757812 C 445.507812 363.449219 446.984375 362.953125 448.722656 363.277344 C 448.28125 360.164062 448.773438 357.207031 450.203125 354.398438 C 451.226562 355.175781 451.964844 356.164062 452.417969 357.359375 C 455.132812 355.628906 456.859375 353.164062 457.59375 349.960938 C 463.234375 344.425781 469.640625 339.984375 476.816406 336.644531 Z M 476.816406 336.644531 "/>
<path style=" stroke:none;fill-rule:evenodd;fill:rgb(63.137255%,43.921569%,52.54902%);fill-opacity:1;" d="M 108.667969 354.398438 C 110.074219 356.5 110.570312 358.964844 110.148438 361.800781 C 85.011719 361.800781 59.878906 361.800781 34.746094 361.800781 C 34.746094 361.304688 34.746094 360.8125 34.746094 360.320312 C 57.90625 360.320312 81.070312 360.320312 104.234375 360.320312 C 105.710938 360.320312 107.191406 360.320312 108.667969 360.320312 C 108.667969 358.347656 108.667969 356.371094 108.667969 354.398438 Z M 108.667969 354.398438 "/>
<path style=" stroke:none;fill-rule:evenodd;fill:rgb(41.176471%,48.235294%,55.686275%);fill-opacity:1;" d="M 124.933594 357.359375 C 193.113281 360.300781 261.617188 361.285156 330.445312 360.320312 C 262.191406 361.796875 193.6875 362.289062 124.933594 361.800781 C 124.933594 360.320312 124.933594 358.839844 124.933594 357.359375 Z M 124.933594 357.359375 "/>
<path style=" stroke:none;fill-rule:evenodd;fill:rgb(10.196078%,14.509804%,20%);fill-opacity:1;" d="M 342.273438 336.644531 C 341.613281 344.5625 340.625 352.453125 339.316406 360.320312 C 338.121094 360.773438 337.132812 361.515625 336.359375 362.539062 C 265.632812 363.769531 195.160156 363.523438 124.933594 361.800781 C 193.6875 362.289062 262.191406 361.796875 330.445312 360.320312 C 332.414062 360.320312 334.386719 360.320312 336.359375 360.320312 C 336.046875 351.691406 338.019531 343.800781 342.273438 336.644531 Z M 342.273438 336.644531 "/>
<path style=" stroke:none;fill-rule:evenodd;fill:rgb(42.352941%,56.862745%,28.627451%);fill-opacity:1;" d="M 376.277344 354.398438 C 375.976562 358.082031 376.71875 361.539062 378.496094 364.757812 C 384.019531 368.0625 388.207031 372.503906 391.0625 378.078125 C 387.902344 374.433594 383.960938 371.964844 379.234375 370.675781 C 377.867188 369.410156 376.878906 367.929688 376.277344 366.238281 C 372.328125 363.503906 370.847656 359.558594 371.839844 354.398438 C 373.320312 354.398438 374.796875 354.398438 376.277344 354.398438 Z M 376.277344 354.398438 "/>
<path style=" stroke:none;fill-rule:evenodd;fill:rgb(14.117647%,21.960784%,9.019608%);fill-opacity:1;" d="M 460.550781 354.398438 C 457.164062 360.75 452.238281 365.679688 445.765625 369.199219 C 450.203125 363.773438 455.128906 358.839844 460.550781 354.398438 Z M 460.550781 354.398438 "/>
<path style=" stroke:none;fill-rule:evenodd;fill:rgb(50.196078%,61.568627%,37.254902%);fill-opacity:1;" d="M 360.011719 336.644531 C 359.117188 340.53125 358.378906 344.476562 357.796875 348.480469 C 357.183594 349.15625 356.445312 349.652344 355.578125 349.960938 C 354.101562 362.253906 353.609375 374.585938 354.097656 386.953125 C 353.605469 386.953125 353.113281 386.953125 352.621094 386.953125 C 350.914062 376.367188 350.667969 365.515625 351.882812 354.398438 C 352.800781 347.363281 355.511719 341.445312 360.011719 336.644531 Z M 360.011719 336.644531 "/>
<path style=" stroke:none;fill-rule:evenodd;fill:rgb(22.745098%,31.764706%,14.117647%);fill-opacity:1;" d="M 402.890625 369.199219 C 407.324219 370.675781 410.28125 373.636719 411.761719 378.078125 C 408.3125 375.609375 405.355469 372.648438 402.890625 369.199219 Z M 402.890625 369.199219 "/>
<path style=" stroke:none;fill-rule:evenodd;fill:rgb(27.45098%,39.607843%,16.078431%);fill-opacity:1;" d="M 510.820312 354.398438 C 509.132812 350.324219 507.160156 346.378906 504.90625 342.5625 C 504.90625 341.574219 504.414062 341.082031 503.425781 341.082031 C 501.800781 339.457031 499.828125 339.210938 497.511719 340.34375 C 480.007812 358.113281 462.265625 375.621094 444.289062 392.875 C 462.183594 372.738281 480.914062 353.253906 500.46875 334.421875 C 502.683594 333.671875 504.40625 334.414062 505.644531 336.644531 C 508.425781 342.277344 510.148438 348.195312 510.820312 354.398438 Z M 510.820312 354.398438 "/>
<path style=" stroke:none;fill-rule:evenodd;fill:rgb(17.254902%,25.490196%,10.588235%);fill-opacity:1;" d="M 445.765625 369.199219 C 441.167969 375.972656 435.746094 382.140625 429.503906 387.695312 C 428.625 388.382812 427.636719 388.628906 426.546875 388.433594 C 428.023438 386.460938 429.503906 384.488281 430.980469 382.515625 C 435.871094 378.121094 440.800781 373.679688 445.765625 369.199219 Z M 445.765625 369.199219 "/>
<path style=" stroke:none;fill-rule:evenodd;fill:rgb(58.823529%,75.294118%,41.960784%);fill-opacity:1;" d="M 504.90625 342.5625 C 507.160156 346.378906 509.132812 350.324219 510.820312 354.398438 C 512.769531 365.019531 512.769531 375.871094 510.820312 386.953125 C 507.691406 397.164062 503.746094 407.027344 498.992188 416.550781 C 494.9375 419.125 491.980469 422.578125 490.121094 426.90625 C 488.148438 428.878906 486.179688 430.855469 484.207031 432.828125 C 480.625 435.40625 476.679688 437.378906 472.378906 438.746094 C 475.90625 433.261719 480.835938 429.316406 487.164062 426.90625 C 491.28125 420.339844 495.46875 413.925781 499.730469 407.671875 C 501.945312 400.3125 503.421875 392.914062 504.167969 385.476562 C 502.117188 387.03125 500.640625 389.003906 499.730469 391.394531 C 498.703125 387.125 497.472656 382.933594 496.035156 378.816406 C 498.636719 366.734375 500.605469 366.488281 501.949219 378.078125 C 503.917969 378.078125 505.890625 378.078125 507.863281 378.078125 C 508.347656 366.074219 507.359375 354.234375 504.90625 342.5625 Z M 504.90625 342.5625 "/>
<path style=" stroke:none;fill-rule:evenodd;fill:rgb(17.254902%,29.411765%,7.843137%);fill-opacity:1;" d="M 392.539062 378.078125 C 395.988281 380.542969 398.945312 383.503906 401.410156 386.953125 C 398.078125 385.601562 395.121094 383.628906 392.539062 381.035156 C 392.539062 380.050781 392.539062 379.0625 392.539062 378.078125 Z M 392.539062 378.078125 "/>
<path style=" stroke:none;fill-rule:evenodd;fill:rgb(61.960784%,64.705882%,69.411765%);fill-opacity:1;" d="M 336.359375 378.078125 C 336.359375 382.515625 336.359375 386.953125 336.359375 391.394531 C 232.863281 391.394531 129.367188 391.394531 25.875 391.394531 C 23.214844 386.949219 22.226562 382.015625 22.917969 376.597656 C 127.644531 376.105469 232.125 376.597656 336.359375 378.078125 Z M 336.359375 378.078125 "/>
<path style=" stroke:none;fill-rule:evenodd;fill:rgb(68.627451%,71.764706%,75.294118%);fill-opacity:1;" d="M 42.136719 378.078125 C 136.765625 377.582031 231.390625 378.078125 326.007812 379.554688 C 230.835938 380.8125 135.71875 381.550781 40.660156 381.777344 C 41.769531 380.78125 42.265625 379.550781 42.136719 378.078125 Z M 42.136719 378.078125 "/>
<path style=" stroke:none;fill-rule:evenodd;fill:rgb(36.078431%,38.431373%,41.176471%);fill-opacity:1;" d="M 336.359375 378.078125 C 337.804688 382.699219 338.296875 387.632812 337.835938 392.875 C 233.597656 393.367188 129.613281 392.871094 25.875 391.394531 C 129.367188 391.394531 232.863281 391.394531 336.359375 391.394531 C 336.359375 386.953125 336.359375 382.515625 336.359375 378.078125 Z M 336.359375 378.078125 "/>
<path style=" stroke:none;fill-rule:evenodd;fill:rgb(59.215686%,74.117647%,43.529412%);fill-opacity:1;" d="M 354.097656 386.953125 C 356.425781 387.601562 358.152344 389.082031 359.273438 391.394531 C 360.734375 395.722656 361.71875 400.160156 362.230469 404.710938 C 363.710938 405.699219 365.1875 406.683594 366.667969 407.671875 C 367.714844 414.179688 369.933594 420.097656 373.320312 425.429688 C 368.816406 420.921875 364.628906 415.992188 360.753906 410.628906 C 359.609375 405.378906 357.636719 400.445312 354.839844 395.832031 C 354.105469 392.914062 353.859375 389.953125 354.097656 386.953125 Z M 354.097656 386.953125 "/>
<path style=" stroke:none;fill-rule:evenodd;fill:rgb(18.431373%,30.196078%,10.588235%);fill-opacity:1;" d="M 404.367188 389.914062 C 408.910156 392.976562 412.359375 396.921875 414.71875 401.753906 C 414.226562 401.753906 413.730469 401.753906 413.238281 401.753906 C 409.675781 398.199219 406.71875 394.25 404.367188 389.914062 Z M 404.367188 389.914062 "/>
<path style=" stroke:none;fill-rule:evenodd;fill:rgb(49.803922%,75.686275%,24.313725%);fill-opacity:1;" d="M 376.277344 366.238281 C 376.878906 367.929688 377.867188 369.410156 379.234375 370.675781 C 383.960938 371.964844 387.902344 374.433594 391.0625 378.078125 C 391.554688 378.078125 392.046875 378.078125 392.539062 378.078125 C 392.539062 379.0625 392.539062 380.050781 392.539062 381.035156 C 393.5625 386.117188 396.519531 389.078125 401.410156 389.914062 C 403.808594 395.277344 407.753906 399.21875 413.238281 401.753906 C 413.082031 405.308594 414.558594 408.019531 417.675781 409.890625 C 422.601562 410.382812 427.53125 410.878906 432.460938 411.371094 C 430.148438 413.941406 427.683594 416.160156 425.066406 418.03125 C 424.128906 420.171875 422.40625 421.15625 419.890625 420.988281 C 416.171875 419.5 412.476562 417.773438 408.804688 415.808594 C 406.203125 411.105469 403.738281 406.421875 401.410156 401.753906 C 398.898438 401.988281 396.433594 401.742188 394.019531 401.011719 C 391.734375 397.671875 389.269531 394.464844 386.625 391.394531 C 383.960938 389.519531 381.003906 388.53125 377.753906 388.433594 C 376.769531 384.980469 375.785156 381.527344 374.796875 378.078125 C 373.242188 378.296875 371.765625 378.050781 370.363281 377.335938 C 369.242188 375.097656 367.765625 373.125 365.925781 371.417969 C 367.164062 369.921875 367.65625 368.195312 367.40625 366.238281 C 370.363281 366.238281 373.320312 366.238281 376.277344 366.238281 Z M 376.277344 366.238281 "/>
<path style=" stroke:none;fill-rule:evenodd;fill:rgb(48.627451%,66.666667%,30.980392%);fill-opacity:1;" d="M 392.539062 381.035156 C 395.121094 383.628906 398.078125 385.601562 401.410156 386.953125 C 401.902344 388.433594 402.890625 389.421875 404.367188 389.914062 C 406.71875 394.25 409.675781 398.199219 413.238281 401.753906 C 407.753906 399.21875 403.808594 395.277344 401.410156 389.914062 C 396.519531 389.078125 393.5625 386.117188 392.539062 381.035156 Z M 392.539062 381.035156 "/>
<path style=" stroke:none;fill-rule:evenodd;fill:rgb(25.098039%,37.254902%,13.333333%);fill-opacity:1;" d="M 441.332031 394.355469 C 440.472656 397.679688 438.503906 400.148438 435.417969 401.753906 C 436.273438 398.425781 438.246094 395.960938 441.332031 394.355469 Z M 441.332031 394.355469 "/>
<path style=" stroke:none;fill-rule:evenodd;fill:rgb(60.392157%,60.392157%,60.392157%);fill-opacity:1;" d="M 527.082031 381.035156 C 526.554688 386.96875 525.816406 392.886719 524.867188 398.792969 C 524.683594 401.660156 523.453125 403.632812 521.167969 404.710938 C 522.902344 396.609375 524.875 388.71875 527.082031 381.035156 Z M 527.082031 381.035156 "/>
<path style=" stroke:none;fill-rule:evenodd;fill:rgb(54.117647%,76.078431%,31.372549%);fill-opacity:1;" d="M 503.425781 341.082031 C 498.320312 346.511719 493.394531 352.1875 488.640625 358.101562 C 478.8125 363.992188 470.925781 371.882812 464.988281 381.777344 C 453.199219 387.65625 445.804688 397.027344 442.808594 409.890625 C 438.578125 411.265625 435.128906 413.734375 432.460938 417.289062 C 430.042969 418.019531 427.578125 418.265625 425.066406 418.03125 C 427.683594 416.160156 430.148438 413.941406 432.460938 411.371094 C 427.53125 410.878906 422.601562 410.382812 417.675781 409.890625 C 414.558594 408.019531 413.082031 405.308594 413.238281 401.753906 C 413.730469 401.753906 414.226562 401.753906 414.71875 401.753906 C 415.210938 401.753906 415.703125 401.753906 416.195312 401.753906 C 417.675781 407.410156 421.371094 409.875 427.285156 409.152344 C 432.992188 409.785156 435.703125 407.320312 435.417969 401.753906 C 438.503906 400.148438 440.472656 397.679688 441.332031 394.355469 C 442.316406 393.859375 443.300781 393.367188 444.289062 392.875 C 462.265625 375.621094 480.007812 358.113281 497.511719 340.34375 C 499.828125 339.210938 501.800781 339.457031 503.425781 341.082031 Z M 503.425781 341.082031 "/>
<path style=" stroke:none;fill-rule:evenodd;fill:rgb(37.254902%,53.333333%,21.176471%);fill-opacity:1;" d="M 416.195312 401.753906 C 418.761719 404.320312 421.71875 406.292969 425.066406 407.671875 C 428.53125 405.671875 431.984375 403.699219 435.417969 401.753906 C 435.703125 407.320312 432.992188 409.785156 427.285156 409.152344 C 421.371094 409.875 417.675781 407.410156 416.195312 401.753906 Z M 416.195312 401.753906 "/>
<path style=" stroke:none;fill-rule:evenodd;fill:rgb(51.764706%,51.764706%,51.764706%);fill-opacity:1;" d="M 343.75 409.152344 C 346.328125 411.417969 347.808594 414.378906 348.183594 418.03125 C 345.605469 415.761719 344.128906 412.800781 343.75 409.152344 Z M 343.75 409.152344 "/>
<path style=" stroke:none;fill-rule:evenodd;fill:rgb(21.568627%,30.588235%,16.078431%);fill-opacity:1;" d="M 498.992188 416.550781 C 497.132812 420.882812 494.175781 424.335938 490.121094 426.90625 C 491.980469 422.578125 494.9375 419.125 498.992188 416.550781 Z M 498.992188 416.550781 "/>
<path style=" stroke:none;fill-rule:evenodd;fill:rgb(49.803922%,62.745098%,38.431373%);fill-opacity:1;" d="M 374.796875 428.386719 C 379.597656 429.574219 383.542969 432.039062 386.625 435.785156 C 392.140625 438.039062 397.066406 441 401.410156 444.664062 C 400.425781 444.664062 399.441406 444.664062 398.453125 444.664062 C 388.90625 441.496094 381.019531 436.070312 374.796875 428.386719 Z M 374.796875 428.386719 "/>
<path style=" stroke:none;fill-rule:evenodd;fill:rgb(29.019608%,38.039216%,22.745098%);fill-opacity:1;" d="M 484.207031 432.828125 C 481.6875 437.460938 477.746094 439.929688 472.378906 440.226562 C 472.378906 439.734375 472.378906 439.238281 472.378906 438.746094 C 476.679688 437.378906 480.625 435.40625 484.207031 432.828125 Z M 484.207031 432.828125 "/>
<path style=" stroke:none;fill-rule:evenodd;fill:rgb(59.215686%,59.215686%,59.215686%);fill-opacity:1;" d="M 504.90625 432.828125 C 503.917969 436.773438 501.457031 439.238281 497.511719 440.226562 C 499.484375 437.265625 501.949219 434.800781 504.90625 432.828125 Z M 504.90625 432.828125 "/>
<path style=" stroke:none;fill-rule:evenodd;fill:rgb(14.509804%,22.745098%,9.411765%);fill-opacity:1;" d="M 467.945312 443.183594 C 462.765625 448.089844 456.355469 450.554688 448.722656 450.585938 C 454.902344 447.859375 461.308594 445.394531 467.945312 443.183594 Z M 467.945312 443.183594 "/>
<path style=" stroke:none;fill-rule:evenodd;fill:rgb(33.72549%,43.529412%,23.921569%);fill-opacity:1;" d="M 398.453125 444.664062 C 399.441406 444.664062 400.425781 444.664062 401.410156 444.664062 C 415.5625 449.808594 430.347656 451.78125 445.765625 450.585938 C 431.527344 452.921875 417.234375 452.183594 402.890625 448.363281 C 400.757812 447.804688 399.28125 446.574219 398.453125 444.664062 Z M 398.453125 444.664062 "/>
</g>
</svg>
